<svg width="32" height="32" viewBox="0 0 32 32" fill="none" xmlns="http://www.w3.org/2000/svg">
<path d="M25.3332 13.3334C24.9795 13.3334 24.6404 13.4739 24.3904 13.7239C24.1403 13.974 23.9998 14.3131 23.9998 14.6667V19.1734L22.0265 17.2001C21.3297 16.5088 20.388 16.1209 19.4065 16.1209C18.425 16.1209 17.4833 16.5088 16.7865 17.2001L15.8532 18.1467L12.5465 14.8267C11.8497 14.1355 10.908 13.7476 9.9265 13.7476C8.945 13.7476 8.00327 14.1355 7.3065 14.8267L5.33317 16.8134V9.33341C5.33317 8.97979 5.47365 8.64065 5.7237 8.39061C5.97374 8.14056 6.31288 8.00008 6.6665 8.00008H17.3332C17.6868 8.00008 18.0259 7.8596 18.276 7.60956C18.526 7.35951 18.6665 7.02037 18.6665 6.66675C18.6665 6.31313 18.526 5.97399 18.276 5.72394C18.0259 5.47389 17.6868 5.33341 17.3332 5.33341H6.6665C5.60564 5.33341 4.58822 5.75484 3.83808 6.50499C3.08793 7.25513 2.6665 8.27255 2.6665 9.33341V25.6267C2.67002 26.6087 3.06167 27.5495 3.75604 28.2439C4.45042 28.9382 5.39118 29.3299 6.37317 29.3334H22.9598C23.3211 29.3305 23.6802 29.2767 24.0265 29.1734C24.7964 28.9575 25.4742 28.4949 25.9559 27.8566C26.4376 27.2184 26.6966 26.4397 26.6932 25.6401V14.6667C26.6932 14.4894 26.6579 14.3138 26.5892 14.1503C26.5205 13.9867 26.4199 13.8386 26.2933 13.7144C26.1666 13.5902 26.0165 13.4926 25.8516 13.4271C25.6867 13.3617 25.5105 13.3299 25.3332 13.3334ZM6.6665 26.6667C6.31288 26.6667 5.97374 26.5263 5.7237 26.2762C5.47365 26.0262 5.33317 25.687 5.33317 25.3334V20.5734L9.1865 16.7201C9.38137 16.5263 9.64502 16.4175 9.91984 16.4175C10.1947 16.4175 10.4583 16.5263 10.6532 16.7201L20.6132 26.6667H6.6665ZM23.9998 25.3334C23.9913 25.5916 23.9079 25.8417 23.7598 26.0534L17.7332 20.0001L18.6798 19.0667C18.7754 18.9692 18.8895 18.8917 19.0154 18.8388C19.1414 18.7859 19.2766 18.7586 19.4132 18.7586C19.5498 18.7586 19.685 18.7859 19.8109 18.8388C19.9368 18.8917 20.0509 18.9692 20.1465 19.0667L23.9998 22.9467V25.3334ZM27.9998 5.33341H26.6665V4.00008C26.6665 3.64646 26.526 3.30732 26.276 3.05727C26.0259 2.80722 25.6868 2.66675 25.3332 2.66675C24.9795 2.66675 24.6404 2.80722 24.3904 3.05727C24.1403 3.30732 23.9998 3.64646 23.9998 4.00008V5.33341H22.6665C22.3129 5.33341 21.9737 5.47389 21.7237 5.72394C21.4736 5.97399 21.3332 6.31313 21.3332 6.66675C21.3332 7.02037 21.4736 7.35951 21.7237 7.60956C21.9737 7.8596 22.3129 8.00008 22.6665 8.00008H23.9998V9.33341C23.9998 9.68704 24.1403 10.0262 24.3904 10.2762C24.6404 10.5263 24.9795 10.6667 25.3332 10.6667C25.6868 10.6667 26.0259 10.5263 26.276 10.2762C26.526 10.0262 26.6665 9.68704 26.6665 9.33341V8.00008H27.9998C28.3535 8.00008 28.6926 7.8596 28.9426 7.60956C29.1927 7.35951 29.3332 7.02037 29.3332 6.66675C29.3332 6.31313 29.1927 5.97399 28.9426 5.72394C28.6926 5.47389 28.3535 5.33341 27.9998 5.33341Z" fill="#828282"/>
</svg>
