<svg width="24" height="24" viewBox="0 0 24 24" fill="none" xmlns="http://www.w3.org/2000/svg">
<path d="M5.9893 2.2364C5.96399 2.23662 5.93871 2.23812 5.91355 2.2409C5.72812 2.26196 5.55719 2.3514 5.43418 2.49175C5.31117 2.6321 5.2449 2.81327 5.24834 2.99986V5.24825H4.50137C2.43673 5.24825 0.74707 6.93641 0.74707 9.00105V19.4975C0.74707 21.5621 2.43673 23.2518 4.50137 23.2518H19.4976C20.1118 23.2508 20.7164 23.0989 21.2582 22.8095C21.7999 22.5201 22.2623 22.1021 22.6047 21.5921C23.0097 20.9922 23.2459 20.2722 23.2459 19.4975V9.00105C23.2459 6.93641 21.5622 5.24825 19.4976 5.24825H18.7506V2.99986C18.7526 2.89307 18.7317 2.78709 18.6894 2.68901C18.6471 2.59093 18.5844 2.50302 18.5053 2.43116C18.4263 2.35931 18.3328 2.30516 18.2312 2.27235C18.1295 2.23954 18.0221 2.22881 17.9159 2.2409C17.7305 2.26196 17.5596 2.3514 17.4366 2.49175C17.3135 2.6321 17.2473 2.81327 17.2507 2.99986V5.24825H12.7494V2.99986C12.7514 2.89307 12.7305 2.78709 12.6882 2.68901C12.6459 2.59093 12.5832 2.50302 12.5041 2.43116C12.4251 2.35931 12.3316 2.30516 12.23 2.27235C12.1284 2.23954 12.0209 2.22881 11.9147 2.2409C11.7293 2.26196 11.5584 2.3514 11.4354 2.49175C11.3124 2.6321 11.2461 2.81327 11.2495 2.99986V5.24825H6.74826V2.99986C6.75007 2.89948 6.73171 2.79976 6.69427 2.70661C6.65683 2.61346 6.60107 2.52877 6.53029 2.45757C6.45951 2.38638 6.37515 2.33011 6.28222 2.29212C6.1893 2.25413 6.08968 2.23518 5.9893 2.2364ZM4.50137 6.74817H5.24834V7.50113C5.24834 7.70003 5.32735 7.89079 5.46799 8.03143C5.60864 8.17208 5.7994 8.25109 5.9983 8.25109C6.1972 8.25109 6.38795 8.17208 6.5286 8.03143C6.66924 7.89079 6.74826 7.70003 6.74826 7.50113V6.74817H11.2495V7.50113C11.2495 7.70003 11.3285 7.89079 11.4692 8.03143C11.6098 8.17208 11.8006 8.25109 11.9995 8.25109C12.1984 8.25109 12.3891 8.17208 12.5298 8.03143C12.6704 7.89079 12.7494 7.70003 12.7494 7.50113V6.74817H17.2507V7.50113C17.2507 7.70003 17.3297 7.89079 17.4704 8.03143C17.611 8.17208 17.8018 8.25109 18.0007 8.25109C18.1996 8.25109 18.3903 8.17208 18.531 8.03143C18.6716 7.89079 18.7506 7.70003 18.7506 7.50113V6.74817H19.4976C19.7942 6.74557 20.0884 6.80206 20.363 6.91434C20.6376 7.02662 20.8871 7.19244 21.0969 7.40214C21.3068 7.61184 21.4728 7.86122 21.5852 8.13573C21.6977 8.41024 21.7544 8.7044 21.752 9.00105V10.5242C21.1062 10.025 20.3138 9.75267 19.4976 9.74951H4.50137C3.65392 9.74951 2.87771 10.0435 2.24699 10.522V9.00105C2.24459 8.7044 2.30127 8.41024 2.41374 8.13573C2.5262 7.86122 2.69219 7.61184 2.90203 7.40214C3.11187 7.19244 3.36135 7.02662 3.63594 6.91434C3.91053 6.80206 4.20473 6.74557 4.50137 6.74817ZM4.50137 11.2494H19.4976C19.7939 11.2461 20.0879 11.3019 20.3625 11.4136C20.637 11.5253 20.8865 11.6905 21.0964 11.8997C21.3063 12.1089 21.4724 12.3579 21.5849 12.632C21.6975 12.9061 21.7543 13.2 21.752 13.4963V19.4975C21.7544 19.7942 21.6977 20.0885 21.5853 20.3631C21.4728 20.6376 21.3068 20.8871 21.097 21.0969C20.8872 21.3068 20.6377 21.4727 20.3631 21.5852C20.0885 21.6976 19.7943 21.7543 19.4976 21.7519H4.50137C4.20466 21.7543 3.91043 21.6976 3.63583 21.5852C3.36123 21.4727 3.11176 21.3068 2.90194 21.0969C2.69212 20.8871 2.52616 20.6376 2.41371 20.3631C2.30127 20.0885 2.24459 19.7942 2.24699 19.4975V13.4963C2.24468 13.2 2.30147 12.9061 2.41404 12.632C2.52661 12.3579 2.6927 12.1089 2.9026 11.8997C3.1125 11.6905 3.362 11.5253 3.63651 11.4136C3.91102 11.3019 4.20504 11.2461 4.50137 11.2494ZM10.4246 12.7494C10.2307 12.7664 10.051 12.8581 9.92337 13.005C9.79571 13.1519 9.73001 13.3426 9.74012 13.5369C9.75023 13.7313 9.83534 13.9141 9.97755 14.047C10.1198 14.1799 10.308 14.2524 10.5026 14.2493H12.7494V15.7507H10.5026C10.3037 15.7507 10.1129 15.8297 9.97226 15.9704C9.83161 16.111 9.7526 16.3018 9.7526 16.5007C9.7526 16.6996 9.83161 16.8903 9.97226 17.031C10.1129 17.1716 10.3037 17.2506 10.5026 17.2506H12.7494V18.7505H10.5026C10.3037 18.7505 10.1129 18.8296 9.97226 18.9702C9.83161 19.1108 9.7526 19.3016 9.7526 19.5005C9.7526 19.6994 9.83161 19.8902 9.97226 20.0308C10.1129 20.1715 10.3037 20.2505 10.5026 20.2505H13.4964C13.5955 20.2511 13.6938 20.232 13.7855 20.1944C13.8772 20.1568 13.9605 20.1014 14.0307 20.0313C14.1008 19.9613 14.1564 19.8781 14.1942 19.7865C14.232 19.6948 14.2513 19.5966 14.2509 19.4975V16.5532C14.2516 16.5347 14.2516 16.5162 14.2509 16.4977V13.4963C14.2505 13.3977 14.2306 13.3001 14.1925 13.2092C14.1543 13.1183 14.0986 13.0357 14.0286 12.9664C13.9585 12.897 13.8754 12.8421 13.7841 12.8049C13.6928 12.7676 13.595 12.7488 13.4964 12.7494H10.5026C10.4766 12.748 10.4505 12.748 10.4246 12.7494Z" fill="#868686"/>
</svg>
