<svg width="32" height="32" viewBox="0 0 32 32" fill="none" xmlns="http://www.w3.org/2000/svg">
<g filter="url(#filter0_d_295_5145)">
<path d="M25.3333 0H6.66667C5.95942 0 5.28115 0.280951 4.78105 0.781048C4.28095 1.28115 4 1.95942 4 2.66667V21.3333C4 22.0406 4.28095 22.7189 4.78105 23.219C5.28115 23.719 5.95942 24 6.66667 24H25.3333C26.0406 24 26.7189 23.719 27.219 23.219C27.719 22.7189 28 22.0406 28 21.3333V2.66667C28 1.95942 27.719 1.28115 27.219 0.781048C26.7189 0.280951 26.0406 0 25.3333 0ZM25.3333 2.66667V21.3333H6.66667V2.66667H25.3333ZM13.3333 18.6667L8 13.3333L9.88 11.44L13.3333 14.8933L22.12 6.10667L24 8" fill="#828282"/>
</g>
<defs>
<filter id="filter0_d_295_5145" x="0" y="0" width="32" height="32" filterUnits="userSpaceOnUse" color-interpolation-filters="sRGB">
<feFlood flood-opacity="0" result="BackgroundImageFix"/>
<feColorMatrix in="SourceAlpha" type="matrix" values="0 0 0 0 0 0 0 0 0 0 0 0 0 0 0 0 0 0 127 0" result="hardAlpha"/>
<feOffset dy="4"/>
<feGaussianBlur stdDeviation="2"/>
<feComposite in2="hardAlpha" operator="out"/>
<feColorMatrix type="matrix" values="0 0 0 0 0 0 0 0 0 0 0 0 0 0 0 0 0 0 0.25 0"/>
<feBlend mode="normal" in2="BackgroundImageFix" result="effect1_dropShadow_295_5145"/>
<feBlend mode="normal" in="SourceGraphic" in2="effect1_dropShadow_295_5145" result="shape"/>
</filter>
</defs>
</svg>
