<svg width="24" height="24" viewBox="0 0 24 24" fill="none" xmlns="http://www.w3.org/2000/svg">
<g clip-path="url(#clip0_330_4383)">
<path d="M21.2783 11.8763C21.2783 17.0689 17.0689 21.2784 11.8763 21.2784C6.68366 21.2784 2.47421 17.0689 2.47421 11.8763C2.47421 6.68369 6.68366 2.47424 11.8763 2.47424C12.5889 2.47424 13.283 2.55352 13.9503 2.70375" stroke="#FABF35" stroke-width="2" stroke-linecap="round"/>
<path d="M11.4595 7.23025V11.5122C11.4595 12.0074 11.6451 12.4846 11.9798 12.8497L14.5467 15.65M19.299 10.8865L20.4036 9.78187C20.8867 9.29876 21.67 9.29876 22.1532 9.78187L23.2578 10.8865M11.8763 2.47412C14.9855 2.47412 17.7423 3.98335 19.4538 6.30917" stroke="#FABF35" stroke-width="2" stroke-linecap="round"/>
</g>
<defs>
<clipPath id="clip0_330_4383">
<rect width="24" height="23.7526" fill="white"/>
</clipPath>
</defs>
</svg>
