<svg width="42" height="43" viewBox="0 0 42 43" fill="none" xmlns="http://www.w3.org/2000/svg">
<path d="M21.525 21.885C22.4588 21.0767 23.2077 20.077 23.721 18.9538C24.2343 17.8305 24.5 16.61 24.5 15.375C24.5 13.0544 23.5781 10.8288 21.9372 9.18782C20.2962 7.54687 18.0706 6.625 15.75 6.625C13.4294 6.625 11.2038 7.54687 9.56282 9.18782C7.92187 10.8288 7 13.0544 7 15.375C6.99999 16.61 7.26565 17.8305 7.77897 18.9538C8.29229 20.077 9.04124 21.0767 9.975 21.885C7.52524 22.9943 5.44681 24.7857 3.98822 27.045C2.52962 29.3042 1.75258 31.9358 1.75 34.625C1.75 35.0891 1.93437 35.5343 2.26256 35.8624C2.59075 36.1906 3.03587 36.375 3.5 36.375C3.96413 36.375 4.40925 36.1906 4.73744 35.8624C5.06563 35.5343 5.25 35.0891 5.25 34.625C5.25 31.8402 6.35625 29.1695 8.32538 27.2004C10.2945 25.2312 12.9652 24.125 15.75 24.125C18.5348 24.125 21.2055 25.2312 23.1746 27.2004C25.1438 29.1695 26.25 31.8402 26.25 34.625C26.25 35.0891 26.4344 35.5343 26.7626 35.8624C27.0908 36.1906 27.5359 36.375 28 36.375C28.4641 36.375 28.9093 36.1906 29.2374 35.8624C29.5656 35.5343 29.75 35.0891 29.75 34.625C29.7474 31.9358 28.9704 29.3042 27.5118 27.045C26.0532 24.7857 23.9748 22.9943 21.525 21.885ZM15.75 20.625C14.7116 20.625 13.6966 20.3171 12.8333 19.7402C11.9699 19.1633 11.297 18.3434 10.8996 17.3841C10.5023 16.4248 10.3983 15.3692 10.6009 14.3508C10.8034 13.3324 11.3035 12.3969 12.0377 11.6627C12.7719 10.9285 13.7074 10.4285 14.7258 10.2259C15.7442 10.0233 16.7998 10.1273 17.7591 10.5246C18.7184 10.922 19.5383 11.5949 20.1152 12.4583C20.6921 13.3216 21 14.3366 21 15.375C21 16.7674 20.4469 18.1027 19.4623 19.0873C18.4777 20.0719 17.1424 20.625 15.75 20.625ZM32.795 21.185C33.9149 19.9238 34.6465 18.3658 34.9017 16.6986C35.1568 15.0313 34.9246 13.3259 34.2331 11.7875C33.5416 10.2491 32.4201 8.94339 31.0038 8.02749C29.5875 7.11159 27.9367 6.62455 26.25 6.625C25.7859 6.625 25.3408 6.80937 25.0126 7.13756C24.6844 7.46575 24.5 7.91087 24.5 8.375C24.5 8.83913 24.6844 9.28425 25.0126 9.61244C25.3408 9.94063 25.7859 10.125 26.25 10.125C27.6424 10.125 28.9777 10.6781 29.9623 11.6627C30.9469 12.6473 31.5 13.9826 31.5 15.375C31.4975 16.2942 31.2538 17.1966 30.7931 17.992C30.3324 18.7874 29.671 19.4479 28.875 19.9075C28.6155 20.0572 28.3988 20.2709 28.2456 20.5283C28.0924 20.7857 28.0079 21.0781 28 21.3775C27.9927 21.6746 28.0611 21.9686 28.1989 22.232C28.3367 22.4953 28.5393 22.7191 28.7875 22.8825L29.47 23.3375L29.6975 23.46C31.8069 24.4605 33.5865 26.043 34.8267 28.021C36.0669 29.9991 36.716 32.2904 36.6975 34.625C36.6975 35.0891 36.8819 35.5343 37.2101 35.8624C37.5383 36.1906 37.9834 36.375 38.4475 36.375C38.9116 36.375 39.3567 36.1906 39.6849 35.8624C40.0131 35.5343 40.1975 35.0891 40.1975 34.625C40.2118 31.9395 39.5392 29.2949 38.2436 26.9426C36.9479 24.5903 35.0724 22.6083 32.795 21.185Z" fill="#239EC2"/>
</svg>
