<svg width="18" height="19" viewBox="0 0 18 19" fill="none" xmlns="http://www.w3.org/2000/svg">
<path fill-rule="evenodd" clip-rule="evenodd" d="M13.917 4.55205C13.917 6.28255 13.487 8.53955 12.8255 8.19705C12.555 9.08041 11.9871 9.84292 11.2183 10.3551C10.4494 10.8673 9.52699 11.0976 8.60761 11.0069C7.68823 10.9162 6.82857 10.5101 6.17461 9.85756C5.52065 9.20501 5.1127 8.34624 5.02002 7.42705C4.36352 6.27855 3.50252 3.97705 5.71602 2.18305C5.75602 2.17005 5.78002 2.06205 5.81602 1.90305C5.95302 1.30155 6.25652 -0.0354456 8.17102 0.220054C9.64752 0.416554 13.917 1.17855 13.917 4.55205ZM12.014 5.64355C12.014 5.64355 11.788 6.30455 12 7.04105C11.9973 7.82635 11.6867 8.57925 11.135 9.13811C10.5833 9.69698 9.83449 10.0172 9.0493 10.0301C8.26411 10.043 7.50517 9.74753 6.93542 9.20708C6.36568 8.66663 6.03056 7.92433 6.00202 7.13955C6.07452 6.86455 6.07452 6.39905 6.07402 5.88155C6.07352 4.94805 6.07252 3.84655 6.50002 3.39755C9.49452 5.39205 12.014 5.64355 12.014 5.64355Z" fill="black"/>
<path d="M3.5 15.6471C3.5 15.1061 3.7865 14.6321 4.2165 14.3681C4.20016 14.3058 4.18483 14.2433 4.1705 14.1806C4.09492 13.8389 4.03569 13.4939 3.993 13.1466C3.95036 12.8138 3.92449 12.479 3.9155 12.1436C1.805 12.9721 0 14.4161 0 15.9321V18.6471H18V15.9321C18 14.4801 16.345 13.0946 14.351 12.2521V12.2661C14.36 12.5711 14.343 12.9211 14.31 13.2576C14.28 13.5696 14.2355 13.8806 14.182 14.1471H14.5C14.5928 14.1471 14.6838 14.173 14.7628 14.2219C14.8417 14.2707 14.9055 14.3405 14.947 14.4236L15.447 15.4236C15.482 15.4931 15.5 15.5696 15.5 15.6471V16.6471C15.5 16.7797 15.4473 16.9069 15.3536 17.0006C15.2598 17.0944 15.1326 17.1471 15 17.1471H14V16.1471H14.5V15.7651L14.191 15.1471H12.809L12.5 15.7651V16.1471H13V17.1471H12C11.8674 17.1471 11.7402 17.0944 11.6464 17.0006C11.5527 16.9069 11.5 16.7797 11.5 16.6471V15.6471C11.5 15.5696 11.518 15.4931 11.553 15.4236L12.053 14.4236C12.0945 14.3405 12.1583 14.2707 12.2372 14.2219C12.3162 14.173 12.4072 14.1471 12.5 14.1471H13.1575C13.1685 14.1041 13.1795 14.0564 13.1905 14.0041C13.2405 13.7686 13.285 13.4701 13.315 13.1616C13.345 12.8526 13.359 12.5461 13.3515 12.2941C13.3499 12.1897 13.3417 12.0855 13.327 11.9821C13.316 11.9111 13.305 11.8786 13.303 11.8716C13.3023 11.8699 13.3023 11.8696 13.303 11.8706L13.3045 11.8701C13.0392 11.7878 12.7708 11.7156 12.5 11.6536C12.2485 11.5961 11.9885 11.9421 11.875 12.1586H6L5.957 12.0746C5.851 11.8636 5.7205 11.6031 5.5 11.6536C5.30733 11.6972 5.11483 11.7467 4.9225 11.8021C4.91653 11.8898 4.91386 11.9777 4.9145 12.0656C4.9165 12.3421 4.943 12.6806 4.9855 13.0226C5.028 13.3636 5.0855 13.6956 5.1455 13.9576C5.16283 14.0332 5.1795 14.1006 5.1955 14.1596C5.48136 14.1972 5.75033 14.3163 5.97021 14.5028C6.1901 14.6893 6.35158 14.9352 6.43533 15.2111C6.51907 15.487 6.52154 15.7811 6.44242 16.0584C6.36331 16.3356 6.20597 16.5842 5.98924 16.7743C5.77251 16.9645 5.50557 17.0881 5.22039 17.1305C4.9352 17.1729 4.64385 17.1321 4.38121 17.0132C4.11857 16.8943 3.89577 16.7021 3.73949 16.4599C3.5832 16.2176 3.50006 15.9354 3.5 15.6471Z" fill="black"/>
<path d="M5.5 15.6471C5.5 15.9341 5.269 16.1546 5 16.1546C4.731 16.1546 4.5 15.9346 4.5 15.6471C4.5 15.3601 4.731 15.1396 5 15.1396C5.269 15.1396 5.5 15.3596 5.5 15.6471Z" fill="black"/>
</svg>
