<svg width="19" height="19" viewBox="0 0 19 19" fill="none" xmlns="http://www.w3.org/2000/svg">
<path fill-rule="evenodd" clip-rule="evenodd" d="M14.2846 4.55205C14.2846 6.28255 13.8546 8.53955 13.1931 8.19705C12.9226 9.08041 12.3547 9.84292 11.5858 10.3551C10.817 10.8673 9.89454 11.0976 8.97516 11.0069C8.05578 10.9162 7.19613 10.5101 6.54217 9.85756C5.88821 9.20501 5.48026 8.34624 5.38758 7.42705C4.73108 6.27855 3.87008 3.97705 6.08358 2.18305C6.12358 2.17005 6.14758 2.06205 6.18358 1.90305C6.32058 1.30155 6.62408 -0.0354456 8.53858 0.220054C10.0151 0.416554 14.2846 1.17855 14.2846 4.55205ZM12.3816 5.64355C12.3816 5.64355 12.1556 6.30455 12.3676 7.04105C12.3648 7.82635 12.0543 8.57925 11.5026 9.13811C10.9509 9.69698 10.202 10.0172 9.41686 10.0301C8.63166 10.043 7.87272 9.74753 7.30298 9.20708C6.73323 8.66663 6.39811 7.92433 6.36958 7.13955C6.44208 6.86455 6.44208 6.39905 6.44158 5.88155C6.44108 4.94805 6.44008 3.84655 6.86758 3.39755C9.86208 5.39205 12.3816 5.64355 12.3816 5.64355Z" fill="#239EC2"/>
<path d="M3.86768 15.6468C3.86768 15.1058 4.15418 14.6318 4.58418 14.3678C4.56784 14.3056 4.5525 14.2431 4.53818 14.1803C4.4626 13.8387 4.40336 13.4936 4.36068 13.1463C4.31803 12.8135 4.29217 12.4788 4.28318 12.1433C2.17268 12.9718 0.367676 14.4158 0.367676 15.9318V18.6468H18.3677V15.9318C18.3677 14.4798 16.7127 13.0943 14.7187 12.2518V12.2658C14.7277 12.5708 14.7107 12.9208 14.6777 13.2573C14.6477 13.5693 14.6032 13.8803 14.5497 14.1468H14.8677C14.9605 14.1469 15.0515 14.1728 15.1304 14.2216C15.2094 14.2704 15.2732 14.3403 15.3147 14.4233L15.8147 15.4233C15.8497 15.4928 15.8677 15.5693 15.8677 15.6468V16.6468C15.8677 16.7794 15.815 16.9066 15.7212 17.0004C15.6275 17.0942 15.5003 17.1468 15.3677 17.1468H14.3677V16.1468H14.8677V15.7648L14.5587 15.1468H13.1767L12.8677 15.7648V16.1468H13.3677V17.1468H12.3677C12.2351 17.1468 12.1079 17.0942 12.0141 17.0004C11.9204 16.9066 11.8677 16.7794 11.8677 16.6468V15.6468C11.8677 15.5693 11.8857 15.4928 11.9207 15.4233L12.4207 14.4233C12.4622 14.3403 12.526 14.2704 12.6049 14.2216C12.6839 14.1728 12.7748 14.1469 12.8677 14.1468H13.5252C13.5362 14.1038 13.5472 14.0562 13.5582 14.0038C13.6082 13.7683 13.6527 13.4698 13.6827 13.1613C13.7127 12.8523 13.7267 12.5458 13.7192 12.2938C13.7175 12.1894 13.7093 12.0852 13.6947 11.9818C13.6837 11.9108 13.6727 11.8783 13.6707 11.8713C13.67 11.8697 13.67 11.8693 13.6707 11.8703L13.6722 11.8698C13.4068 11.7875 13.1385 11.7153 12.8677 11.6533C12.6162 11.5958 12.3562 11.9418 12.2427 12.1583H6.36768L6.32468 12.0743C6.21868 11.8633 6.08818 11.6028 5.86768 11.6533C5.67501 11.697 5.48251 11.7465 5.29018 11.8018C5.2842 11.8895 5.28153 11.9774 5.28218 12.0653C5.28418 12.3418 5.31068 12.6803 5.35318 13.0223C5.39568 13.3633 5.45318 13.6953 5.51318 13.9573C5.53051 14.033 5.54718 14.1003 5.56318 14.1593C5.84903 14.1969 6.118 14.3161 6.33789 14.5026C6.55777 14.689 6.71925 14.9349 6.803 15.2108C6.88675 15.4867 6.88921 15.7809 6.8101 16.0581C6.73098 16.3354 6.57364 16.584 6.35691 16.7741C6.14018 16.9642 5.87325 17.0879 5.58806 17.1303C5.30288 17.1726 5.01152 17.1319 4.74888 17.013C4.48624 16.894 4.26345 16.7019 4.10716 16.4596C3.95088 16.2173 3.86773 15.9351 3.86768 15.6468Z" fill="#239EC2"/>
<path d="M5.86768 15.6471C5.86768 15.9341 5.63668 16.1546 5.36768 16.1546C5.09868 16.1546 4.86768 15.9346 4.86768 15.6471C4.86768 15.3601 5.09868 15.1396 5.36768 15.1396C5.63668 15.1396 5.86768 15.3596 5.86768 15.6471Z" fill="#239EC2"/>
</svg>
