<svg width="150" height="253" viewBox="0 0 150 253" fill="none" xmlns="http://www.w3.org/2000/svg">
<path d="M127.503 171.301C127.503 171.301 149.278 166.092 150 165.191L132.087 119.051C130.35 114.311 127.571 110.021 123.956 106.497C120.341 102.973 115.981 100.305 111.198 98.6898C104.405 96.3246 97.2376 95.2175 90.0476 95.4228L59.811 93.8228C51.4851 94.3374 43.3585 96.5857 35.9521 100.424C25.7868 105.723 17.8464 114.477 13.5592 125.109L0 158.977L34.233 166.129L35.5353 202.52L30.3781 252.731H124.787L124.132 173.147L127.503 171.301Z" fill="#239EC2"/>
<g opacity="0.3">
<path d="M146.272 159.163C146.272 159.267 140.653 161.113 133.62 163.278C126.588 165.444 120.917 167.126 120.887 166.999C120.857 166.873 126.498 165.049 133.538 162.876C140.578 160.703 146.242 159.059 146.272 159.163Z" fill="white"/>
</g>
<path d="M47.4649 126.731C47.2458 126.485 47.0514 126.219 46.8844 125.935C46.5421 125.414 46.0137 124.67 45.329 123.777C44.5281 122.738 43.671 121.745 42.7616 120.8C41.6487 119.637 40.4657 118.544 39.2192 117.525C37.9574 116.521 36.6379 115.592 35.2675 114.742C34.1421 114.06 32.9821 113.436 31.7921 112.874C30.78 112.39 29.9391 112.033 29.3512 111.803C29.0365 111.704 28.7343 111.569 28.4507 111.401C28.7751 111.46 29.0938 111.547 29.4033 111.661C30.2524 111.939 31.087 112.259 31.9038 112.621C33.1211 113.157 34.3063 113.764 35.4536 114.437C36.8462 115.278 38.1836 116.208 39.4574 117.22C40.719 118.25 41.9099 119.364 43.022 120.554C43.9238 121.53 44.7663 122.559 45.5449 123.635C46.083 124.351 46.5799 125.096 47.0333 125.868C47.2079 126.139 47.3526 126.429 47.4649 126.731Z" fill="#263238"/>
<path d="M43.007 137.745C43.1111 137.745 42.0544 148.863 40.6479 162.556C39.2413 176.249 38.0134 187.345 37.9092 187.33C37.805 187.315 38.8543 176.212 40.2683 162.519C41.6823 148.826 42.9251 137.73 43.007 137.745Z" fill="#263238"/>
<path d="M117.345 117.191C117.144 116.456 116.982 115.71 116.861 114.958C116.483 113.151 115.986 111.371 115.373 109.63C114.743 107.889 113.998 106.194 113.14 104.554C112.752 103.891 112.399 103.208 112.083 102.508C112.083 102.508 112.247 102.664 112.478 102.991C112.709 103.319 113.021 103.81 113.386 104.42C114.318 106.039 115.105 107.738 115.738 109.496C116.369 111.253 116.839 113.064 117.144 114.906C117.256 115.613 117.323 116.186 117.352 116.588C117.378 116.788 117.376 116.991 117.345 117.191Z" fill="#263238"/>
<path d="M119.25 156C119.16 155.641 119.1 155.275 119.071 154.906C118.974 154.207 118.863 153.18 118.736 151.929C118.491 149.399 118.23 145.887 118.096 142.009C117.962 138.132 117.97 134.605 118.037 132.059C118.074 130.787 118.111 129.76 118.156 129.083C118.156 128.713 118.193 128.344 118.267 127.981C118.31 128.347 118.325 128.715 118.312 129.083V132.074C118.312 134.612 118.349 138.125 118.483 142.002C118.617 145.879 118.833 149.377 119.012 151.915C119.093 153.128 119.16 154.147 119.22 154.891C119.266 155.259 119.276 155.63 119.25 156Z" fill="#263238"/>
<path d="M73.5267 149.503C65.5889 149.965 57.6273 149.816 49.7124 149.057V152.168H73.5267V149.503Z" fill="white"/>
<g opacity="0.3">
<path d="M97.2514 98.0499C97.302 98.2018 97.3344 98.3592 97.3481 98.5187L97.5565 99.8881C97.7053 101.094 97.9137 102.865 98.0848 105.097C98.4421 109.563 98.7546 115.925 98.829 123.434V123.717L98.5686 123.598C93.8206 121.284 88.4996 118.768 82.9405 116L55.8741 102.456L47.688 98.3104L45.4554 97.1718L44.8898 96.8592C44.8205 96.8309 44.7554 96.7934 44.6963 96.7476C44.7692 96.7651 44.8393 96.7926 44.9046 96.8294L45.4926 97.0973L47.7252 98.1764L55.956 102.21L83.1116 115.65C88.6485 118.419 93.962 120.941 98.7397 123.271L98.4867 123.427C98.4048 115.933 98.1444 109.577 97.8467 105.105C97.7127 102.872 97.5341 101.109 97.4225 99.8955C97.3555 99.315 97.3035 98.8536 97.2663 98.5187C97.2532 98.3628 97.2482 98.2063 97.2514 98.0499Z" fill="white"/>
</g>
<g opacity="0.3">
<path d="M40.3577 162.333C40.2236 162.331 40.0907 162.308 39.9633 162.267L38.8544 162.006L34.7837 160.972C31.3455 160.086 26.5975 158.888 21.3435 157.615C16.0895 156.343 11.3117 155.241 7.85124 154.452L3.75817 153.515L2.64932 153.247C2.51893 153.221 2.39169 153.181 2.26978 153.128C2.40063 153.11 2.53334 153.11 2.6642 153.128L3.78794 153.329C4.76284 153.507 6.16937 153.79 7.91079 154.147C11.3862 154.892 16.1713 155.926 21.4328 157.199C26.6943 158.471 31.4348 159.721 34.8283 160.666C36.54 161.143 37.9242 161.537 38.8693 161.82L39.9633 162.155C40.1009 162.2 40.2332 162.26 40.3577 162.333Z" fill="white"/>
</g>
<path d="M93.0615 92.416C93.0615 92.3044 95.1081 93.376 97.0802 96.3007C99.0523 99.2254 100.846 103.743 101.865 108.952C102.334 111.409 102.625 113.896 102.736 116.394C102.736 117.54 102.788 118.627 102.736 119.646C102.684 120.666 102.669 121.611 102.58 122.474C102.49 123.337 102.401 124.104 102.327 124.796C102.252 125.488 102.118 126.054 102.037 126.53C101.99 127.041 101.87 127.542 101.679 128.018C101.634 127.522 101.654 127.021 101.739 126.53L101.895 124.789C101.94 124.096 101.984 123.3 102.029 122.474C102.074 121.648 102.029 120.681 102.096 119.676C102.163 118.671 102.044 117.592 102.007 116.468C101.856 114.02 101.55 111.585 101.091 109.175C100.313 104.794 98.8035 100.576 96.6262 96.6952C95.9267 95.5498 95.095 94.4908 94.1481 93.5398C93.7658 93.1851 93.4031 92.81 93.0615 92.416Z" fill="#263238"/>
<path d="M59.2229 92.6318C58.7638 93.4192 58.2385 94.1661 57.6527 94.8644C56.2332 96.9034 55.0568 99.1013 54.1475 101.413C52.8434 104.857 51.971 108.449 51.5503 112.107C51.007 116.23 50.8061 120.844 50.4712 125.674C50.1363 130.504 50.2107 135.103 50.2033 139.293C50.1959 143.483 50.2033 147.263 50.2033 150.456C50.2033 153.648 50.1214 156.208 50.0321 157.987C50.0406 158.912 49.9483 159.835 49.7568 160.741C49.5989 159.829 49.539 158.904 49.5782 157.98C49.5261 156.171 49.4665 153.611 49.3847 150.463C49.3028 147.315 49.1986 143.512 49.1391 139.3C49.0795 135.088 49.0647 130.474 49.3177 125.607C49.5707 120.74 49.8833 116.148 50.4935 111.959C50.9775 108.225 51.9535 104.571 53.3959 101.093C54.3894 98.7564 55.7045 96.5697 57.3029 94.5965C57.8504 93.8572 58.4964 93.1962 59.2229 92.6318Z" fill="#263238"/>
<path d="M109.263 154.839C109.142 154.027 109.092 153.205 109.114 152.383C109.069 150.798 109.032 148.506 109.002 145.686C109.002 144.264 109.002 142.709 108.958 141.057C108.913 139.405 108.958 137.604 108.861 135.773C108.81 133.877 108.144 132.048 106.963 130.564C106.314 129.811 105.516 129.202 104.62 128.774C103.723 128.346 102.747 128.109 101.754 128.078C99.7251 128.083 97.7705 128.842 96.2692 130.206C94.8824 131.502 93.9178 133.185 93.5008 135.036C93.0394 136.807 92.8459 138.586 92.5705 140.246L91.8264 144.815C91.3798 147.606 91.0003 149.868 90.7249 151.423C90.6228 152.24 90.4535 153.046 90.2189 153.835C90.2155 153.011 90.2853 152.19 90.4273 151.379C90.6133 149.809 90.9035 147.539 91.2831 144.733C91.4765 143.327 91.6924 141.794 91.9157 140.149C92.1389 138.504 92.3324 136.733 92.7938 134.873C93.2323 132.873 94.2709 131.056 95.7706 129.663C97.3944 128.172 99.5123 127.335 101.717 127.312C102.824 127.338 103.913 127.598 104.913 128.074C105.913 128.55 106.802 129.231 107.521 130.072C108.8 131.679 109.517 133.661 109.56 135.713C109.672 137.619 109.56 139.382 109.56 141.049C109.56 142.716 109.523 144.264 109.501 145.678C109.501 148.506 109.419 150.798 109.367 152.376C109.399 153.199 109.365 154.022 109.263 154.839Z" fill="#263238"/>
<path d="M102.081 120.814C101.836 123.419 101.002 126.344 99.1936 128.256C100.779 127.914 102.422 127.944 103.994 128.345C102.862 126.113 102.684 123.359 102.714 120.837" fill="#263238"/>
<path d="M109.285 137.745C109.144 137.745 109.062 136.495 108.109 134.769C107.552 133.78 106.818 132.902 105.944 132.179C104.892 131.295 103.631 130.695 102.282 130.437C100.926 130.214 99.5344 130.353 98.2486 130.839C97.1856 131.229 96.2076 131.82 95.3685 132.581C93.9248 133.89 93.4485 135.081 93.322 135.014C93.1955 134.947 93.5453 133.697 94.989 132.186C95.83 131.316 96.8441 130.631 97.9658 130.177C99.3644 129.603 100.894 129.428 102.386 129.671C103.869 129.952 105.248 130.632 106.375 131.636C107.294 132.435 108.039 133.416 108.563 134.516C109.479 136.421 109.352 137.753 109.285 137.745Z" fill="#263238"/>
<path d="M129.2 222.047C133.665 222.047 137.594 218.854 139.678 214.947C141.762 211.04 142.297 206.493 142.498 202.065C143.043 190.324 141.604 178.575 138.242 167.312L118.833 170.698L124.124 223.007L129.2 222.047Z" fill="#FFBE9D"/>
<path d="M50.6423 228.559L113.884 226.26L129.222 152.153L62.609 155.851L50.6423 228.559Z" fill="#263238"/>
<path d="M83.1936 154.579L84.1462 152.689L89.1918 152.324C89.1918 152.324 90.4719 149.012 97.6906 148.67C104.15 148.372 104.388 151.647 104.388 151.647H107.871V153.232L83.1936 154.579Z" fill="#455A64"/>
<path d="M118.453 204.678L123.246 203.286C124.148 203.022 125.1 202.978 126.022 203.16C127.146 203.38 128.181 203.926 128.998 204.73C130.584 206.293 133.144 208.875 133.508 209.649C134.044 210.773 134.044 212.723 133.508 213.437C132.972 214.152 134.684 217.85 134.468 219.078C134.356 220.126 134.029 221.139 133.508 222.055C133.077 222.568 133.508 224.325 132.437 225.649C131.82 226.419 131.141 227.136 130.405 227.793C130.405 227.793 117.233 228.41 115.953 227.793C114.673 227.175 112.418 224.816 112.418 224.816C112.418 224.816 111.242 222.665 113.058 222.457L105.564 219.592C105.128 219.433 104.772 219.112 104.569 218.695C104.366 218.279 104.333 217.799 104.477 217.359C104.531 217.196 104.617 217.046 104.731 216.918C104.845 216.79 104.984 216.687 105.14 216.615C105.14 216.615 101.776 215.551 100.994 215.208C99.4391 214.524 98.8511 210.907 102.074 211.368C103.77 211.614 106.07 212.113 106.07 212.113C106.07 212.113 104.842 210.118 106.561 208.927C107.603 208.183 112.291 209.084 112.291 209.084L118.453 204.685V204.678Z" fill="#FFBE9D"/>
<path d="M120.121 224.444C118.799 224.484 117.481 224.288 116.228 223.863C114.934 223.574 113.713 223.022 112.641 222.241C112.693 222.152 114.264 222.918 116.362 223.491C118.461 224.064 120.135 224.355 120.121 224.444Z" fill="#EB996E"/>
<path d="M117.255 219.763C115.193 219.435 113.152 218.98 111.146 218.401C109.106 217.951 107.098 217.372 105.133 216.667C109.233 217.449 113.282 218.483 117.255 219.763Z" fill="#EB996E"/>
<path d="M118.833 215.104C114.422 214.338 110.058 213.317 105.765 212.045C110.177 212.811 114.54 213.832 118.833 215.104Z" fill="#EB996E"/>
<path d="M123.693 209.106C123.15 209.345 122.584 209.527 122.003 209.649L120.143 210.126L119.041 210.401C118.628 210.504 118.202 210.545 117.776 210.52C117.359 210.49 116.946 210.423 116.541 210.319L115.432 210.066L113.572 209.619C112.987 209.511 112.415 209.339 111.867 209.106C112.46 209.122 113.049 209.205 113.624 209.352L115.514 209.716C116.268 209.895 117.03 210.034 117.799 210.133C118.555 210.118 119.306 210 120.031 209.783L121.914 209.381C122.495 209.225 123.092 209.133 123.693 209.106Z" fill="#EB996E"/>
<path d="M124.534 211.629C124.578 211.629 124.757 211.763 124.898 212.12C125.09 212.595 125.108 213.122 124.95 213.608C124.8 214.091 124.49 214.508 124.072 214.792C123.752 215 123.514 215.03 123.492 214.985C123.469 214.941 124.236 214.479 124.578 213.497C124.706 212.879 124.691 212.24 124.534 211.629Z" fill="#EB996E"/>
<path d="M124.266 216.719C124.355 216.675 124.653 217.203 124.608 217.925C124.563 218.647 124.221 219.145 124.132 219.086C124.042 219.026 124.191 218.535 124.221 217.902C124.251 217.27 124.154 216.756 124.266 216.719Z" fill="#EB996E"/>
<path d="M124.34 222.241C124.437 222.204 124.638 222.561 124.541 223.03C124.445 223.499 124.132 223.774 124.05 223.677C123.968 223.581 124.095 223.32 124.162 222.933C124.229 222.546 124.236 222.271 124.34 222.241Z" fill="#EB996E"/>
<path d="M125.776 208.801C125.354 208.847 124.927 208.827 124.511 208.741L123.157 208.563C122.626 208.453 122.081 208.425 121.542 208.481C121.028 208.601 120.542 208.821 120.113 209.128C119.696 209.404 119.369 209.716 118.989 209.917C118.637 210.177 118.214 210.322 117.776 210.334C117.776 210.267 118.23 210.14 118.841 209.686C119.583 208.952 120.492 208.409 121.49 208.101C121.792 208.072 122.096 208.072 122.398 208.101C122.703 208.101 122.949 208.191 123.209 208.235L124.556 208.488C124.976 208.534 125.386 208.639 125.776 208.801Z" fill="#EB996E"/>
<path d="M133.382 222.293C133.471 221.98 133.583 221.674 133.717 221.378C134.328 219.966 134.415 218.383 133.963 216.913C133.814 216.258 133.509 215.603 133.345 214.821C133.247 214.007 133.302 213.182 133.509 212.388C133.596 211.567 133.446 210.738 133.077 209.999C132.702 209.243 132.243 208.531 131.708 207.878C131.194 207.231 130.696 206.598 130.219 206.032C129.377 204.996 128.311 204.164 127.101 203.599C126.28 203.233 125.375 203.094 124.482 203.197C123.856 203.286 123.529 203.45 123.514 203.42C123.499 203.391 123.588 203.361 123.745 203.279C123.984 203.176 124.233 203.098 124.489 203.048C125.413 202.887 126.365 202.987 127.235 203.338C128.503 203.89 129.625 204.731 130.51 205.794C131.03 206.367 131.537 206.992 132.057 207.64C132.614 208.328 133.091 209.077 133.479 209.873C133.881 210.678 134.038 211.583 133.933 212.477C133.737 213.232 133.674 214.015 133.747 214.792C133.888 215.536 134.186 216.198 134.327 216.868C134.492 217.492 134.574 218.135 134.573 218.781C134.537 219.709 134.312 220.621 133.91 221.46C133.772 221.76 133.594 222.04 133.382 222.293Z" fill="#EB996E"/>
<path d="M89.1099 185.657L37.1874 193.902L39.4944 166.806L10.6196 161.225L7.10698 201.344L6.49674 210.543C6.29592 213.606 6.8834 216.671 8.20311 219.443C9.52282 222.215 11.5308 224.603 14.0354 226.379C16.3192 227.998 18.9495 229.062 21.7169 229.486C24.4843 229.91 27.3124 229.682 29.9761 228.82L41.139 225.181L95.5546 205.832" fill="#FFBE9D"/>
<path d="M120.53 180.053C120.566 179.838 120.554 179.617 120.496 179.407C120.437 179.198 120.333 179.003 120.191 178.838C120.049 178.672 119.873 178.54 119.674 178.45C119.475 178.361 119.26 178.316 119.042 178.319C116.117 178.319 108.213 178.319 105.423 179.145C101.97 180.12 89.1025 185.642 89.1025 185.642L94.5575 205.735L114.301 205.943C114.301 205.943 121.512 202.632 121.602 201.195C121.594 200.297 121.535 199.4 121.423 198.509L123.603 197.34C126.848 195.286 124.764 191.335 124.764 191.335C124.764 191.335 126.997 190.084 127.116 187.822C127.17 187.16 127.035 186.495 126.727 185.907C126.419 185.318 125.95 184.828 125.375 184.496C125.375 184.496 126.268 181.31 124.63 180.455C122.993 179.599 120.165 180.693 120.165 180.693C120.353 180.525 120.482 180.3 120.53 180.053Z" fill="#FFBE9D"/>
<path d="M121.669 180.38C121.478 180.484 121.272 180.557 121.058 180.596C120.664 180.708 120.076 180.834 119.354 180.961C117.866 181.221 115.886 181.437 113.661 181.705C111.765 181.876 109.881 182.164 108.02 182.568C106.599 182.895 105.787 183.312 105.787 183.312C105.949 183.168 106.133 183.051 106.331 182.962C106.856 182.702 107.404 182.49 107.968 182.33C109.825 181.847 111.72 181.519 113.631 181.348C115.864 181.109 117.881 180.938 119.324 180.752C120.768 180.566 121.646 180.328 121.669 180.38Z" fill="#EB996E"/>
<path d="M125.382 184.413C124.96 184.724 124.49 184.963 123.99 185.12C122.824 185.571 121.622 185.922 120.396 186.17C118.96 186.467 117.657 186.661 116.675 186.787C116.168 186.889 115.651 186.929 115.135 186.906C115.135 186.78 117.442 186.363 120.284 185.79C121.495 185.543 122.692 185.235 123.871 184.867C124.36 184.671 124.866 184.519 125.382 184.413Z" fill="#EB996E"/>
<path d="M124.787 191.409C122.069 192.662 119.118 193.332 116.125 193.374C116.125 193.255 118.089 193.009 120.471 192.466C122.852 191.923 124.787 191.297 124.787 191.409Z" fill="#EB996E"/>
<path d="M123.611 197.377C121.535 198.432 119.241 198.985 116.913 198.992C119.149 198.468 121.382 197.93 123.611 197.377Z" fill="#EB996E"/>
<path d="M113.311 193.843C113.311 193.887 113.11 194.014 112.708 194.051C112.179 194.096 111.652 193.951 111.22 193.642C110.785 193.334 110.472 192.884 110.334 192.369C110.238 191.975 110.29 191.729 110.334 191.729C110.379 191.729 110.543 192.689 111.436 193.322C112.01 193.644 112.653 193.822 113.311 193.843Z" fill="#EB996E"/>
<path d="M112.88 200.049C112.88 200.153 112.135 200.198 111.428 199.595C110.721 198.992 110.684 198.204 110.811 198.211C110.937 198.218 111.116 198.806 111.689 199.305C112.262 199.804 112.88 199.938 112.88 200.049Z" fill="#EB996E"/>
<path d="M110.647 187.375C110.691 187.479 110.148 187.651 109.642 187.264C109.136 186.877 109.151 186.311 109.263 186.326C109.374 186.341 109.501 186.691 109.873 186.959C110.245 187.226 110.595 187.271 110.647 187.375Z" fill="#EB996E"/>
<path d="M89.1099 185.657L89.2662 185.567L89.735 185.351L91.5657 184.54C93.1732 183.848 95.5025 182.844 98.457 181.63C99.9453 181.035 101.553 180.373 103.339 179.71C104.257 179.343 105.202 179.049 106.167 178.832C107.206 178.648 108.254 178.519 109.307 178.445C111.465 178.274 113.772 178.2 116.139 178.17H117.947H118.87C119.21 178.153 119.549 178.225 119.853 178.378C120.177 178.536 120.437 178.8 120.59 179.127C120.743 179.453 120.779 179.822 120.694 180.172C120.647 180.277 120.569 180.366 120.47 180.425L120.247 180.566L119.8 180.775C119.496 180.905 119.182 181.014 118.863 181.102C118.814 181.114 118.764 181.106 118.721 181.081C118.678 181.056 118.646 181.016 118.632 180.968C118.625 180.944 118.624 180.919 118.627 180.894C118.63 180.87 118.638 180.846 118.65 180.825C118.663 180.803 118.68 180.784 118.699 180.769C118.719 180.754 118.742 180.743 118.766 180.737C119.572 180.503 120.393 180.319 121.222 180.187C122.081 180.03 122.959 180 123.827 180.097C124.298 180.15 124.744 180.342 125.107 180.648C125.442 180.992 125.663 181.432 125.739 181.906C125.873 182.813 125.814 183.739 125.568 184.622L125.471 184.391C125.897 184.637 126.269 184.966 126.565 185.359C126.934 185.858 127.178 186.438 127.277 187.05C127.375 187.663 127.325 188.29 127.131 188.879C126.721 190.01 125.932 190.965 124.898 191.58L124.973 191.32C125.509 192.381 125.726 193.576 125.598 194.758C125.514 195.335 125.304 195.887 124.983 196.373C124.661 196.859 124.236 197.269 123.737 197.571L121.564 198.74L121.661 198.553C121.713 199.074 121.765 199.595 121.802 200.109C121.802 200.362 121.802 200.622 121.84 200.853C121.84 200.98 121.84 201.114 121.84 201.247C121.82 201.399 121.766 201.544 121.683 201.672C121.37 202.088 120.99 202.45 120.56 202.743C120.158 203.041 119.741 203.309 119.332 203.562C117.742 204.501 116.105 205.358 114.427 206.129H114.36L99.99 205.906L96.016 205.824L94.9741 205.787C94.8554 205.8 94.7356 205.8 94.6169 205.787C94.7357 205.776 94.8553 205.776 94.9741 205.787H96.016H99.99L114.36 205.869H114.293C115.957 205.096 117.579 204.237 119.153 203.294C119.555 203.048 119.964 202.781 120.351 202.49C120.745 202.224 121.092 201.895 121.378 201.515C121.434 201.438 121.473 201.349 121.49 201.255V200.89C121.49 200.637 121.49 200.384 121.49 200.146C121.453 199.64 121.4 199.127 121.341 198.613C121.336 198.577 121.343 198.54 121.36 198.508C121.377 198.476 121.405 198.45 121.438 198.434L123.611 197.259C124.064 196.984 124.45 196.613 124.742 196.172C125.034 195.731 125.225 195.23 125.3 194.706C125.41 193.602 125.204 192.489 124.705 191.499C124.683 191.454 124.68 191.403 124.695 191.356C124.711 191.309 124.743 191.269 124.787 191.245C125.746 190.681 126.481 189.803 126.87 188.76C127.044 188.229 127.087 187.664 126.998 187.112C126.909 186.561 126.689 186.039 126.357 185.59C126.097 185.245 125.771 184.957 125.397 184.741C125.359 184.72 125.328 184.686 125.311 184.646C125.293 184.606 125.29 184.561 125.3 184.518C125.528 183.692 125.583 182.828 125.464 181.98C125.418 181.583 125.233 181.216 124.941 180.943C124.65 180.67 124.27 180.51 123.871 180.492C123.043 180.399 122.205 180.429 121.386 180.581C120.571 180.703 119.766 180.88 118.974 181.11L118.878 180.745C119.177 180.667 119.471 180.567 119.756 180.447C119.897 180.388 120.046 180.321 120.173 180.254C120.299 180.187 120.433 180.053 120.478 180.068C120.505 179.801 120.464 179.532 120.359 179.286C120.23 179.042 120.03 178.842 119.786 178.713C119.535 178.586 119.255 178.529 118.974 178.55H116.251C113.869 178.55 111.585 178.639 109.434 178.795C108.394 178.864 107.358 178.986 106.331 179.16C105.38 179.372 104.447 179.656 103.54 180.008C101.761 180.656 100.131 181.303 98.6505 181.883L91.722 184.689L89.869 185.433L89.3852 185.627L89.1099 185.657Z" fill="#EB996E"/>
<path d="M37.3961 193.843C35.9865 194.784 34.6992 195.896 33.5635 197.154C32.5296 198.5 31.6695 199.97 31.0034 201.53C31.0396 201.015 31.1708 200.51 31.3904 200.042C32.3066 197.74 33.93 195.788 36.0267 194.468C36.443 194.181 36.9065 193.969 37.3961 193.843Z" fill="#EB996E"/>
<path d="M105.199 33.2823C104.683 26.7119 101.712 20.5767 96.8773 16.0977C92.0425 11.6187 85.6986 9.12426 79.1079 9.11084H77.746C63.1003 9.9369 55.6137 22.8338 56.8491 37.4572L59.3719 96.0626C59.3917 96.5411 59.5405 97.0053 59.8025 97.4062C60.0645 97.8071 60.43 98.1297 60.8603 98.3399L93.7388 113.767L92.7863 83.0094C92.7863 83.0094 106.874 80.8513 107.075 66.7711C107.134 59.9766 106.182 45.956 105.199 33.2823Z" fill="#FFBE9D"/>
<path d="M92.868 82.9573C86.3297 82.9512 79.931 81.0654 74.4343 77.5247C74.4343 77.5247 78.7507 87.6606 92.8011 86.455L92.868 82.9573Z" fill="#EB996E"/>
<path d="M100.228 42.0264C100.23 42.5499 100.029 43.0538 99.6666 43.4316C99.3041 43.8093 98.809 44.0313 98.2858 44.0506C98.0298 44.0719 97.7721 44.0414 97.5281 43.9609C97.2841 43.8804 97.0588 43.7515 96.8657 43.582C96.6727 43.4126 96.5157 43.2059 96.4042 42.9745C96.2927 42.743 96.229 42.4914 96.2169 42.2348C96.2108 41.7114 96.4099 41.2064 96.7716 40.8281C97.1333 40.4497 97.6287 40.228 98.1519 40.2106C98.4081 40.1903 98.6657 40.2216 98.9097 40.3024C99.1537 40.3832 99.379 40.512 99.5724 40.6812C99.7659 40.8504 99.9236 41.0565 100.036 41.2876C100.149 41.5186 100.214 41.7698 100.228 42.0264Z" fill="#263238"/>
<path d="M102.163 40.1661C101.91 40.4266 100.392 39.2954 98.2263 39.2954C96.0607 39.2954 94.5053 40.3819 94.2449 40.114C94.1258 39.995 94.3788 39.5261 95.0709 39.0201C96.0097 38.3748 97.1244 38.0344 98.2635 38.0452C99.39 38.0414 100.488 38.3987 101.397 39.0647C102.059 39.5708 102.282 40.0471 102.163 40.1661Z" fill="#263238"/>
<path d="M78.9444 42.6812C78.9505 43.2058 78.7503 43.7119 78.3871 44.0904C78.0238 44.469 77.5264 44.6898 77.002 44.7054C76.7462 44.7256 76.4889 44.6944 76.2454 44.6135C76.0018 44.5326 75.777 44.4037 75.5841 44.2344C75.3912 44.0651 75.2343 43.8589 75.1225 43.6279C75.0107 43.3969 74.9463 43.1458 74.9332 42.8896C74.929 42.3655 75.1297 41.8605 75.4926 41.4824C75.8554 41.1042 76.3517 40.8828 76.8755 40.8653C77.1313 40.8451 77.3886 40.8764 77.6321 40.9573C77.8757 41.0382 78.1005 41.1671 78.2934 41.3364C78.4863 41.5056 78.6433 41.7119 78.7551 41.9429C78.8669 42.1738 78.9313 42.4249 78.9444 42.6812Z" fill="#263238"/>
<path d="M80.8792 40.538C80.6336 40.7985 79.108 39.6747 76.9498 39.6747C74.7916 39.6747 73.2288 40.7538 72.9609 40.4859C72.8493 40.3668 73.1023 39.898 73.7944 39.3994C74.7308 38.7484 75.8467 38.4051 76.987 38.4171C78.1103 38.4189 79.2043 38.7758 80.1126 39.4366C80.7898 39.9352 81.0206 40.4115 80.8792 40.538Z" fill="#263238"/>
<path d="M88.7155 56.583C88.7155 56.4639 90.0476 56.2332 92.2281 55.9579C92.7788 55.8984 93.3071 55.7942 93.3964 55.4146C93.4461 54.8444 93.3188 54.2727 93.0318 53.7774L91.4095 49.5653C89.1769 43.6117 87.5173 38.6479 87.7629 38.5586C88.0085 38.4693 89.9955 43.2545 92.2876 49.2527L93.8429 53.4872C94.1895 54.1531 94.2896 54.9201 94.1257 55.6528C94.045 55.848 93.9205 56.022 93.7618 56.1614C93.6031 56.3008 93.4144 56.4017 93.2104 56.4565C92.9046 56.5397 92.5896 56.5847 92.2727 56.5905C90.0848 56.7021 88.7229 56.7095 88.7155 56.583Z" fill="#263238"/>
<path d="M82.3674 58.0713C82.7172 58.0713 82.7171 60.3932 84.7265 62.0676C86.7358 63.7421 89.2289 63.4816 89.2512 63.8091C89.2512 63.9579 88.6931 64.2705 87.6363 64.2928C86.2594 64.3106 84.9204 63.8414 83.8558 62.9681C82.8371 62.1302 82.1834 60.9296 82.0325 59.6193C81.9209 58.6369 82.1813 58.0564 82.3674 58.0713Z" fill="#263238"/>
<path d="M81.4746 32.0466C81.2587 32.6345 79.1006 32.3518 76.5629 32.6569C74.0252 32.962 71.9712 33.6466 71.6289 33.1183C71.48 32.8652 71.8372 32.3071 72.6707 31.7415C73.771 31.0345 75.0233 30.5984 76.3247 30.4689C77.6232 30.3138 78.94 30.472 80.1648 30.9303C81.095 31.3099 81.5639 31.7713 81.4746 32.0466Z" fill="#263238"/>
<path d="M101.382 33.9072C100.995 34.391 99.5064 33.9072 97.7129 33.8551C95.9194 33.8031 94.4087 34.1751 94.059 33.6616C93.9027 33.4161 94.1483 32.9175 94.8032 32.4561C95.6949 31.9026 96.7305 31.6257 97.7794 31.6601C98.8284 31.6945 99.8437 32.0388 100.697 32.6495C101.337 33.1556 101.546 33.6616 101.382 33.9072Z" fill="#263238"/>
<path d="M58.955 47.876C58.7169 47.7718 49.2805 44.996 49.5782 54.6259C49.8759 64.2558 59.4685 61.9711 59.476 61.6957C59.4834 61.4204 58.955 47.876 58.955 47.876Z" fill="#FFBE9D"/>
<path d="M57.2734 58.1384C57.2287 58.1384 57.1096 58.2575 56.8268 58.3989C56.4342 58.5813 55.9864 58.6053 55.5766 58.4659C54.5496 58.1161 53.6417 56.531 53.5449 54.797C53.498 53.9741 53.6326 53.1509 53.9393 52.3858C54.0208 52.0818 54.1753 51.8022 54.3892 51.5714C54.6032 51.3406 54.8703 51.1654 55.1673 51.0611C55.358 51.0054 55.562 51.0172 55.745 51.0945C55.9281 51.1718 56.0788 51.3098 56.1719 51.4853C56.3059 51.7532 56.2538 51.9467 56.2984 51.9616C56.3431 51.9765 56.5068 51.7979 56.4175 51.4035C56.3523 51.1664 56.2112 50.9573 56.0157 50.8081C55.746 50.6167 55.4118 50.5391 55.0854 50.5923C54.6923 50.6814 54.3285 50.8698 54.0289 51.1395C53.7292 51.4092 53.5037 51.7512 53.3737 52.1328C52.9895 52.9791 52.8183 53.9065 52.8751 54.8342C52.9942 56.7766 54.0435 58.5552 55.4426 58.9198C55.6979 58.9815 55.9636 58.9862 56.2209 58.9334C56.4782 58.8807 56.7206 58.7719 56.931 58.6147C57.2585 58.3989 57.3031 58.1533 57.2734 58.1384Z" fill="#EB996E"/>
<path d="M65.251 19.2689L105.378 20.1545C104.013 17.4263 101.986 15.0829 99.484 13.3377C94.267 9.29644 87.9065 7.00697 81.3107 6.79624C74.7692 6.67717 61.4407 14.6549 56.7002 19.1648C52.9048 22.7741 52.9345 25.8997 52.9345 25.8997C52.3318 31.1091 55.2415 37.018 56.4025 42.1306C56.9978 44.7651 58.1514 52.7354 58.1514 52.7354C60.384 52.7354 61.1802 50.9717 60.8453 48.7837L60.4361 40.2032C60.4361 40.2032 67.9524 34.8598 64.3877 25.0811C63.837 24.2997 62.6165 20.7276 65.251 19.2689Z" fill="#263238"/>
<path d="M73.6902 49.7068C73.658 49.7078 73.6258 49.7024 73.5957 49.691C73.5655 49.6795 73.5379 49.6623 73.5144 49.6401C73.4909 49.618 73.4719 49.5915 73.4587 49.5621C73.4455 49.5326 73.4381 49.5009 73.4372 49.4686C73.4212 49.4045 73.431 49.3367 73.4643 49.2797C73.4977 49.2227 73.5521 49.181 73.6158 49.1635C73.6827 49.1549 73.7503 49.1726 73.8045 49.2128C73.8586 49.2531 73.895 49.3128 73.906 49.3793C73.9173 49.4152 73.9204 49.453 73.9152 49.4902C73.9099 49.5274 73.8965 49.5629 73.8759 49.5943C73.8552 49.6256 73.8278 49.652 73.7957 49.6715C73.7636 49.6909 73.7276 49.703 73.6902 49.7068Z" fill="#EB996E"/>
<path d="M77.8282 48.7764C77.6943 48.7764 77.5678 48.6945 77.5305 48.5308C77.5114 48.4617 77.5192 48.3879 77.5523 48.3244C77.5855 48.2608 77.6415 48.2122 77.7091 48.1884C77.781 48.1843 77.8516 48.2085 77.9059 48.2558C77.9601 48.3031 77.9937 48.3697 77.9994 48.4415C78.0206 48.5086 78.0145 48.5813 77.9825 48.644C77.9504 48.7067 77.895 48.7542 77.8282 48.7764Z" fill="#EB996E"/>
<path d="M80.6112 48.7242C80.4772 48.7242 80.3507 48.5828 80.3209 48.3669C80.2912 48.1511 80.3805 47.9651 80.5144 47.9502C80.6484 47.9353 80.7674 48.0916 80.7972 48.3074C80.827 48.5232 80.7377 48.7242 80.6112 48.7242Z" fill="#EB996E"/>
<path d="M75.7142 52.3041C75.5877 52.3041 75.4761 52.2372 75.4761 52.1553C75.4761 52.0734 75.5877 51.999 75.7142 51.999C75.8407 51.999 75.9524 52.0734 75.9524 52.1553C75.9524 52.2372 75.8482 52.3041 75.7142 52.3041Z" fill="#EB996E"/>
<path d="M79.5099 51.4334C79.4388 51.4393 79.3684 51.4168 79.3139 51.3707C79.2595 51.3247 79.2256 51.2589 79.2197 51.1878C79.2138 51.1168 79.2363 51.0463 79.2824 50.9918C79.3284 50.9374 79.3942 50.9035 79.4652 50.8976C79.4985 50.8966 79.5316 50.9022 79.5627 50.914C79.5937 50.9258 79.6222 50.9436 79.6464 50.9664C79.6706 50.9892 79.69 51.0165 79.7037 51.0469C79.7173 51.0772 79.7248 51.1099 79.7257 51.1432C79.7343 51.2101 79.7167 51.2777 79.6764 51.3318C79.6361 51.386 79.5764 51.4224 79.5099 51.4334Z" fill="#EB996E"/>
<path d="M99.2385 49.1189C99.2056 49.1241 99.1721 49.1226 99.1398 49.1145C99.1076 49.1064 99.0773 49.0918 99.0509 49.0716C99.0244 49.0514 99.0024 49.0261 98.986 48.9971C98.9696 48.9681 98.9593 48.9361 98.9557 48.9031C98.9395 48.838 98.949 48.7692 98.9823 48.711C99.0156 48.6528 99.0701 48.6096 99.1343 48.5905C99.2013 48.5819 99.2689 48.5996 99.323 48.6398C99.3772 48.6801 99.4135 48.7398 99.4245 48.8063C99.4334 48.8391 99.4357 48.8733 99.4311 48.9069C99.4265 48.9405 99.4152 48.9729 99.3978 49.002C99.3804 49.0312 99.3574 49.0566 99.33 49.0767C99.3027 49.0967 99.2715 49.1111 99.2385 49.1189Z" fill="#EB996E"/>
<path d="M102.059 48.866C101.999 48.8857 101.934 48.8863 101.874 48.8677C101.814 48.8491 101.76 48.8122 101.722 48.7621C101.683 48.712 101.661 48.6512 101.659 48.5881C101.656 48.5249 101.674 48.4626 101.708 48.4096C101.743 48.3567 101.793 48.3157 101.851 48.2925C101.91 48.2692 101.975 48.2647 102.036 48.2797C102.098 48.2946 102.153 48.3283 102.194 48.376C102.236 48.4237 102.261 48.4831 102.267 48.546C102.281 48.6159 102.267 48.6883 102.228 48.748C102.189 48.8076 102.128 48.8499 102.059 48.866Z" fill="#EB996E"/>
<path d="M96.7527 49.186C96.6955 49.1999 96.6352 49.1916 96.584 49.1625C96.5328 49.1335 96.4947 49.0859 96.4774 49.0297C96.4645 48.9675 96.4769 48.9028 96.5118 48.8498C96.5467 48.7967 96.6012 48.7597 96.6634 48.7469C96.7256 48.7341 96.7903 48.7464 96.8433 48.7813C96.8964 48.8162 96.9334 48.8708 96.9462 48.9329C96.9527 48.9919 96.9361 49.0511 96.9001 49.0982C96.8641 49.1453 96.8113 49.1767 96.7527 49.186Z" fill="#EB996E"/>
<path d="M98.8367 52.0062C98.7882 52.0379 98.7311 52.054 98.6732 52.0523C98.6153 52.0505 98.5592 52.031 98.5128 51.9964C98.4663 51.9618 98.4316 51.9137 98.4133 51.8587C98.3951 51.8037 98.3941 51.7444 98.4107 51.6889C98.4272 51.6333 98.4604 51.5842 98.5058 51.5482C98.5512 51.5121 98.6066 51.4909 98.6644 51.4873C98.7223 51.4838 98.7798 51.4981 98.8293 51.5284C98.8787 51.5586 98.9177 51.6033 98.9409 51.6564C98.9728 51.7167 98.9797 51.7872 98.9603 51.8526C98.9408 51.918 98.8964 51.9732 98.8367 52.0062Z" fill="#EB996E"/>
<path d="M101.24 51.5297C101.184 51.5188 101.133 51.4864 101.1 51.4392C101.067 51.392 101.053 51.3338 101.062 51.2767C101.088 51.2279 101.13 51.1895 101.181 51.1677C101.232 51.1459 101.289 51.142 101.343 51.1567C101.396 51.1714 101.443 51.2037 101.476 51.2485C101.509 51.2932 101.525 51.3478 101.523 51.4032C101.501 51.4568 101.46 51.4999 101.407 51.5235C101.354 51.5471 101.295 51.5493 101.24 51.5297Z" fill="#EB996E"/>
<path d="M56.4545 19.7008C56.0074 17.9225 55.9786 16.0647 56.3704 14.2734C56.7622 12.482 57.564 10.8059 58.7127 9.37667C59.8615 7.94742 61.326 6.80393 62.9911 6.036C64.6562 5.26808 66.4767 4.89664 68.3096 4.95084C70.1849 5.02526 72.0305 5.55364 73.9059 5.35271C77.3813 4.97317 80.0604 2.18988 83.2828 0.835444C85.8264 -0.156101 88.6287 -0.268378 91.2435 0.516479C93.8584 1.30134 96.1355 2.93823 97.7127 5.16666C98.9332 6.98994 99.7295 9.24485 101.605 10.376C103.22 11.3658 105.259 11.2839 107.075 11.8644C110.751 12.9658 113.266 16.8729 113.073 20.7055C112.917 22.6247 112.238 24.4644 111.108 26.0235C109.978 27.5827 108.441 28.8014 106.665 29.5465C104.879 30.2596 102.956 30.5629 101.037 30.4341C99.1176 30.3053 97.2519 29.7477 95.5769 28.8023C92.548 27.113 89.8391 24.2404 86.3712 24.3371C82.7842 24.4413 79.6734 27.82 76.1311 27.1204C74.2855 26.7558 72.864 25.3343 71.5096 24.0246C70.1552 22.7148 68.6072 21.3827 66.7244 21.271C64.8416 21.1594 63.8667 23.7418 64.5439 25.4981L56.4545 19.7008Z" fill="#263238"/>
<path d="M104.619 15.0572C104.6 15.1057 104.577 15.1529 104.552 15.1986C104.483 15.3319 104.406 15.4611 104.321 15.5855C103.996 16.0706 103.608 16.5109 103.168 16.8953C102.468 17.5066 101.657 17.9766 100.779 18.2795C99.6079 18.6798 98.35 18.7544 97.1398 18.4954C95.6631 18.184 94.3205 17.4191 93.2998 16.3074C92.2058 15.1093 91.5509 13.4944 90.5314 12.0804C90.0324 11.3492 89.3666 10.7472 88.589 10.3241C87.7618 9.91478 86.8475 9.713 85.9248 9.73617C84.9684 9.76477 84.0324 10.0198 83.1936 10.4804C82.3397 10.9635 81.6423 11.6816 81.1843 12.5492C80.7006 13.4348 80.3508 14.4023 79.7703 15.2581C79.4948 15.7032 79.1179 16.0768 78.6703 16.3484C78.2228 16.62 77.7174 16.7819 77.1954 16.8209C76.2037 16.836 75.2298 16.5562 74.3972 16.0172C73.6136 15.5249 72.8981 14.9319 72.2688 14.2534C71.026 13.0032 69.8056 11.7529 68.2874 11.4181C67.5865 11.2821 66.8646 11.2961 66.1695 11.4589C65.4743 11.6218 64.8214 11.93 64.2538 12.3632C63.2852 13.0675 62.516 14.0112 62.0212 15.1018C61.6426 15.9267 61.3628 16.7935 61.1878 17.6842C61.0389 18.4284 60.972 18.994 60.9273 19.3884C60.9112 19.5911 60.8814 19.7925 60.838 19.9912C60.8304 19.9394 60.8304 19.8867 60.838 19.8349C60.838 19.7307 60.838 19.5819 60.838 19.3809C60.8691 18.8018 60.9362 18.2252 61.039 17.6544C61.1757 16.7461 61.4257 15.8586 61.7831 15.0125C62.2655 13.8775 63.0349 12.8875 64.0157 12.1399C64.6114 11.6729 65.3002 11.339 66.0357 11.1606C66.7713 10.9821 67.5365 10.9633 68.28 11.1055C69.9246 11.4553 71.1972 12.765 72.4326 14.0004C73.0479 14.651 73.743 15.2211 74.5014 15.6972C75.2722 16.1957 76.1734 16.4547 77.0912 16.4414C77.5536 16.4018 78.0003 16.2547 78.3957 16.0118C78.7911 15.7688 79.1242 15.4369 79.3684 15.0423C79.9117 14.2386 80.2615 13.2785 80.7601 12.3632C81.2521 11.4261 82.0041 10.6509 82.9257 10.1306C83.8203 9.64388 84.8174 9.37609 85.8355 9.34918C86.821 9.32893 87.7966 9.54857 88.6783 9.98919C89.5042 10.4424 90.2107 11.0852 90.7398 11.8646C91.7891 13.353 92.4142 14.9306 93.4561 16.0916C94.4267 17.1631 95.7061 17.9068 97.1175 18.22C98.2808 18.4883 99.4952 18.4343 100.63 18.0637C101.491 17.7877 102.291 17.3508 102.989 16.7763C103.606 16.2775 104.154 15.6995 104.619 15.0572Z" fill="#455A64"/>
<path d="M111.89 15.2358C111.987 15.4727 112.042 15.7244 112.054 15.98C112.112 16.7032 112.044 17.4309 111.853 18.1308C111.567 19.1701 111.059 20.135 110.364 20.9587C109.497 21.9607 108.413 22.7521 107.194 23.2732C104.977 24.1758 102.554 24.4488 100.191 24.062C99.4845 23.9623 98.7838 23.8232 98.0926 23.6453C97.833 23.5995 97.582 23.5142 97.3484 23.3922C97.3484 23.3327 98.4424 23.6006 100.228 23.7866C102.535 24.0863 104.881 23.7864 107.038 22.9159C108.205 22.4192 109.249 21.6723 110.096 20.728C110.771 19.9468 111.278 19.0348 111.585 18.0489C111.842 17.1347 111.945 16.184 111.89 15.2358Z" fill="#455A64"/>
<path d="M43.4014 170.259C43.5547 171.78 44.1381 173.225 45.0833 174.427C45.9465 175.55 47.6954 176.659 49.1019 176.562C50.1616 176.616 51.2173 176.395 52.1656 175.918C53.1139 175.442 53.9225 174.728 54.5122 173.846C56.2313 171.122 56.648 165.444 55.2564 162.088C54.3113 159.781 52.1829 157.623 49.6898 157.571C46.4154 157.496 44.3614 159.863 43.6618 162.259" fill="#E0E0E0"/>
<path d="M43.6691 162.259C43.7782 161.692 43.9847 161.148 44.2793 160.652C44.6007 160.052 45.0151 159.507 45.5072 159.037C46.1592 158.406 46.9529 157.942 47.8217 157.682C48.3264 157.528 48.8496 157.443 49.3771 157.429C49.954 157.398 50.5319 157.474 51.0813 157.653C52.2825 158.075 53.3384 158.832 54.125 159.833C55.0054 160.915 55.6174 162.19 55.9111 163.554C56.2263 165.002 56.339 166.488 56.246 167.967C56.0897 170.296 55.6358 172.618 54.3409 174.389C53.7039 175.225 52.8491 175.869 51.8701 176.25C50.9845 176.605 50.0326 176.765 49.0794 176.719C48.3793 176.724 47.6888 176.555 47.0701 176.228C46.528 175.945 46.0273 175.589 45.5817 175.171C44.8764 174.475 44.3172 173.645 43.937 172.73C43.689 172.151 43.514 171.544 43.416 170.922C43.3908 170.759 43.3759 170.595 43.3714 170.43C43.3586 170.374 43.3586 170.316 43.3714 170.259C43.5152 171.087 43.7653 171.892 44.1156 172.656C44.5158 173.528 45.0762 174.319 45.7677 174.985C46.217 175.378 46.7177 175.709 47.2561 175.967C47.8309 176.264 48.4698 176.415 49.1166 176.406C50.0594 176.453 50.9999 176.275 51.8604 175.887C52.7209 175.499 53.4767 174.912 54.0655 174.174C55.2636 172.514 55.7251 170.229 55.8739 167.952C56.0302 164.975 55.539 162.043 53.8646 160.064C53.1227 159.112 52.1306 158.385 50.9994 157.965C50.4838 157.794 49.9422 157.716 49.3994 157.734C48.8958 157.739 48.3952 157.812 47.911 157.95C47.0776 158.186 46.3124 158.618 45.6784 159.208C45.1829 159.648 44.7564 160.159 44.4133 160.726C44.1362 161.222 43.8877 161.734 43.6691 162.259Z" fill="#263238"/>
<path d="M41.6599 170.408C41.8145 171.928 42.3977 173.374 43.3418 174.575C44.2051 175.699 45.9539 176.808 47.3605 176.711C48.4202 176.765 49.4759 176.543 50.4242 176.067C51.3725 175.591 52.181 174.877 52.7707 173.995C54.4824 171.264 54.9066 165.593 53.5149 162.237C52.5698 159.922 50.4489 157.772 47.9558 157.719C46.5709 157.708 45.2225 158.163 44.1286 159.013C43.0348 159.862 42.2593 161.056 41.9278 162.4" fill="#E0E0E0"/>
<path d="M41.9427 162.4C42.0528 161.835 42.2592 161.294 42.553 160.8C42.8718 160.198 43.2866 159.653 43.7809 159.185C44.8208 158.179 46.2038 157.604 47.6507 157.577C48.2277 157.546 48.8055 157.622 49.3549 157.801C50.5573 158.221 51.6137 158.978 52.3987 159.981C53.279 161.063 53.891 162.338 54.1848 163.702C54.5011 165.15 54.6113 166.636 54.5122 168.115C54.3634 170.445 53.9094 172.759 52.6145 174.538C51.9776 175.373 51.1227 176.017 50.1438 176.398C49.2582 176.754 48.3062 176.914 47.353 176.867C46.6523 176.87 45.9618 176.699 45.3437 176.368C44.7992 176.093 44.2978 175.739 43.8553 175.319C43.1483 174.622 42.5889 173.789 42.2106 172.871C41.9585 172.296 41.7833 171.69 41.6897 171.07C41.6645 170.907 41.6496 170.743 41.6451 170.579C41.6323 170.522 41.6323 170.464 41.6451 170.407C41.7896 171.232 42.0397 172.035 42.3893 172.796C42.7848 173.674 43.3457 174.467 44.0414 175.133C44.4906 175.527 44.9913 175.857 45.5298 176.115C46.1058 176.409 46.7439 176.559 47.3902 176.554C48.3331 176.601 49.2735 176.423 50.134 176.035C50.9945 175.647 51.7503 175.06 52.3392 174.322C53.5373 172.655 53.9987 170.378 54.1401 168.1C54.3038 165.124 53.8126 162.191 52.1308 160.212C51.3954 159.257 50.4047 158.529 49.2731 158.113C48.7575 157.943 48.2158 157.865 47.673 157.883C47.1696 157.889 46.6691 157.961 46.1847 158.098C45.3516 158.335 44.5865 158.766 43.9521 159.356C43.4613 159.799 43.0398 160.313 42.7018 160.882C42.4227 161.374 42.1693 161.881 41.9427 162.4Z" fill="#263238"/>
<path d="M44.8154 161.566C43.9898 161.463 43.153 161.631 42.4318 162.046C41.7107 162.461 41.1445 163.1 40.8191 163.866C40.2048 165.428 40.2048 167.164 40.8191 168.725C41.078 169.533 41.5012 170.278 42.0619 170.913C42.6378 171.549 43.4384 171.936 44.2945 171.993C44.9188 171.962 45.5265 171.781 46.0656 171.465C46.6048 171.149 47.0593 170.707 47.3903 170.177C47.9662 169.357 48.3581 168.423 48.5392 167.437C48.7203 166.452 48.6864 165.44 48.4396 164.469C48.0973 163.174 47.1522 161.857 45.8201 161.819" fill="#E0E0E0"/>
<path d="M45.7903 161.842C45.7903 161.842 45.887 161.842 46.0805 161.842C46.3674 161.875 46.644 161.969 46.8917 162.117C47.3327 162.408 47.7108 162.785 48.0036 163.224C48.2963 163.664 48.4977 164.158 48.5959 164.677C48.9515 166.205 48.7891 167.807 48.1345 169.232C47.7572 170.081 47.1863 170.831 46.4675 171.42C46.078 171.755 45.6143 171.992 45.1148 172.113C44.6153 172.233 44.0943 172.233 43.5949 172.112C42.6194 171.799 41.798 171.129 41.2953 170.237C40.8388 169.436 40.517 168.566 40.3428 167.662C40.1567 166.906 40.1267 166.12 40.2546 165.352C40.3826 164.585 40.6658 163.851 41.087 163.196C41.3892 162.763 41.7743 162.394 42.2201 162.11C42.6659 161.827 43.1636 161.634 43.6842 161.544C43.9655 161.502 44.2513 161.502 44.5326 161.544C44.7186 161.582 44.8154 161.611 44.8154 161.626C44.4445 161.613 44.0732 161.636 43.7065 161.693C42.7261 161.922 41.8694 162.515 41.3102 163.353C40.9263 163.986 40.6738 164.689 40.5677 165.422C40.4615 166.155 40.504 166.901 40.6925 167.617C40.8692 168.478 41.1833 169.304 41.6228 170.065C42.0766 170.872 42.818 171.478 43.6991 171.762C44.1389 171.87 44.5982 171.871 45.0384 171.765C45.4786 171.658 45.887 171.448 46.2294 171.152C46.9068 170.604 47.447 169.906 47.807 169.113C48.4495 167.76 48.6324 166.233 48.328 164.767C48.1676 163.776 47.6353 162.885 46.8396 162.274C46.5189 162.067 46.1633 161.921 45.7903 161.842Z" fill="#263238"/>
<path d="M48.5661 173.801C48.514 173.801 48.4321 173.563 48.1717 173.266C47.8339 172.882 47.3956 172.601 46.9065 172.454C46.3967 172.313 45.8724 172.23 45.3437 172.209C44.927 172.209 44.6665 172.142 44.6591 172.09C44.6516 172.038 44.9121 171.978 45.3363 171.933C45.9013 171.873 46.4726 171.924 47.0182 172.082C47.5867 172.246 48.0761 172.611 48.3949 173.109C48.6331 173.496 48.6108 173.794 48.5661 173.801Z" fill="#263238"/>
<path d="M49.1542 160.554C49.1542 160.554 49.0426 160.815 48.6929 161.09C48.2326 161.442 47.6937 161.677 47.1226 161.775C46.5554 161.88 45.9715 161.849 45.4184 161.686C44.9942 161.544 44.7709 161.381 44.7933 161.336C45.5319 161.45 46.2822 161.47 47.0259 161.395C47.7673 161.204 48.4821 160.921 49.1542 160.554Z" fill="#263238"/>
</svg>
