<svg width="191" height="341" viewBox="0 0 191 341" fill="none" xmlns="http://www.w3.org/2000/svg">
<rect x="0.734863" width="190" height="200" rx="15" fill="#F8F8F8"/>
<path d="M67.0829 145.77L66.2909 150H64.5809L65.8229 145.77H67.0829ZM84.6745 150V148.614H86.6185V150H84.6745ZM77.8885 150C76.6885 150 75.6865 149.862 74.8825 149.586C74.0785 149.298 73.4725 148.866 73.0645 148.29C72.6685 147.702 72.4705 146.964 72.4705 146.076C72.4705 145.788 72.4885 145.482 72.5245 145.158C72.5725 144.822 72.6265 144.498 72.6865 144.186C72.7465 143.862 72.8005 143.586 72.8485 143.358C72.8965 143.118 72.9265 142.956 72.9385 142.872L74.4325 143.16C74.3965 143.34 74.3425 143.598 74.2705 143.934C74.2105 144.27 74.1505 144.624 74.0905 144.996C74.0425 145.368 74.0185 145.728 74.0185 146.076C74.0185 146.52 74.0845 146.904 74.2165 147.228C74.3605 147.552 74.5825 147.816 74.8825 148.02C75.1945 148.224 75.5965 148.374 76.0885 148.47C76.5925 148.566 77.1985 148.614 77.9065 148.614H83.8825L83.1445 149.226V137.112H84.6745V150H77.8885ZM86.6185 150V148.614C86.6905 148.614 86.7505 148.632 86.7985 148.668C86.8465 148.692 86.8825 148.734 86.9065 148.794C86.9305 148.854 86.9485 148.926 86.9605 149.01C86.9725 149.094 86.9785 149.19 86.9785 149.298C86.9785 149.406 86.9725 149.508 86.9605 149.604C86.9485 149.688 86.9305 149.76 86.9065 149.82C86.8825 149.88 86.8465 149.928 86.7985 149.964C86.7505 149.988 86.6905 150 86.6185 150ZM77.7085 143.7C77.5165 143.46 77.3665 143.226 77.2585 142.998C77.1505 142.758 77.0965 142.512 77.0965 142.26C77.0965 141.9 77.1865 141.582 77.3665 141.306C77.5465 141.018 77.7865 140.796 78.0865 140.64C78.3865 140.472 78.7105 140.388 79.0585 140.388C79.2505 140.388 79.4425 140.418 79.6345 140.478C79.8385 140.526 80.0125 140.598 80.1565 140.694L79.6705 141.558C79.5745 141.498 79.4785 141.462 79.3825 141.45C79.2985 141.426 79.2085 141.414 79.1125 141.414C78.8365 141.414 78.6145 141.492 78.4465 141.648C78.2905 141.804 78.2125 142.008 78.2125 142.26C78.2125 142.404 78.2425 142.548 78.3025 142.692C78.3745 142.836 78.4765 142.992 78.6085 143.16L77.7085 143.7ZM76.7545 143.718V142.71H80.4085V143.718H76.7545ZM86.6216 150V148.614H89.4476L88.6916 149.226V141H90.2396V150H86.6216ZM86.6216 150C86.5496 150 86.4896 149.988 86.4416 149.964C86.3936 149.928 86.3576 149.88 86.3336 149.82C86.3096 149.76 86.2916 149.688 86.2796 149.604C86.2676 149.508 86.2616 149.406 86.2616 149.298C86.2616 149.154 86.2736 149.034 86.2976 148.938C86.3096 148.842 86.3456 148.764 86.4056 148.704C86.4536 148.644 86.5256 148.614 86.6216 148.614V150ZM87.4316 139.38V137.706H88.9616V139.38H87.4316ZM90.0056 139.38V137.706H91.5356V139.38H90.0056ZM92.4041 150V148.614H99.1001L97.8761 149.694V145.896C97.8761 145.008 97.7741 144.312 97.5701 143.808C97.3781 143.292 97.0541 142.926 96.5981 142.71C96.1421 142.494 95.5301 142.386 94.7621 142.386H93.3041V141H94.7621C95.7461 141 96.5861 141.156 97.2821 141.468C97.9781 141.768 98.5061 142.278 98.8661 142.998C99.2381 143.706 99.4241 144.672 99.4241 145.896V150H92.4041ZM108.988 150V148.614H110.932V150H108.988ZM104.65 154.05C104.218 154.05 103.762 154.014 103.282 153.942C102.814 153.882 102.298 153.792 101.734 153.672L101.968 152.43C102.604 152.514 103.132 152.574 103.552 152.61C103.984 152.646 104.35 152.664 104.65 152.664C105.622 152.664 106.33 152.478 106.774 152.106C107.218 151.734 107.44 151.194 107.44 150.486V141.918L108.142 142.386H105.208C104.548 142.386 104.032 142.47 103.66 142.638C103.3 142.794 103.048 143.094 102.904 143.538C102.76 143.982 102.688 144.636 102.688 145.5C102.688 146.364 102.754 147.018 102.886 147.462C103.03 147.906 103.288 148.212 103.66 148.38C104.032 148.536 104.548 148.614 105.208 148.614H107.44V150H105.208C104.176 150 103.36 149.844 102.76 149.532C102.172 149.208 101.752 148.716 101.5 148.056C101.26 147.384 101.14 146.532 101.14 145.5C101.14 144.48 101.26 143.634 101.5 142.962C101.752 142.29 102.172 141.798 102.76 141.486C103.36 141.162 104.176 141 105.208 141H108.988V150.468C108.988 151.224 108.814 151.872 108.466 152.412C108.118 152.952 107.62 153.36 106.972 153.636C106.324 153.912 105.55 154.05 104.65 154.05ZM110.932 150V148.614C111.004 148.614 111.064 148.632 111.112 148.668C111.16 148.692 111.196 148.734 111.22 148.794C111.244 148.854 111.262 148.926 111.274 149.01C111.286 149.094 111.292 149.19 111.292 149.298C111.292 149.406 111.286 149.508 111.274 149.604C111.262 149.688 111.244 149.76 111.22 149.82C111.196 149.88 111.16 149.928 111.112 149.964C111.064 149.988 111.004 150 110.932 150ZM110.932 150V148.614H113.542C114.226 148.614 114.886 148.5 115.522 148.272C116.158 148.044 116.74 147.738 117.268 147.354C117.808 146.97 118.276 146.55 118.672 146.094C119.068 145.626 119.374 145.152 119.59 144.672C119.806 144.18 119.914 143.724 119.914 143.304V142.206L120.724 143.448C120.04 143.1 119.362 142.836 118.69 142.656C118.03 142.476 117.382 142.386 116.746 142.386C116.122 142.386 115.474 142.476 114.802 142.656C114.13 142.836 113.458 143.1 112.786 143.448L113.596 142.206V143.304C113.596 143.724 113.704 144.18 113.92 144.672C114.148 145.152 114.454 145.626 114.838 146.094C115.234 146.55 115.696 146.97 116.224 147.354C116.752 147.738 117.334 148.044 117.97 148.272C118.606 148.5 119.272 148.614 119.968 148.614H122.452V150H120.058C119.122 150 118.246 149.85 117.43 149.55C116.614 149.25 115.876 148.854 115.216 148.362C114.556 147.858 113.986 147.312 113.506 146.724C113.038 146.124 112.678 145.53 112.426 144.942C112.174 144.342 112.048 143.796 112.048 143.304V142.224C112.564 141.948 113.092 141.72 113.632 141.54C114.172 141.36 114.706 141.228 115.234 141.144C115.762 141.048 116.266 141 116.746 141C117.238 141 117.748 141.048 118.276 141.144C118.804 141.228 119.332 141.36 119.86 141.54C120.4 141.72 120.928 141.948 121.444 142.224V143.304C121.444 143.796 121.318 144.342 121.066 144.942C120.814 145.53 120.448 146.124 119.968 146.724C119.5 147.312 118.936 147.858 118.276 148.362C117.616 148.854 116.878 149.25 116.062 149.55C115.246 149.85 114.37 150 113.434 150H110.932ZM110.932 150C110.86 150 110.8 149.988 110.752 149.964C110.704 149.928 110.668 149.88 110.644 149.82C110.62 149.76 110.602 149.688 110.59 149.604C110.578 149.508 110.572 149.406 110.572 149.298C110.572 149.154 110.584 149.034 110.608 148.938C110.62 148.842 110.656 148.764 110.716 148.704C110.764 148.644 110.836 148.614 110.932 148.614V150ZM122.452 150V148.614C122.524 148.614 122.584 148.632 122.632 148.668C122.68 148.692 122.716 148.734 122.74 148.794C122.764 148.854 122.782 148.926 122.794 149.01C122.806 149.094 122.812 149.19 122.812 149.298C122.812 149.406 122.806 149.508 122.794 149.604C122.782 149.688 122.764 149.76 122.74 149.82C122.716 149.88 122.68 149.928 122.632 149.964C122.584 149.988 122.524 150 122.452 150ZM122.446 150V148.614H125.128L124.39 149.226V141H125.92V150H122.446ZM122.446 150C122.374 150 122.314 149.988 122.266 149.964C122.218 149.928 122.182 149.88 122.158 149.82C122.134 149.76 122.116 149.688 122.104 149.604C122.092 149.508 122.086 149.406 122.086 149.298C122.086 149.154 122.098 149.034 122.122 148.938C122.134 148.842 122.17 148.764 122.23 148.704C122.278 148.644 122.35 148.614 122.446 148.614V150ZM124.39 153.33V151.656H125.938V153.33H124.39ZM145.939 150V141H147.469V149.226L146.731 148.614H149.467V150H145.939ZM142.051 144.168V142.764H145.939V144.168H142.051ZM137.155 154.464C136.195 154.464 135.325 154.284 134.545 153.924C133.777 153.576 133.165 153.084 132.709 152.448C132.265 151.824 132.043 151.11 132.043 150.306C132.043 150.054 132.061 149.724 132.097 149.316C132.145 148.896 132.199 148.434 132.259 147.93C132.331 147.426 132.409 146.916 132.493 146.4C132.577 145.872 132.655 145.374 132.727 144.906L134.239 145.14C134.107 145.956 133.993 146.718 133.897 147.426C133.801 148.122 133.723 148.716 133.663 149.208C133.615 149.7 133.591 150.066 133.591 150.306C133.591 150.846 133.735 151.32 134.023 151.728C134.323 152.148 134.743 152.478 135.283 152.718C135.823 152.958 136.447 153.078 137.155 153.078C137.863 153.078 138.469 152.964 138.973 152.736C139.477 152.52 139.861 152.208 140.125 151.8C140.389 151.404 140.521 150.942 140.521 150.414V141H142.051V150.414C142.051 151.254 141.829 151.974 141.385 152.574C140.953 153.186 140.365 153.654 139.621 153.978C138.889 154.302 138.067 154.464 137.155 154.464ZM136.309 140.91V139.218H137.857V140.91H136.309ZM149.467 150V148.614C149.539 148.614 149.593 148.632 149.629 148.668C149.677 148.692 149.713 148.734 149.737 148.794C149.773 148.854 149.797 148.926 149.809 149.01C149.821 149.094 149.827 149.19 149.827 149.298C149.827 149.406 149.821 149.508 149.809 149.604C149.797 149.688 149.773 149.76 149.737 149.82C149.713 149.88 149.677 149.928 149.629 149.964C149.593 149.988 149.539 150 149.467 150ZM144.661 153.33V151.656H146.191V153.33H144.661ZM147.235 153.33V151.656H148.765V153.33H147.235ZM153.171 150V148.614H155.097V150H153.171ZM149.463 150C149.391 150 149.331 149.988 149.283 149.964C149.235 149.928 149.199 149.88 149.175 149.82C149.151 149.76 149.133 149.688 149.121 149.604C149.109 149.508 149.103 149.406 149.103 149.298C149.103 149.154 149.115 149.034 149.139 148.938C149.151 148.842 149.187 148.764 149.247 148.704C149.295 148.644 149.367 148.614 149.463 148.614V150ZM151.623 150V137.112H153.171V150H151.623ZM149.463 150V148.614H151.623V150H149.463ZM155.097 150V148.614C155.169 148.614 155.229 148.632 155.277 148.668C155.325 148.692 155.361 148.734 155.385 148.794C155.409 148.854 155.427 148.926 155.439 149.01C155.451 149.094 155.457 149.19 155.457 149.298C155.457 149.406 155.451 149.508 155.439 149.604C155.427 149.688 155.409 149.76 155.385 149.82C155.361 149.88 155.325 149.928 155.277 149.964C155.229 149.988 155.169 150 155.097 150ZM155.106 150V148.614H167.562L166.572 149.442V146.382C166.572 145.266 166.404 144.36 166.068 143.664C165.732 142.956 165.222 142.434 164.538 142.098C163.854 141.75 162.99 141.576 161.946 141.576C161.502 141.576 161.028 141.6 160.524 141.648C160.032 141.696 159.546 141.756 159.066 141.828C158.586 141.888 158.136 141.954 157.716 142.026L157.518 140.874C157.806 140.802 158.196 140.712 158.688 140.604C159.192 140.484 159.738 140.382 160.326 140.298C160.914 140.214 161.496 140.172 162.072 140.172C162.828 140.172 163.566 140.274 164.286 140.478C165.006 140.682 165.654 141.018 166.23 141.486C166.806 141.954 167.262 142.59 167.598 143.394C167.934 144.198 168.102 145.194 168.102 146.382V150H155.106ZM157.212 148.614V147.246C157.212 146.67 157.356 146.136 157.644 145.644C157.932 145.152 158.328 144.756 158.832 144.456C159.336 144.156 159.9 144.006 160.524 144.006C161.16 144.006 161.73 144.156 162.234 144.456C162.738 144.756 163.128 145.152 163.404 145.644C163.692 146.136 163.836 146.67 163.836 147.246V148.614H162.36V147.246C162.36 146.886 162.276 146.562 162.108 146.274C161.952 145.986 161.736 145.758 161.46 145.59C161.184 145.422 160.872 145.338 160.524 145.338C160.188 145.338 159.882 145.422 159.606 145.59C159.33 145.758 159.108 145.986 158.94 146.274C158.772 146.562 158.688 146.886 158.688 147.246V148.614H157.212ZM155.106 150C155.034 150 154.974 149.988 154.926 149.964C154.878 149.928 154.842 149.88 154.818 149.82C154.794 149.76 154.776 149.688 154.764 149.604C154.752 149.508 154.746 149.406 154.746 149.298C154.746 149.154 154.758 149.034 154.782 148.938C154.794 148.842 154.83 148.764 154.89 148.704C154.938 148.644 155.01 148.614 155.106 148.614V150ZM171.16 150V137.112H172.69V150H171.16ZM171.052 135.888C170.86 135.648 170.71 135.414 170.602 135.186C170.494 134.946 170.44 134.7 170.44 134.448C170.44 134.088 170.53 133.77 170.71 133.494C170.89 133.206 171.13 132.984 171.43 132.828C171.73 132.66 172.054 132.576 172.402 132.576C172.594 132.576 172.786 132.606 172.978 132.666C173.182 132.714 173.356 132.786 173.5 132.882L173.014 133.746C172.918 133.686 172.822 133.65 172.726 133.638C172.642 133.614 172.552 133.602 172.456 133.602C172.18 133.602 171.958 133.68 171.79 133.836C171.634 133.992 171.556 134.196 171.556 134.448C171.556 134.592 171.586 134.736 171.646 134.88C171.718 135.024 171.82 135.18 171.952 135.348L171.052 135.888ZM170.098 135.906V134.898H173.752V135.906H170.098Z" fill="#239EC2"/>
<path d="M23.3349 152V150.46H25.4749V152H23.3349ZM15.5349 152V150.46H22.9749L21.6149 151.66V147.44C21.6149 146.453 21.5015 145.68 21.2749 145.12C21.0615 144.547 20.7015 144.14 20.1949 143.9C19.6882 143.66 19.0082 143.54 18.1549 143.54H16.5349V142H18.1549C19.2482 142 20.1815 142.173 20.9549 142.52C21.7282 142.853 22.3149 143.42 22.7149 144.22C23.1282 145.007 23.3349 146.08 23.3349 147.44V152H15.5349ZM25.4749 152V150.46C25.5549 150.46 25.6215 150.48 25.6749 150.52C25.7282 150.547 25.7682 150.593 25.7949 150.66C25.8215 150.727 25.8415 150.807 25.8549 150.9C25.8682 150.993 25.8749 151.1 25.8749 151.22C25.8749 151.34 25.8682 151.453 25.8549 151.56C25.8415 151.653 25.8215 151.733 25.7949 151.8C25.7682 151.867 25.7282 151.92 25.6749 151.96C25.6215 151.987 25.5549 152 25.4749 152ZM36.8771 152V150.46H39.0371V152H36.8771ZM25.4771 152C25.3971 152 25.3304 151.987 25.2771 151.96C25.2237 151.92 25.1837 151.867 25.1571 151.8C25.1304 151.733 25.1104 151.653 25.0971 151.56C25.0837 151.453 25.0771 151.34 25.0771 151.22C25.0771 151.06 25.0904 150.927 25.1171 150.82C25.1304 150.713 25.1704 150.627 25.2371 150.56C25.2904 150.493 25.3704 150.46 25.4771 150.46V152ZM25.4771 152V150.46H36.3371L35.1771 151.3V147.1C35.1771 146.193 35.0704 145.48 34.8571 144.96C34.6571 144.44 34.3037 144.073 33.7971 143.86C33.3037 143.647 32.6304 143.54 31.7771 143.54C31.2171 143.54 30.6637 143.58 30.1171 143.66C29.5704 143.727 29.1437 143.827 28.8371 143.96L29.8771 142.92C29.7971 143.24 29.7171 143.647 29.6371 144.14C29.5571 144.62 29.4904 145.14 29.4371 145.7C29.3837 146.247 29.3571 146.793 29.3571 147.34C29.3571 147.9 29.3837 148.453 29.4371 149C29.4904 149.547 29.5504 150.02 29.6171 150.42C29.6837 150.807 29.7371 151.08 29.7771 151.24L28.1571 151.7C28.1037 151.527 28.0371 151.227 27.9571 150.8C27.8771 150.373 27.8037 149.86 27.7371 149.26C27.6837 148.66 27.6571 148.02 27.6571 147.34C27.6571 146.687 27.6904 146.053 27.7571 145.44C27.8237 144.813 27.8971 144.247 27.9771 143.74C28.0704 143.233 28.1571 142.827 28.2371 142.52C28.5304 142.4 28.9971 142.28 29.6371 142.16C30.2904 142.04 31.0037 141.98 31.7771 141.98C32.9104 141.98 33.8571 142.147 34.6171 142.48C35.3771 142.813 35.9437 143.353 36.3171 144.1C36.6904 144.847 36.8771 145.847 36.8771 147.1V152H25.4771ZM39.0371 152V150.46C39.1171 150.46 39.1837 150.48 39.2371 150.52C39.2904 150.547 39.3304 150.593 39.3571 150.66C39.3837 150.727 39.4037 150.807 39.4171 150.9C39.4304 150.993 39.4371 151.1 39.4371 151.22C39.4371 151.34 39.4304 151.453 39.4171 151.56C39.4037 151.653 39.3837 151.733 39.3571 151.8C39.3304 151.867 39.2904 151.92 39.2371 151.96C39.1837 151.987 39.1171 152 39.0371 152ZM39.0317 152V150.46H47.8117L47.2917 150.92V146.14C47.2917 145.273 47.0184 144.627 46.4717 144.2C45.9384 143.773 45.1251 143.56 44.0317 143.56C43.6851 143.56 43.1917 143.593 42.5517 143.66C41.9251 143.713 41.2584 143.787 40.5517 143.88L40.3517 142.5C40.8984 142.367 41.4917 142.253 42.1317 142.16C42.7851 142.053 43.4184 142 44.0317 142C45.0451 142 45.9251 142.16 46.6717 142.48C47.4184 142.8 47.9917 143.267 48.3917 143.88C48.7917 144.493 48.9917 145.247 48.9917 146.14V152H39.0317ZM39.0317 152C38.9517 152 38.8851 151.987 38.8317 151.96C38.7784 151.92 38.7384 151.867 38.7117 151.8C38.6851 151.733 38.6651 151.653 38.6517 151.56C38.6384 151.453 38.6317 151.34 38.6317 151.22C38.6317 151.06 38.6451 150.927 38.6717 150.82C38.6851 150.713 38.7251 150.627 38.7917 150.56C38.8451 150.493 38.9251 150.46 39.0317 150.46V152ZM52.0841 152V137.68H53.7841V152H52.0841ZM51.9641 136.32C51.7507 136.053 51.5841 135.793 51.4641 135.54C51.3441 135.273 51.2841 135 51.2841 134.72C51.2841 134.32 51.3841 133.967 51.5841 133.66C51.7841 133.34 52.0507 133.093 52.3841 132.92C52.7174 132.733 53.0774 132.64 53.4641 132.64C53.6774 132.64 53.8907 132.673 54.1041 132.74C54.3307 132.793 54.5241 132.873 54.6841 132.98L54.1441 133.94C54.0374 133.873 53.9307 133.833 53.8241 133.82C53.7307 133.793 53.6307 133.78 53.5241 133.78C53.2174 133.78 52.9707 133.867 52.7841 134.04C52.6107 134.213 52.5241 134.44 52.5241 134.72C52.5241 134.88 52.5574 135.04 52.6241 135.2C52.7041 135.36 52.8174 135.533 52.9641 135.72L51.9641 136.32ZM50.9041 136.34V135.22H54.9641V136.34H50.9041Z" fill="black"/>
<path d="M148.238 246.141C148.238 246.141 170.013 240.116 170.735 239.075L152.822 185.709C151.085 180.226 148.306 175.265 144.691 171.189C141.076 167.113 136.716 164.028 131.933 162.159C125.14 159.424 117.972 158.143 110.782 158.381L80.5458 156.53C72.2199 157.125 64.0934 159.726 56.6869 164.165C46.5217 170.294 38.5812 180.418 34.2941 192.715L20.7349 231.888L54.9678 240.159L56.2702 282.249L51.1129 340.323H145.522L144.867 248.276L148.238 246.141Z" fill="#239EC2"/>
<g opacity="0.3">
<path d="M167.006 232.103C167.006 232.223 161.388 234.358 154.355 236.862C147.322 239.367 141.652 241.312 141.622 241.166C141.592 241.02 147.233 238.911 154.273 236.398C161.313 233.884 166.977 231.982 167.006 232.103Z" fill="white"/>
</g>
<path d="M68.1997 194.592C67.9806 194.308 67.7862 193.999 67.6193 193.671C67.2769 193.068 66.7486 192.208 66.0639 191.175C65.263 189.974 64.4059 188.824 63.4965 187.732C62.3836 186.387 61.2006 185.122 59.9541 183.945C58.6923 182.783 57.3728 181.708 56.0024 180.725C54.877 179.936 53.717 179.215 52.527 178.565C51.5149 178.006 50.674 177.592 50.086 177.326C49.7713 177.211 49.4691 177.055 49.1855 176.861C49.51 176.929 49.8287 177.03 50.1381 177.162C50.9872 177.483 51.8218 177.854 52.6386 178.272C53.8559 178.893 55.0412 179.594 56.1884 180.373C57.5811 181.346 58.9185 182.421 60.1922 183.592C61.4539 184.783 62.6448 186.071 63.7569 187.448C64.6587 188.576 65.5012 189.766 66.2797 191.011C66.8179 191.839 67.3148 192.701 67.7681 193.593C67.9428 193.907 68.0875 194.242 68.1997 194.592Z" fill="#263238"/>
<path d="M63.7418 207.33C63.846 207.33 62.7893 220.19 61.3827 236.027C59.9762 251.865 58.7483 264.699 58.6441 264.681C58.5399 264.664 59.5892 251.822 61.0032 235.984C62.4172 220.147 63.66 207.313 63.7418 207.33Z" fill="#263238"/>
<path d="M138.08 183.557C137.878 182.707 137.717 181.845 137.596 180.975C137.218 178.885 136.721 176.826 136.108 174.812C135.478 172.8 134.732 170.839 133.875 168.942C133.487 168.175 133.134 167.385 132.818 166.575C132.818 166.575 132.982 166.756 133.213 167.135C133.444 167.513 133.756 168.081 134.121 168.787C135.053 170.66 135.84 172.624 136.472 174.657C137.104 176.69 137.574 178.784 137.879 180.915C137.991 181.733 138.058 182.395 138.087 182.86C138.113 183.092 138.11 183.327 138.08 183.557Z" fill="#263238"/>
<path d="M139.985 228.445C139.895 228.029 139.835 227.606 139.806 227.179C139.709 226.37 139.598 225.182 139.471 223.736C139.226 220.81 138.965 216.747 138.831 212.263C138.697 207.778 138.705 203.698 138.772 200.755C138.809 199.283 138.846 198.095 138.891 197.312C138.891 196.884 138.928 196.457 139.002 196.038C139.045 196.461 139.06 196.886 139.047 197.312V200.772C139.047 203.707 139.084 207.77 139.218 212.254C139.352 216.739 139.568 220.784 139.746 223.719C139.828 225.122 139.895 226.301 139.955 227.162C140.001 227.587 140.011 228.017 139.985 228.445Z" fill="#263238"/>
<path d="M94.2614 220.93C86.3236 221.464 78.3621 221.292 70.4471 220.414V224.012H94.2614V220.93Z" fill="white"/>
<g opacity="0.3">
<path d="M117.986 161.419C118.037 161.595 118.069 161.777 118.083 161.962L118.291 163.546C118.44 164.94 118.649 166.988 118.82 169.571C119.177 174.735 119.489 182.094 119.564 190.779V191.106L119.303 190.969C114.555 188.292 109.234 185.382 103.675 182.18L76.609 166.515L68.4228 161.721L66.1902 160.404L65.6247 160.042C65.5554 160.01 65.4903 159.966 65.4312 159.913C65.5041 159.933 65.5742 159.965 65.6395 160.008L66.2274 160.318L68.46 161.566L76.6908 166.231L103.847 181.776C109.383 184.978 114.697 187.896 119.475 190.59L119.222 190.771C119.14 182.103 118.879 174.752 118.582 169.579C118.448 166.997 118.269 164.957 118.157 163.554C118.09 162.883 118.038 162.349 118.001 161.962C117.988 161.781 117.983 161.6 117.986 161.419Z" fill="white"/>
</g>
<g opacity="0.3">
<path d="M61.0927 235.77C60.9586 235.767 60.8257 235.741 60.6983 235.692L59.5894 235.391L55.5187 234.195C52.0805 233.17 47.3325 231.785 42.0785 230.313C36.8245 228.841 32.0467 227.567 28.5862 226.655L24.4932 225.57L23.3843 225.26C23.2539 225.23 23.1267 225.184 23.0048 225.122C23.1356 225.102 23.2683 225.102 23.3992 225.122L24.5229 225.355C25.4978 225.561 26.9044 225.889 28.6458 226.302C32.1212 227.162 36.9063 228.359 42.1678 229.831C47.4293 231.303 52.1698 232.749 55.5633 233.842C57.275 234.393 58.6592 234.849 59.6043 235.176L60.6983 235.563C60.8359 235.615 60.9682 235.684 61.0927 235.77Z" fill="white"/>
</g>
<path d="M113.797 154.903C113.797 154.774 115.843 156.014 117.815 159.396C119.787 162.779 121.581 168.004 122.6 174.029C123.069 176.87 123.36 179.747 123.471 182.636C123.471 183.962 123.523 185.218 123.471 186.398C123.419 187.577 123.404 188.67 123.315 189.668C123.225 190.667 123.136 191.553 123.062 192.354C122.987 193.154 122.853 193.809 122.772 194.359C122.725 194.95 122.605 195.53 122.414 196.081C122.369 195.506 122.389 194.928 122.474 194.359L122.63 192.345C122.675 191.545 122.719 190.624 122.764 189.668C122.809 188.713 122.764 187.594 122.831 186.432C122.898 185.27 122.779 184.022 122.742 182.722C122.591 179.891 122.285 177.074 121.826 174.287C121.048 169.22 119.539 164.341 117.361 159.852C116.662 158.528 115.83 157.303 114.883 156.203C114.501 155.793 114.138 155.359 113.797 154.903Z" fill="#263238"/>
<path d="M79.9578 155.153C79.4987 156.064 78.9733 156.927 78.3875 157.735C76.968 160.093 75.7917 162.635 74.8824 165.31C73.5783 169.293 72.7059 173.447 72.2852 177.678C71.7419 182.447 71.541 187.783 71.2061 193.37C70.8712 198.956 70.9456 204.275 70.9382 209.121C70.9307 213.967 70.9382 218.34 70.9382 222.032C70.9382 225.725 70.8563 228.686 70.767 230.743C70.7755 231.813 70.6832 232.881 70.4916 233.927C70.3338 232.873 70.2739 231.803 70.313 230.734C70.2609 228.643 70.2014 225.682 70.1195 222.041C70.0377 218.4 69.9335 214.001 69.8739 209.13C69.8144 204.258 69.7995 198.921 70.0526 193.292C70.3056 187.663 70.6181 182.352 71.2284 177.506C71.7124 173.188 72.6884 168.962 74.1307 164.939C75.1243 162.237 76.4393 159.707 78.0378 157.425C78.5853 156.57 79.2313 155.806 79.9578 155.153Z" fill="#263238"/>
<path d="M129.998 227.102C129.877 226.162 129.827 225.211 129.849 224.261C129.804 222.428 129.767 219.777 129.737 216.515C129.737 214.871 129.737 213.072 129.693 211.161C129.648 209.25 129.693 207.167 129.596 205.05C129.545 202.856 128.879 200.742 127.698 199.025C127.049 198.154 126.251 197.449 125.354 196.954C124.458 196.46 123.482 196.186 122.489 196.15C120.46 196.156 118.505 197.033 117.004 198.611C115.617 200.11 114.653 202.056 114.236 204.198C113.774 206.246 113.581 208.303 113.305 210.223L112.561 215.508C112.115 218.735 111.735 221.352 111.46 223.151C111.358 224.095 111.188 225.028 110.954 225.94C110.95 224.988 111.02 224.037 111.162 223.099C111.348 221.283 111.638 218.658 112.018 215.413C112.211 213.786 112.427 212.013 112.651 210.111C112.874 208.209 113.067 206.16 113.529 204.008C113.967 201.696 115.006 199.594 116.505 197.983C118.129 196.259 120.247 195.29 122.452 195.263C123.559 195.294 124.648 195.595 125.648 196.145C126.648 196.695 127.537 197.483 128.256 198.457C129.535 200.314 130.252 202.607 130.295 204.981C130.407 207.184 130.295 209.224 130.295 211.152C130.295 213.08 130.258 214.871 130.236 216.506C130.236 219.777 130.154 222.428 130.102 224.253C130.134 225.204 130.099 226.157 129.998 227.102Z" fill="#263238"/>
<path d="M122.816 187.749C122.57 190.761 121.737 194.144 119.928 196.356C121.514 195.96 123.157 195.995 124.729 196.459C123.597 193.877 123.419 190.692 123.449 187.774" fill="#263238"/>
<path d="M130.02 207.331C129.878 207.331 129.797 205.885 128.844 203.888C128.287 202.745 127.553 201.729 126.678 200.893C125.627 199.871 124.366 199.177 123.017 198.879C121.661 198.621 120.269 198.781 118.983 199.343C117.92 199.794 116.943 200.478 116.103 201.358C114.66 202.872 114.183 204.25 114.057 204.172C113.93 204.095 114.28 202.649 115.724 200.901C116.565 199.895 117.579 199.103 118.701 198.577C120.099 197.914 121.629 197.711 123.121 197.992C124.604 198.318 125.983 199.103 127.11 200.264C128.029 201.19 128.774 202.323 129.298 203.595C130.213 205.799 130.087 207.34 130.02 207.331Z" fill="#263238"/>
<path d="M149.935 304.835C154.4 304.835 158.329 301.142 160.413 296.623C162.497 292.104 163.032 286.845 163.233 281.724C163.778 268.144 162.339 254.554 158.976 241.527L139.568 245.444L144.859 305.945L149.935 304.835Z" fill="#FFBE9D"/>
<path d="M71.3772 312.366L134.619 309.707L149.957 223.995L83.3439 228.272L71.3772 312.366Z" fill="#263238"/>
<path d="M103.928 226.801L104.881 224.615L109.927 224.193C109.927 224.193 111.207 220.363 118.425 219.967C124.885 219.622 125.123 223.41 125.123 223.41H128.606V225.243L103.928 226.801Z" fill="#455A64"/>
<path d="M139.188 284.745L143.981 283.136C144.883 282.83 145.835 282.78 146.757 282.989C147.881 283.244 148.916 283.876 149.733 284.806C151.319 286.613 153.879 289.6 154.243 290.495C154.779 291.795 154.779 294.05 154.243 294.876C153.707 295.703 155.419 299.98 155.203 301.401C155.091 302.612 154.764 303.784 154.243 304.844C153.812 305.437 154.243 307.469 153.172 309.001C152.555 309.891 151.876 310.72 151.14 311.48C151.14 311.48 137.968 312.194 136.688 311.48C135.408 310.765 133.153 308.037 133.153 308.037C133.153 308.037 131.977 305.549 133.793 305.308L126.299 301.995C125.863 301.811 125.507 301.439 125.304 300.958C125.101 300.476 125.068 299.922 125.212 299.412C125.266 299.224 125.352 299.05 125.466 298.902C125.58 298.754 125.719 298.635 125.875 298.552C125.875 298.552 122.511 297.321 121.729 296.925C120.174 296.133 119.586 291.95 122.808 292.483C124.505 292.767 126.805 293.344 126.805 293.344C126.805 293.344 125.577 291.037 127.296 289.66C128.338 288.799 133.026 289.841 133.026 289.841L139.188 284.754V284.745Z" fill="#FFBE9D"/>
<path d="M140.855 307.607C139.534 307.653 138.216 307.426 136.963 306.935C135.669 306.601 134.448 305.962 133.376 305.059C133.428 304.956 134.999 305.842 137.097 306.505C139.196 307.168 140.87 307.503 140.855 307.607Z" fill="#EB996E"/>
<path d="M137.99 302.192C135.928 301.813 133.887 301.287 131.88 300.617C129.841 300.097 127.833 299.428 125.867 298.612C129.968 299.517 134.016 300.713 137.99 302.192Z" fill="#EB996E"/>
<path d="M139.568 296.804C135.156 295.919 130.793 294.737 126.5 293.266C130.912 294.152 135.275 295.333 139.568 296.804Z" fill="#EB996E"/>
<path d="M144.428 289.867C143.885 290.143 143.319 290.354 142.738 290.495L140.878 291.046L139.776 291.365C139.363 291.484 138.937 291.531 138.511 291.502C138.094 291.468 137.681 291.39 137.276 291.27L136.167 290.977L134.306 290.461C133.721 290.335 133.15 290.136 132.602 289.867C133.195 289.886 133.784 289.981 134.359 290.151L136.249 290.573C137.003 290.779 137.765 290.94 138.534 291.055C139.29 291.038 140.041 290.901 140.766 290.65L142.649 290.185C143.23 290.005 143.826 289.898 144.428 289.867Z" fill="#EB996E"/>
<path d="M145.268 292.785C145.313 292.785 145.492 292.94 145.633 293.353C145.825 293.902 145.843 294.511 145.685 295.074C145.535 295.632 145.225 296.115 144.807 296.443C144.487 296.684 144.249 296.718 144.227 296.667C144.204 296.615 144.971 296.081 145.313 294.945C145.441 294.231 145.426 293.492 145.268 292.785Z" fill="#EB996E"/>
<path d="M145.001 298.672C145.09 298.621 145.388 299.232 145.343 300.067C145.298 300.902 144.956 301.478 144.867 301.409C144.777 301.341 144.926 300.772 144.956 300.041C144.986 299.309 144.889 298.715 145.001 298.672Z" fill="#EB996E"/>
<path d="M145.075 305.059C145.172 305.016 145.373 305.429 145.276 305.971C145.179 306.514 144.867 306.832 144.785 306.72C144.703 306.608 144.83 306.307 144.897 305.86C144.964 305.412 144.971 305.094 145.075 305.059Z" fill="#EB996E"/>
<path d="M146.511 289.514C146.089 289.568 145.662 289.544 145.246 289.445L143.892 289.239C143.361 289.111 142.816 289.079 142.277 289.144C141.763 289.283 141.277 289.537 140.848 289.893C140.431 290.211 140.104 290.573 139.724 290.805C139.372 291.106 138.949 291.274 138.511 291.287C138.511 291.21 138.965 291.063 139.575 290.538C140.318 289.689 141.227 289.06 142.225 288.705C142.527 288.671 142.831 288.671 143.133 288.705C143.438 288.705 143.683 288.808 143.944 288.86L145.291 289.153C145.71 289.206 146.121 289.327 146.511 289.514Z" fill="#EB996E"/>
<path d="M154.117 305.119C154.205 304.757 154.317 304.403 154.452 304.06C155.063 302.428 155.15 300.596 154.697 298.896C154.549 298.139 154.243 297.381 154.08 296.477C153.982 295.536 154.037 294.581 154.243 293.663C154.331 292.713 154.181 291.754 153.812 290.9C153.437 290.025 152.978 289.202 152.443 288.447C151.929 287.698 151.43 286.966 150.954 286.312C150.112 285.113 149.046 284.151 147.836 283.497C147.015 283.074 146.11 282.913 145.216 283.033C144.591 283.136 144.264 283.325 144.249 283.291C144.234 283.256 144.323 283.222 144.48 283.127C144.719 283.008 144.968 282.919 145.224 282.861C146.148 282.674 147.1 282.79 147.97 283.196C149.238 283.834 150.36 284.807 151.244 286.037C151.765 286.699 152.271 287.422 152.792 288.171C153.349 288.967 153.826 289.833 154.214 290.754C154.615 291.685 154.773 292.732 154.668 293.766C154.471 294.639 154.408 295.545 154.482 296.443C154.623 297.304 154.921 298.07 155.062 298.844C155.227 299.566 155.309 300.31 155.308 301.057C155.272 302.131 155.046 303.185 154.645 304.155C154.507 304.502 154.329 304.826 154.117 305.119Z" fill="#EB996E"/>
<path d="M109.845 262.745L57.9223 272.282L60.2294 240.943L31.3546 234.487L27.842 280.89L27.2317 291.528C27.0309 295.072 27.6184 298.616 28.9381 301.823C30.2578 305.029 32.2657 307.791 34.7704 309.845C37.0542 311.718 39.6845 312.948 42.4519 313.439C45.2193 313.929 48.0474 313.665 50.7111 312.668L61.874 308.459L116.29 286.08" fill="#FFBE9D"/>
<path d="M141.265 256.264C141.301 256.015 141.289 255.761 141.23 255.518C141.172 255.275 141.068 255.05 140.926 254.859C140.784 254.667 140.608 254.514 140.409 254.411C140.21 254.307 139.994 254.255 139.776 254.258C136.852 254.258 128.948 254.258 126.157 255.214C122.704 256.341 109.837 262.728 109.837 262.728L115.292 285.968L135.036 286.209C135.036 286.209 142.247 282.379 142.336 280.718C142.329 279.679 142.269 278.641 142.158 277.61L144.338 276.259C147.583 273.883 145.499 269.313 145.499 269.313C145.499 269.313 147.732 267.867 147.851 265.25C147.905 264.484 147.77 263.716 147.462 263.035C147.154 262.354 146.685 261.788 146.109 261.403C146.109 261.403 147.002 257.719 145.365 256.729C143.728 255.739 140.9 257.004 140.9 257.004C141.088 256.81 141.216 256.55 141.265 256.264Z" fill="#FFBE9D"/>
<path d="M142.403 256.642C142.213 256.763 142.007 256.847 141.793 256.892C141.399 257.021 140.811 257.168 140.089 257.314C138.6 257.615 136.621 257.865 134.396 258.175C132.499 258.372 130.615 258.706 128.755 259.173C127.333 259.552 126.522 260.034 126.522 260.034C126.684 259.868 126.867 259.731 127.065 259.629C127.591 259.328 128.139 259.083 128.703 258.898C130.56 258.339 132.454 257.959 134.366 257.761C136.599 257.486 138.615 257.288 140.059 257.073C141.503 256.858 142.381 256.582 142.403 256.642Z" fill="#EB996E"/>
<path d="M146.117 261.307C145.695 261.667 145.225 261.943 144.725 262.125C143.559 262.646 142.356 263.052 141.131 263.339C139.694 263.683 138.392 263.907 137.41 264.053C136.903 264.171 136.386 264.217 135.869 264.191C135.869 264.044 138.176 263.562 141.019 262.9C142.229 262.613 143.427 262.257 144.606 261.832C145.095 261.606 145.601 261.43 146.117 261.307Z" fill="#EB996E"/>
<path d="M145.522 269.399C142.803 270.848 139.852 271.622 136.859 271.671C136.859 271.533 138.824 271.249 141.205 270.621C143.587 269.993 145.522 269.27 145.522 269.399Z" fill="#EB996E"/>
<path d="M144.346 276.302C142.27 277.522 139.976 278.161 137.648 278.17C139.884 277.563 142.116 276.941 144.346 276.302Z" fill="#EB996E"/>
<path d="M134.046 272.214C134.046 272.265 133.845 272.412 133.443 272.455C132.914 272.506 132.386 272.339 131.955 271.981C131.52 271.625 131.207 271.104 131.069 270.509C130.972 270.053 131.024 269.769 131.069 269.769C131.114 269.769 131.277 270.879 132.171 271.611C132.745 271.983 133.388 272.19 134.046 272.214Z" fill="#EB996E"/>
<path d="M133.614 279.392C133.614 279.512 132.87 279.564 132.163 278.867C131.456 278.169 131.419 277.257 131.545 277.266C131.672 277.274 131.851 277.954 132.424 278.531C132.997 279.108 133.614 279.263 133.614 279.392Z" fill="#EB996E"/>
<path d="M131.382 264.733C131.426 264.854 130.883 265.052 130.377 264.604C129.871 264.156 129.886 263.502 129.998 263.519C130.109 263.537 130.236 263.941 130.608 264.251C130.98 264.561 131.33 264.613 131.382 264.733Z" fill="#EB996E"/>
<path d="M109.845 262.745L110.001 262.642L110.47 262.392L112.301 261.454C113.908 260.654 116.237 259.492 119.192 258.089C120.68 257.4 122.288 256.634 124.074 255.868C124.991 255.443 125.937 255.103 126.902 254.852C127.941 254.639 128.989 254.49 130.042 254.405C132.2 254.207 134.507 254.121 136.874 254.086H138.682H139.605C139.945 254.067 140.284 254.15 140.588 254.327C140.911 254.51 141.172 254.815 141.325 255.193C141.478 255.57 141.514 255.997 141.428 256.402C141.382 256.524 141.304 256.626 141.205 256.694L140.982 256.858L140.535 257.099C140.231 257.25 139.917 257.376 139.598 257.478C139.549 257.491 139.499 257.482 139.456 257.454C139.413 257.425 139.381 257.378 139.367 257.323C139.36 257.295 139.359 257.266 139.362 257.238C139.365 257.209 139.373 257.181 139.385 257.157C139.398 257.132 139.415 257.11 139.434 257.093C139.454 257.075 139.477 257.063 139.501 257.056C140.307 256.785 141.128 256.572 141.957 256.419C142.816 256.237 143.694 256.203 144.562 256.316C145.033 256.377 145.479 256.598 145.842 256.953C146.177 257.351 146.398 257.859 146.474 258.407C146.608 259.457 146.549 260.527 146.303 261.549L146.206 261.282C146.632 261.566 147.004 261.947 147.3 262.401C147.669 262.978 147.913 263.649 148.012 264.357C148.11 265.066 148.06 265.791 147.866 266.472C147.456 267.781 146.667 268.885 145.633 269.597L145.708 269.296C146.244 270.523 146.461 271.905 146.333 273.272C146.249 273.94 146.039 274.578 145.718 275.14C145.396 275.703 144.971 276.176 144.472 276.526L142.299 277.877L142.396 277.662C142.448 278.264 142.5 278.867 142.537 279.461C142.537 279.754 142.537 280.055 142.575 280.322C142.575 280.468 142.575 280.623 142.575 280.778C142.555 280.953 142.501 281.12 142.418 281.268C142.105 281.75 141.725 282.169 141.295 282.508C140.893 282.852 140.476 283.162 140.067 283.455C138.477 284.541 136.84 285.532 135.162 286.424H135.095L120.725 286.166L116.751 286.071L115.709 286.028C115.59 286.043 115.471 286.043 115.352 286.028C115.471 286.015 115.59 286.015 115.709 286.028H116.751H120.725L135.095 286.123H135.028C136.692 285.229 138.314 284.235 139.888 283.145C140.29 282.861 140.699 282.551 141.086 282.215C141.48 281.908 141.827 281.527 142.113 281.088C142.169 280.998 142.208 280.895 142.225 280.786V280.365C142.225 280.072 142.225 279.779 142.225 279.504C142.188 278.919 142.135 278.325 142.076 277.731C142.071 277.689 142.078 277.646 142.095 277.609C142.112 277.572 142.14 277.542 142.173 277.524L144.346 276.164C144.799 275.847 145.185 275.418 145.477 274.907C145.769 274.397 145.96 273.818 146.035 273.212C146.145 271.935 145.939 270.648 145.44 269.502C145.418 269.451 145.415 269.391 145.43 269.337C145.445 269.283 145.478 269.237 145.522 269.21C146.481 268.556 147.216 267.541 147.605 266.335C147.779 265.72 147.822 265.067 147.733 264.429C147.644 263.791 147.424 263.188 147.092 262.668C146.832 262.269 146.506 261.936 146.132 261.687C146.093 261.662 146.063 261.623 146.046 261.576C146.028 261.53 146.025 261.478 146.035 261.428C146.263 260.473 146.318 259.474 146.199 258.493C146.153 258.034 145.968 257.609 145.676 257.294C145.384 256.978 145.005 256.793 144.606 256.772C143.778 256.664 142.94 256.699 142.121 256.875C141.306 257.017 140.5 257.221 139.709 257.486L139.613 257.065C139.912 256.974 140.206 256.859 140.491 256.72C140.632 256.651 140.781 256.574 140.908 256.496C141.034 256.419 141.168 256.264 141.213 256.281C141.24 255.973 141.199 255.662 141.094 255.377C140.965 255.095 140.765 254.864 140.521 254.715C140.27 254.568 139.99 254.502 139.709 254.525H136.986C134.604 254.525 132.32 254.629 130.169 254.809C129.129 254.889 128.093 255.03 127.066 255.231C126.115 255.477 125.182 255.805 124.275 256.212C122.496 256.961 120.866 257.71 119.385 258.381L112.457 261.626L110.604 262.487L110.12 262.711L109.845 262.745Z" fill="#EB996E"/>
<path d="M58.1308 272.213C56.7213 273.302 55.4339 274.589 54.2982 276.044C53.2644 277.6 52.4043 279.3 51.7382 281.105C51.7744 280.508 51.9056 279.925 52.1251 279.383C53.0413 276.721 54.6648 274.463 56.7615 272.936C57.1777 272.604 57.6412 272.36 58.1308 272.213Z" fill="#EB996E"/>
<path d="M125.934 86.509C125.418 78.9096 122.447 71.8137 117.612 66.6332C112.778 61.4528 106.434 58.5678 99.8429 58.5522H98.481C83.8353 59.5077 76.3487 74.4242 77.5841 91.3377L80.1068 159.121C80.1267 159.674 80.2754 160.211 80.5375 160.675C80.7995 161.138 81.1649 161.511 81.5952 161.755L114.474 179.598L113.521 144.023C113.521 144.023 127.609 141.527 127.81 125.242C127.869 117.384 126.917 101.167 125.934 86.509Z" fill="#FFBE9D"/>
<path d="M113.603 143.963C107.065 143.956 100.666 141.775 95.1692 137.68C95.1692 137.68 99.4855 149.403 113.536 148.009L113.603 143.963Z" fill="#EB996E"/>
<path d="M120.963 96.6226C120.965 97.2281 120.764 97.8109 120.402 98.2478C120.039 98.6847 119.544 98.9415 119.021 98.9638C118.765 98.9884 118.507 98.9531 118.263 98.86C118.019 98.7669 117.794 98.6179 117.601 98.4219C117.408 98.2259 117.251 97.9869 117.139 97.7191C117.028 97.4514 116.964 97.1604 116.952 96.8636C116.946 96.2583 117.145 95.6742 117.507 95.2366C117.868 94.799 118.364 94.5426 118.887 94.5224C119.143 94.499 119.401 94.5351 119.645 94.6286C119.889 94.7221 120.114 94.871 120.307 95.0667C120.501 95.2624 120.659 95.5009 120.771 95.7681C120.884 96.0353 120.949 96.3258 120.963 96.6226Z" fill="#263238"/>
<path d="M122.898 94.4708C122.645 94.7721 121.127 93.4638 118.961 93.4638C116.796 93.4638 115.24 94.7205 114.98 94.4106C114.861 94.2729 115.114 93.7306 115.806 93.1453C116.745 92.399 117.859 92.0053 118.998 92.0177C120.125 92.0133 121.223 92.4266 122.131 93.197C122.794 93.7823 123.017 94.3331 122.898 94.4708Z" fill="#263238"/>
<path d="M99.6793 97.3798C99.6853 97.9866 99.4852 98.5719 99.1219 99.0097C98.7587 99.4476 98.2613 99.703 97.7369 99.721C97.481 99.7444 97.2238 99.7083 96.9802 99.6147C96.7367 99.5211 96.5118 99.372 96.319 99.1762C96.1261 98.9805 95.9692 98.7419 95.8574 98.4748C95.7455 98.2076 95.6812 97.9172 95.668 97.6208C95.6639 97.0147 95.8646 96.4306 96.2275 95.9933C96.5903 95.5559 97.0866 95.2998 97.6104 95.2796C97.8662 95.2562 98.1235 95.2924 98.367 95.3859C98.6105 95.4795 98.8354 95.6286 99.0283 95.8244C99.2211 96.0202 99.3781 96.2587 99.4899 96.5259C99.6017 96.793 99.6661 97.0834 99.6793 97.3798Z" fill="#263238"/>
<path d="M101.614 94.9011C101.368 95.2023 99.8428 93.9026 97.6847 93.9026C95.5265 93.9026 93.9637 95.1507 93.6958 94.8408C93.5841 94.7031 93.8372 94.1609 94.5293 93.5842C95.4657 92.8312 96.5815 92.4341 97.7219 92.448C98.8452 92.4502 99.9391 92.8629 100.847 93.6272C101.525 94.2039 101.755 94.7548 101.614 94.9011Z" fill="#263238"/>
<path d="M109.45 113.459C109.45 113.321 110.782 113.054 112.963 112.736C113.514 112.667 114.042 112.546 114.131 112.107C114.181 111.448 114.054 110.787 113.767 110.214L112.144 105.342C109.912 98.4561 108.252 92.7149 108.498 92.6117C108.743 92.5084 110.73 98.0429 113.022 104.98L114.578 109.878C114.924 110.648 115.025 111.535 114.861 112.383C114.78 112.609 114.655 112.81 114.497 112.971C114.338 113.132 114.149 113.249 113.945 113.312C113.639 113.409 113.324 113.461 113.008 113.467C110.82 113.596 109.458 113.605 109.45 113.459Z" fill="#263238"/>
<path d="M103.102 115.18C103.452 115.18 103.452 117.866 105.461 119.802C107.471 121.739 109.964 121.438 109.986 121.816C109.986 121.989 109.428 122.35 108.371 122.376C106.994 122.396 105.655 121.854 104.591 120.844C103.572 119.875 102.918 118.486 102.767 116.97C102.656 115.834 102.916 115.163 103.102 115.18Z" fill="#263238"/>
<path d="M102.209 85.08C101.994 85.7599 99.8355 85.4329 97.2978 85.7858C94.7601 86.1387 92.7061 86.9306 92.3637 86.3194C92.2149 86.0268 92.5721 85.3812 93.4056 84.7271C94.5059 83.9094 95.7582 83.405 97.0596 83.2552C98.3581 83.0758 99.6749 83.2588 100.9 83.7889C101.83 84.2278 102.299 84.7615 102.209 85.08Z" fill="#263238"/>
<path d="M122.117 87.232C121.73 87.7915 120.241 87.232 118.448 87.1718C116.654 87.1115 115.144 87.5419 114.794 86.948C114.638 86.6639 114.883 86.0872 115.538 85.5536C116.43 84.9135 117.465 84.5931 118.514 84.6329C119.563 84.6728 120.579 85.071 121.432 85.7773C122.072 86.3627 122.281 86.948 122.117 87.232Z" fill="#263238"/>
<path d="M79.6899 103.388C79.4517 103.268 70.0154 100.057 70.313 111.195C70.6107 122.333 80.2034 119.69 80.2108 119.372C80.2183 119.054 79.6899 103.388 79.6899 103.388Z" fill="#FFBE9D"/>
<path d="M78.0082 115.258C77.9636 115.258 77.8445 115.396 77.5617 115.559C77.1691 115.77 76.7213 115.798 76.3114 115.637C75.2844 115.232 74.3765 113.399 74.2798 111.393C74.2328 110.441 74.3675 109.489 74.6742 108.604C74.7557 108.253 74.9101 107.929 75.1241 107.662C75.3381 107.395 75.6052 107.193 75.9021 107.072C76.0928 107.008 76.2969 107.021 76.4799 107.111C76.6629 107.2 76.8137 107.36 76.9068 107.563C77.0407 107.873 76.9886 108.096 77.0333 108.114C77.0779 108.131 77.2417 107.924 77.1524 107.468C77.0872 107.194 76.946 106.952 76.7505 106.78C76.4809 106.558 76.1467 106.468 75.8203 106.53C75.4271 106.633 75.0634 106.851 74.7637 107.163C74.4641 107.475 74.2385 107.87 74.1086 108.312C73.7244 109.29 73.5532 110.363 73.61 111.436C73.7291 113.683 74.7784 115.74 76.1775 116.162C76.4328 116.233 76.6985 116.238 76.9558 116.177C77.213 116.116 77.4555 115.99 77.6659 115.809C77.9933 115.559 78.038 115.275 78.0082 115.258Z" fill="#EB996E"/>
<path d="M85.9858 70.3011L126.113 71.3254C124.747 68.1699 122.721 65.4596 120.219 63.4411C115.002 58.7669 108.641 56.1189 102.046 55.8752C95.5041 55.7375 82.1756 64.9646 77.435 70.1806C73.6396 74.3552 73.6694 77.9703 73.6694 77.9703C73.0666 83.9954 75.9764 90.8297 77.1373 96.743C77.7327 99.79 78.8862 109.008 78.8862 109.008C81.1188 109.008 81.9151 106.969 81.5802 104.438L81.1709 94.5137C81.1709 94.5137 88.6873 88.3336 85.1226 77.0235C84.5719 76.1197 83.3514 71.9882 85.9858 70.3011Z" fill="#263238"/>
<path d="M94.4252 105.506C94.393 105.507 94.3608 105.501 94.3306 105.487C94.3005 105.474 94.2728 105.454 94.2493 105.429C94.2258 105.403 94.2069 105.372 94.1937 105.338C94.1805 105.304 94.1731 105.268 94.1722 105.23C94.1562 105.156 94.166 105.078 94.1993 105.012C94.2327 104.946 94.2871 104.898 94.3508 104.877C94.4177 104.867 94.4853 104.888 94.5394 104.934C94.5936 104.981 94.63 105.05 94.641 105.127C94.6522 105.168 94.6554 105.212 94.6501 105.255C94.6449 105.298 94.6315 105.339 94.6109 105.376C94.5902 105.412 94.5628 105.442 94.5307 105.465C94.4986 105.487 94.4626 105.501 94.4252 105.506Z" fill="#EB996E"/>
<path d="M98.563 104.429C98.429 104.429 98.3025 104.335 98.2653 104.145C98.2461 104.065 98.2539 103.98 98.2871 103.907C98.3202 103.833 98.3763 103.777 98.4439 103.749C98.5157 103.745 98.5864 103.773 98.6406 103.827C98.6949 103.882 98.7284 103.959 98.7341 104.042C98.7553 104.12 98.7492 104.204 98.7172 104.276C98.6852 104.349 98.6298 104.404 98.563 104.429Z" fill="#EB996E"/>
<path d="M101.346 104.369C101.212 104.369 101.086 104.206 101.056 103.956C101.026 103.706 101.115 103.491 101.249 103.474C101.383 103.457 101.502 103.638 101.532 103.887C101.562 104.137 101.473 104.369 101.346 104.369Z" fill="#EB996E"/>
<path d="M96.4492 108.51C96.3227 108.51 96.2111 108.432 96.2111 108.338C96.2111 108.243 96.3227 108.157 96.4492 108.157C96.5757 108.157 96.6874 108.243 96.6874 108.338C96.6874 108.432 96.5832 108.51 96.4492 108.51Z" fill="#EB996E"/>
<path d="M100.245 107.503C100.174 107.51 100.103 107.483 100.049 107.43C99.9944 107.377 99.9605 107.301 99.9545 107.219C99.9486 107.136 99.9712 107.055 100.017 106.992C100.063 106.929 100.129 106.89 100.2 106.883C100.233 106.882 100.266 106.888 100.298 106.902C100.329 106.916 100.357 106.936 100.381 106.963C100.405 106.989 100.425 107.021 100.439 107.056C100.452 107.091 100.46 107.129 100.461 107.167C100.469 107.244 100.452 107.323 100.411 107.385C100.371 107.448 100.311 107.49 100.245 107.503Z" fill="#EB996E"/>
<path d="M119.973 104.826C119.941 104.832 119.907 104.83 119.875 104.821C119.842 104.811 119.812 104.794 119.786 104.771C119.759 104.748 119.737 104.718 119.721 104.685C119.705 104.651 119.694 104.614 119.691 104.576C119.674 104.501 119.684 104.421 119.717 104.354C119.75 104.287 119.805 104.237 119.869 104.215C119.936 104.205 120.004 104.225 120.058 104.272C120.112 104.318 120.148 104.387 120.159 104.464C120.168 104.502 120.171 104.542 120.166 104.581C120.161 104.619 120.15 104.657 120.133 104.691C120.115 104.724 120.092 104.754 120.065 104.777C120.038 104.8 120.006 104.817 119.973 104.826Z" fill="#EB996E"/>
<path d="M122.794 104.533C122.734 104.556 122.669 104.557 122.609 104.535C122.548 104.514 122.495 104.471 122.457 104.413C122.418 104.355 122.396 104.285 122.394 104.212C122.391 104.139 122.409 104.067 122.443 104.005C122.477 103.944 122.528 103.897 122.586 103.87C122.645 103.843 122.71 103.838 122.771 103.855C122.832 103.872 122.888 103.911 122.929 103.967C122.97 104.022 122.996 104.09 123.002 104.163C123.016 104.244 123.001 104.328 122.963 104.397C122.924 104.466 122.863 104.515 122.794 104.533Z" fill="#EB996E"/>
<path d="M117.488 104.903C117.43 104.919 117.37 104.91 117.319 104.876C117.268 104.842 117.23 104.788 117.212 104.722C117.199 104.651 117.212 104.576 117.247 104.514C117.282 104.453 117.336 104.41 117.398 104.395C117.46 104.381 117.525 104.395 117.578 104.435C117.631 104.476 117.668 104.539 117.681 104.611C117.688 104.679 117.671 104.747 117.635 104.802C117.599 104.856 117.546 104.893 117.488 104.903Z" fill="#EB996E"/>
<path d="M119.572 108.165C119.523 108.202 119.466 108.22 119.408 108.218C119.35 108.216 119.294 108.194 119.248 108.154C119.201 108.114 119.166 108.058 119.148 107.995C119.13 107.931 119.129 107.862 119.146 107.798C119.162 107.734 119.195 107.677 119.241 107.635C119.286 107.594 119.341 107.569 119.399 107.565C119.457 107.561 119.515 107.578 119.564 107.613C119.614 107.647 119.653 107.699 119.676 107.761C119.708 107.83 119.715 107.912 119.695 107.988C119.676 108.063 119.631 108.127 119.572 108.165Z" fill="#EB996E"/>
<path d="M121.975 107.614C121.918 107.602 121.868 107.564 121.835 107.509C121.802 107.455 121.788 107.388 121.797 107.322C121.823 107.265 121.865 107.221 121.916 107.195C121.967 107.17 122.024 107.166 122.077 107.183C122.131 107.2 122.178 107.237 122.211 107.289C122.243 107.341 122.26 107.404 122.258 107.468C122.236 107.53 122.195 107.58 122.142 107.607C122.089 107.634 122.029 107.637 121.975 107.614Z" fill="#EB996E"/>
<path d="M77.1894 70.8007C76.7423 68.7439 76.7135 66.5952 77.1053 64.5234C77.4971 62.4515 78.2989 60.5129 79.4476 58.8598C80.5963 57.2068 82.0608 55.8842 83.7259 54.996C85.3911 54.1078 87.2115 53.6782 89.0444 53.7409C90.9198 53.827 92.7654 54.4381 94.6408 54.2057C98.1162 53.7667 100.795 50.5476 104.018 48.981C106.561 47.8342 109.364 47.7044 111.978 48.6121C114.593 49.5199 116.87 51.4131 118.448 53.9905C119.668 56.0993 120.464 58.7074 122.34 60.0157C123.955 61.1605 125.994 61.0658 127.81 61.7372C131.486 63.0111 134.001 67.5299 133.808 71.9627C133.652 74.1826 132.972 76.3103 131.842 78.1136C130.712 79.9169 129.176 81.3265 127.4 82.1883C125.614 83.013 123.691 83.3638 121.771 83.2149C119.852 83.0659 117.987 82.4209 116.312 81.3275C113.283 79.3737 110.574 76.0512 107.106 76.1631C103.519 76.2836 100.408 80.1914 96.8659 79.3823C95.0203 78.9605 93.5989 77.3165 92.2445 75.8016C90.89 74.2867 89.3421 72.746 87.4593 72.6169C85.5765 72.4878 84.6016 75.4745 85.2788 77.5059L77.1894 70.8007Z" fill="#263238"/>
<path d="M125.354 65.43C125.335 65.4861 125.312 65.5407 125.287 65.5935C125.217 65.7477 125.14 65.8971 125.056 66.0411C124.73 66.6021 124.343 67.1114 123.903 67.556C123.203 68.263 122.392 68.8067 121.514 69.157C120.343 69.6199 119.085 69.7062 117.875 69.4066C116.398 69.0465 115.055 68.1618 114.035 66.876C112.941 65.4903 112.286 63.6225 111.266 61.9871C110.767 61.1414 110.101 60.4451 109.324 59.9557C108.497 59.4823 107.582 59.2489 106.66 59.2757C105.703 59.3088 104.767 59.6038 103.928 60.1365C103.075 60.6953 102.377 61.5258 101.919 62.5293C101.435 63.5536 101.086 64.6726 100.505 65.6624C100.23 66.1772 99.8527 66.6093 99.4052 66.9235C98.9577 67.2376 98.4523 67.4249 97.9303 67.47C96.9385 67.4874 95.9646 67.1638 95.1321 66.5404C94.3485 65.971 93.6329 65.2852 93.0037 64.5004C91.7609 63.0544 90.5404 61.6083 89.0223 61.221C88.3213 61.0638 87.5995 61.0799 86.9043 61.2683C86.2091 61.4567 85.5563 61.8131 84.9887 62.3141C84.0201 63.1288 83.2508 64.2202 82.7561 65.4817C82.3775 66.4358 82.0977 67.4383 81.9226 68.4684C81.7738 69.3291 81.7068 69.9833 81.6622 70.4395C81.646 70.674 81.6162 70.9069 81.5729 71.1367C81.5652 71.0768 81.5652 71.0159 81.5729 70.9559C81.5729 70.8354 81.5729 70.6633 81.5729 70.4309C81.6039 69.7611 81.671 69.0941 81.7738 68.434C81.9105 67.3835 82.1605 66.3569 82.518 65.3784C83.0004 64.0656 83.7698 62.9206 84.7506 62.0559C85.3463 61.5158 86.035 61.1296 86.7706 60.9232C87.5062 60.7168 88.2714 60.6951 89.0148 60.8595C90.6595 61.264 91.9321 62.7789 93.1674 64.2078C93.7827 64.9602 94.4778 65.6196 95.2363 66.1702C96.007 66.7469 96.9082 67.0464 97.8261 67.031C98.2884 66.9852 98.7352 66.8151 99.1305 66.5341C99.5259 66.2531 99.859 65.8691 100.103 65.4128C100.647 64.4832 100.996 63.3728 101.495 62.3141C101.987 61.2303 102.739 60.3337 103.661 59.7319C104.555 59.169 105.552 58.8593 106.57 58.8281C107.556 58.8047 108.531 59.0588 109.413 59.5684C110.239 60.0926 110.946 60.836 111.475 61.7374C112.524 63.4589 113.149 65.2837 114.191 66.6264C115.162 67.8657 116.441 68.7259 117.852 69.0881C119.016 69.3985 120.23 69.336 121.365 68.9074C122.226 68.5881 123.026 68.0828 123.724 67.4183C124.341 66.8414 124.889 66.1729 125.354 65.43Z" fill="#455A64"/>
<path d="M132.625 65.6365C132.722 65.9104 132.777 66.2016 132.788 66.4972C132.847 67.3336 132.779 68.1753 132.587 68.9847C132.302 70.1868 131.794 71.3028 131.099 72.2555C130.232 73.4144 129.147 74.3298 127.929 74.9324C125.712 75.9764 123.288 76.2922 120.926 75.8448C120.219 75.7295 119.519 75.5686 118.827 75.3628C118.568 75.3099 118.317 75.2112 118.083 75.0702C118.083 75.0013 119.177 75.3112 120.963 75.5263C123.27 75.8729 125.615 75.5261 127.773 74.5193C128.94 73.9447 129.984 73.0809 130.831 71.9887C131.506 71.0852 132.013 70.0303 132.32 68.8901C132.577 67.8327 132.68 66.7331 132.625 65.6365Z" fill="#455A64"/>
<path d="M64.1364 244.936C64.2897 246.695 64.8731 248.367 65.8182 249.757C66.6815 251.056 68.4303 252.339 69.8369 252.227C70.8966 252.289 71.9523 252.033 72.9006 251.482C73.8489 250.931 74.6575 250.106 75.2472 249.085C76.9663 245.935 77.383 239.367 75.9914 235.486C75.0462 232.817 72.9179 230.321 70.4248 230.261C67.1504 230.175 65.0963 232.912 64.3968 235.684" fill="#E0E0E0"/>
<path d="M64.4041 235.684C64.5132 235.028 64.7196 234.399 65.0143 233.824C65.3357 233.131 65.7501 232.5 66.2422 231.957C66.8941 231.228 67.6879 230.69 68.5567 230.39C69.0614 230.212 69.5846 230.114 70.112 230.097C70.689 230.061 71.2669 230.149 71.8163 230.356C73.0175 230.845 74.0733 231.719 74.86 232.878C75.7404 234.129 76.3524 235.604 76.6461 237.181C76.9612 238.857 77.074 240.574 76.981 242.286C76.8247 244.98 76.3708 247.665 75.0759 249.714C74.4389 250.68 73.584 251.424 72.6051 251.865C71.7195 252.277 70.7676 252.462 69.8144 252.408C69.1143 252.414 68.4238 252.219 67.8051 251.84C67.263 251.513 66.7622 251.102 66.3167 250.617C65.6114 249.812 65.0522 248.853 64.672 247.794C64.424 247.125 64.249 246.422 64.151 245.703C64.1258 245.515 64.1109 245.325 64.1064 245.135C64.0936 245.069 64.0936 245.002 64.1064 244.937C64.2502 245.894 64.5003 246.825 64.8506 247.708C65.2508 248.718 65.8112 249.632 66.5027 250.402C66.952 250.857 67.4527 251.24 67.9911 251.538C68.5659 251.882 69.2048 252.056 69.8516 252.046C70.7944 252.1 71.7349 251.895 72.5954 251.446C73.4558 250.997 74.2116 250.317 74.8005 249.464C75.9986 247.545 76.4601 244.902 76.6089 242.268C76.7652 238.825 76.274 235.434 74.5996 233.144C73.8577 232.044 72.8656 231.203 71.7344 230.717C71.2188 230.52 70.6772 230.43 70.1344 230.45C69.6308 230.456 69.1302 230.54 68.646 230.7C67.8126 230.973 67.0474 231.472 66.4134 232.155C65.9179 232.663 65.4914 233.255 65.1483 233.911C64.8711 234.485 64.6227 235.077 64.4041 235.684Z" fill="#263238"/>
<path d="M62.3948 245.109C62.5493 246.867 63.1326 248.539 64.0767 249.929C64.9399 251.229 66.6888 252.511 68.0953 252.399C69.1551 252.462 70.2107 252.205 71.1591 251.655C72.1074 251.104 72.9159 250.278 73.5056 249.258C75.2173 246.099 75.6414 239.54 74.2498 235.658C73.3047 232.981 71.1837 230.494 68.6907 230.433C67.3058 230.42 65.9574 230.947 64.8635 231.929C63.7696 232.912 62.9942 234.292 62.6627 235.847" fill="#E0E0E0"/>
<path d="M62.6776 235.847C62.7876 235.194 62.9941 234.568 63.2878 233.996C63.6067 233.3 64.0215 232.67 64.5158 232.128C65.5557 230.964 66.9386 230.3 68.3856 230.269C68.9625 230.233 69.5404 230.32 70.0898 230.527C71.2922 231.014 72.3486 231.889 73.1335 233.049C74.0139 234.301 74.6259 235.776 74.9196 237.353C75.2359 239.028 75.3462 240.746 75.2471 242.457C75.0982 245.151 74.6443 247.828 73.3494 249.885C72.7124 250.851 71.8576 251.596 70.8786 252.037C69.993 252.448 69.0411 252.633 68.0879 252.579C67.3872 252.583 66.6967 252.384 66.0786 252.003C65.5341 251.684 65.0327 251.275 64.5902 250.789C63.8832 249.982 63.3238 249.019 62.9455 247.957C62.6933 247.292 62.5182 246.592 62.4246 245.874C62.3994 245.686 62.3845 245.496 62.3799 245.306C62.3672 245.241 62.3672 245.173 62.3799 245.108C62.5245 246.062 62.7746 246.991 63.1241 247.871C63.5196 248.886 64.0805 249.804 64.7762 250.574C65.2255 251.029 65.7262 251.411 66.2646 251.71C66.8406 252.049 67.4787 252.223 68.1251 252.218C69.0679 252.272 70.0084 252.066 70.8689 251.617C71.7294 251.168 72.4852 250.489 73.074 249.636C74.2722 247.708 74.7336 245.074 74.875 242.44C75.0387 238.997 74.5475 235.606 72.8656 233.316C72.1303 232.211 71.1395 231.37 70.0079 230.889C69.4924 230.691 68.9507 230.601 68.4079 230.622C67.9044 230.629 67.404 230.713 66.9195 230.872C66.0865 231.146 65.3214 231.644 64.6869 232.326C64.1961 232.839 63.7747 233.433 63.4367 234.091C63.1576 234.66 62.9042 235.246 62.6776 235.847Z" fill="#263238"/>
<path d="M65.5501 234.883C64.7246 234.763 63.8877 234.958 63.1666 235.438C62.4454 235.918 61.8792 236.656 61.5538 237.542C60.9396 239.348 60.9396 241.357 61.5538 243.163C61.8128 244.096 62.236 244.958 62.7967 245.693C63.3725 246.429 64.1732 246.876 65.0292 246.941C65.6536 246.907 66.2612 246.697 66.8004 246.332C67.3395 245.966 67.794 245.454 68.1251 244.841C68.7009 243.893 69.0929 242.813 69.274 241.673C69.4551 240.534 69.4211 239.362 69.1744 238.239C68.832 236.742 67.8869 235.218 66.5548 235.175" fill="#E0E0E0"/>
<path d="M66.5251 235.201C66.5251 235.201 66.6219 235.201 66.8154 235.201C67.1023 235.239 67.3789 235.348 67.6266 235.52C68.0676 235.856 68.4457 236.292 68.7384 236.8C69.0312 237.309 69.2326 237.88 69.3307 238.481C69.6863 240.247 69.524 242.1 68.8694 243.748C68.4921 244.731 67.9212 245.598 67.2024 246.279C66.8128 246.666 66.3492 246.941 65.8496 247.08C65.3501 247.22 64.8292 247.219 64.3298 247.079C63.3542 246.718 62.5329 245.943 62.0302 244.91C61.5736 243.985 61.2518 242.979 61.0776 241.932C60.8915 241.058 60.8615 240.149 60.9895 239.261C61.1174 238.373 61.4007 237.525 61.8218 236.768C62.1241 236.267 62.5092 235.84 62.955 235.512C63.4008 235.184 63.8984 234.961 64.4191 234.857C64.7003 234.809 64.9862 234.809 65.2674 234.857C65.4535 234.9 65.5502 234.934 65.5502 234.952C65.1793 234.937 64.8081 234.963 64.4414 235.029C63.4609 235.294 62.6043 235.98 62.0451 236.949C61.6612 237.681 61.4087 238.495 61.3025 239.342C61.1964 240.189 61.2389 241.053 61.4274 241.881C61.6041 242.876 61.9182 243.832 62.3576 244.712C62.8114 245.646 63.5529 246.346 64.4339 246.675C64.8738 246.8 65.333 246.8 65.7732 246.678C66.2135 246.555 66.6218 246.312 66.9642 245.969C67.6416 245.336 68.1819 244.528 68.5419 243.611C69.1843 242.045 69.3672 240.28 69.0628 238.584C68.9025 237.439 68.3701 236.407 67.5745 235.701C67.2538 235.462 66.8982 235.293 66.5251 235.201Z" fill="#263238"/>
<path d="M69.301 249.034C69.2489 249.034 69.167 248.758 68.9065 248.414C68.5687 247.971 68.1305 247.646 67.6414 247.476C67.1316 247.312 66.6072 247.217 66.0786 247.192C65.6619 247.192 65.4014 247.114 65.394 247.054C65.3865 246.994 65.647 246.925 66.0712 246.873C66.6361 246.803 67.2075 246.862 67.753 247.045C68.3215 247.235 68.8109 247.657 69.1298 248.233C69.3679 248.681 69.3456 249.025 69.301 249.034Z" fill="#263238"/>
<path d="M69.8891 233.712C69.8891 233.712 69.7775 234.013 69.4277 234.332C68.9674 234.739 68.4286 235.011 67.8575 235.124C67.2903 235.245 66.7063 235.21 66.1532 235.02C65.729 234.857 65.5058 234.668 65.5281 234.616C66.2668 234.748 67.017 234.772 67.7607 234.685C68.5021 234.463 69.217 234.137 69.8891 233.712Z" fill="#263238"/>
</svg>
