<svg width="24" height="25" viewBox="0 0 24 25" fill="none" xmlns="http://www.w3.org/2000/svg">
<path d="M8 8.64697V16.647M8 8.64697H16M8 8.64697H6C5.60444 8.64697 5.21776 8.52968 4.88886 8.30991C4.55996 8.09015 4.30362 7.77779 4.15224 7.41234C4.00087 7.04689 3.96126 6.64476 4.03843 6.25679C4.1156 5.86883 4.30608 5.51247 4.58579 5.23276C4.86549 4.95306 5.22186 4.76257 5.60982 4.6854C5.99778 4.60823 6.39992 4.64784 6.76537 4.79921C7.13082 4.95059 7.44318 5.20694 7.66294 5.53583C7.8827 5.86473 8 6.25141 8 6.64697V8.64697ZM8 16.647H16M8 16.647H6C5.60444 16.647 5.21776 16.7643 4.88886 16.984C4.55996 17.2038 4.30362 17.5162 4.15224 17.8816C4.00087 18.2471 3.96126 18.6492 4.03843 19.0372C4.1156 19.4251 4.30608 19.7815 4.58579 20.0612C4.86549 20.3409 5.22186 20.5314 5.60982 20.6085C5.99778 20.6857 6.39992 20.6461 6.76537 20.4947C7.13082 20.3434 7.44318 20.087 7.66294 19.7581C7.8827 19.4292 8 19.0425 8 18.647V16.647ZM16 8.64697V16.647M16 8.64697H18C18.3956 8.64697 18.7822 8.52968 19.1111 8.30991C19.44 8.09015 19.6964 7.77779 19.8478 7.41234C19.9991 7.04689 20.0387 6.64476 19.9616 6.25679C19.8844 5.86883 19.6939 5.51247 19.4142 5.23276C19.1345 4.95306 18.7781 4.76257 18.3902 4.6854C18.0022 4.60823 17.6001 4.64784 17.2346 4.79921C16.8692 4.95059 16.5568 5.20694 16.3371 5.53583C16.1173 5.86473 16 6.25141 16 6.64697V8.64697ZM16 16.647H18C18.3956 16.647 18.7822 16.7643 19.1111 16.984C19.44 17.2038 19.6964 17.5162 19.8478 17.8816C19.9991 18.2471 20.0387 18.6492 19.9616 19.0372C19.8844 19.4251 19.6939 19.7815 19.4142 20.0612C19.1345 20.3409 18.7781 20.5314 18.3902 20.6085C18.0022 20.6857 17.6001 20.6461 17.2346 20.4947C16.8692 20.3434 16.5568 20.087 16.3371 19.7581C16.1173 19.4292 16 19.0425 16 18.647V16.647Z" stroke="black" stroke-width="2" stroke-linecap="round" stroke-linejoin="round"/>
</svg>
