<svg width="24" height="25" viewBox="0 0 24 25" fill="none" xmlns="http://www.w3.org/2000/svg">
<path d="M17.5 12.647C18.9587 12.647 20.3576 13.2264 21.3891 14.2579C22.4205 15.2893 23 16.6883 23 18.147C23 19.6057 22.4205 21.0046 21.3891 22.0361C20.3576 23.0675 18.9587 23.647 17.5 23.647C16.0413 23.647 14.6424 23.0675 13.6109 22.0361C12.5795 21.0046 12 19.6057 12 18.147C12 16.6883 12.5795 15.2893 13.6109 14.2579C14.6424 13.2264 16.0413 12.647 17.5 12.647ZM17.5 14.647L17.41 14.654C17.3101 14.6722 17.2181 14.7205 17.1463 14.7923C17.0745 14.8641 17.0263 14.9561 17.008 15.056L17 15.147V17.647H14.498L14.408 17.655C14.3081 17.6732 14.2161 17.7215 14.1443 17.7933C14.0725 17.8651 14.0243 17.9571 14.006 18.057L13.998 18.147L14.006 18.237C14.0243 18.3369 14.0725 18.4289 14.1443 18.5007C14.2161 18.5725 14.3081 18.6207 14.408 18.639L14.498 18.647H17V21.15L17.008 21.24C17.0263 21.3399 17.0745 21.4319 17.1463 21.5037C17.2181 21.5755 17.3101 21.6237 17.41 21.642L17.5 21.65L17.59 21.642C17.6899 21.6237 17.7819 21.5755 17.8537 21.5037C17.9255 21.4319 17.9737 21.3399 17.992 21.24L18 21.15V18.647L20.504 18.648L20.594 18.64C20.6939 18.6217 20.7859 18.5735 20.8577 18.5017C20.9295 18.4299 20.9777 18.3379 20.996 18.238L21.004 18.148L20.996 18.058C20.9777 17.9579 20.9293 17.8659 20.8573 17.794C20.7853 17.7222 20.6931 17.674 20.593 17.656L20.503 17.648H18V15.148L17.992 15.058C17.9739 14.9579 17.9258 14.8657 17.8539 14.7937C17.7821 14.7217 17.69 14.6733 17.59 14.655L17.5 14.647ZM14.254 10.647C14.6499 10.647 15.0387 10.7516 15.3813 10.95C15.7238 11.1484 16.0079 11.4336 16.205 11.777C15.6797 11.8824 15.1697 12.0534 14.687 12.286C14.5608 12.1953 14.4093 12.1467 14.254 12.147H9.752C9.55309 12.147 9.36232 12.226 9.22167 12.3666C9.08102 12.5073 9.002 12.6981 9.002 12.897V17.146C9.002 18.556 9.976 19.74 11.288 20.061C11.4592 20.6211 11.7065 21.1551 12.023 21.648L12.003 21.647C11.4119 21.6471 10.8265 21.5308 10.2804 21.3046C9.73424 21.0785 9.238 20.7469 8.82002 20.329C8.40204 19.911 8.0705 19.4147 7.84435 18.8686C7.6182 18.3224 7.50187 17.7371 7.502 17.146V12.897C7.502 12.3002 7.73905 11.7279 8.16101 11.306C8.58297 10.884 9.15526 10.647 9.752 10.647H14.254ZM7.406 10.647C7.0044 11.0649 6.72226 11.5829 6.589 12.147H4.25C4.05109 12.147 3.86032 12.226 3.71967 12.3666C3.57902 12.5073 3.5 12.6981 3.5 12.897V15.646C3.49974 16.0239 3.58519 16.397 3.7499 16.7372C3.91461 17.0773 4.1543 17.3757 4.45095 17.6099C4.7476 17.8441 5.09349 18.008 5.4626 18.0892C5.83171 18.1705 6.21444 18.167 6.582 18.079C6.667 18.583 6.822 19.064 7.035 19.511C6.70433 19.601 6.35933 19.6463 6 19.647C5.47463 19.647 4.9544 19.5435 4.46904 19.3424C3.98367 19.1413 3.54267 18.8466 3.17122 18.475C2.79977 18.1035 2.50516 17.6624 2.3042 17.177C2.10324 16.6916 1.99987 16.1713 2 15.646V12.897C1.99993 12.3268 2.2163 11.778 2.60537 11.3612C2.99444 10.9445 3.52721 10.691 4.096 10.652L4.25 10.647H7.406ZM19.75 10.647C20.3467 10.647 20.919 10.884 21.341 11.306C21.7629 11.7279 22 12.3002 22 12.897V13.457C20.7909 12.2938 19.1778 11.645 17.5 11.647L17.255 11.652C17.102 11.2787 16.8797 10.9377 16.6 10.647H19.75ZM18.5 4.64697C19.163 4.64697 19.7989 4.91036 20.2678 5.37921C20.7366 5.84805 21 6.48393 21 7.14697C21 7.81001 20.7366 8.4459 20.2678 8.91474C19.7989 9.38358 19.163 9.64697 18.5 9.64697C17.837 9.64697 17.2011 9.38358 16.7322 8.91474C16.2634 8.4459 16 7.81001 16 7.14697C16 6.48393 16.2634 5.84805 16.7322 5.37921C17.2011 4.91036 17.837 4.64697 18.5 4.64697ZM12 3.64697C12.7956 3.64697 13.5587 3.96304 14.1213 4.52565C14.6839 5.08826 15 5.85132 15 6.64697C15 7.44262 14.6839 8.20568 14.1213 8.76829C13.5587 9.3309 12.7956 9.64697 12 9.64697C11.2044 9.64697 10.4413 9.3309 9.87868 8.76829C9.31607 8.20568 9 7.44262 9 6.64697C9 5.85132 9.31607 5.08826 9.87868 4.52565C10.4413 3.96304 11.2044 3.64697 12 3.64697ZM5.5 4.64697C6.16304 4.64697 6.79893 4.91036 7.26777 5.37921C7.73661 5.84805 8 6.48393 8 7.14697C8 7.81001 7.73661 8.4459 7.26777 8.91474C6.79893 9.38358 6.16304 9.64697 5.5 9.64697C4.83696 9.64697 4.20107 9.38358 3.73223 8.91474C3.26339 8.4459 3 7.81001 3 7.14697C3 6.48393 3.26339 5.84805 3.73223 5.37921C4.20107 4.91036 4.83696 4.64697 5.5 4.64697ZM18.5 6.14697C18.2348 6.14697 17.9804 6.25233 17.7929 6.43987C17.6054 6.6274 17.5 6.88176 17.5 7.14697C17.5 7.41219 17.6054 7.66654 17.7929 7.85408C17.9804 8.04162 18.2348 8.14697 18.5 8.14697C18.7652 8.14697 19.0196 8.04162 19.2071 7.85408C19.3946 7.66654 19.5 7.41219 19.5 7.14697C19.5 6.88176 19.3946 6.6274 19.2071 6.43987C19.0196 6.25233 18.7652 6.14697 18.5 6.14697ZM12 5.14697C11.6022 5.14697 11.2206 5.30501 10.9393 5.58631C10.658 5.86762 10.5 6.24915 10.5 6.64697C10.5 7.0448 10.658 7.42633 10.9393 7.70763C11.2206 7.98894 11.6022 8.14697 12 8.14697C12.3978 8.14697 12.7794 7.98894 13.0607 7.70763C13.342 7.42633 13.5 7.0448 13.5 6.64697C13.5 6.24915 13.342 5.86762 13.0607 5.58631C12.7794 5.30501 12.3978 5.14697 12 5.14697ZM5.5 6.14697C5.23478 6.14697 4.98043 6.25233 4.79289 6.43987C4.60536 6.6274 4.5 6.88176 4.5 7.14697C4.5 7.41219 4.60536 7.66654 4.79289 7.85408C4.98043 8.04162 5.23478 8.14697 5.5 8.14697C5.76522 8.14697 6.01957 8.04162 6.20711 7.85408C6.39464 7.66654 6.5 7.41219 6.5 7.14697C6.5 6.88176 6.39464 6.6274 6.20711 6.43987C6.01957 6.25233 5.76522 6.14697 5.5 6.14697Z" fill="black"/>
</svg>
