<svg width="45" height="45" viewBox="0 0 45 45" fill="none" xmlns="http://www.w3.org/2000/svg">
<rect x="0.435303" y="0.5" width="44" height="44" rx="16" fill="#E5F9FF"/>
<path d="M20.9458 11.25H20.9458C23.3342 11.2501 25.6318 12.0444 27.4111 13.4712C29.189 14.8969 30.324 16.852 30.6262 18.9642L30.6515 19.1404L30.7531 19.2864L33.5803 23.3485L31.1824 24.2854L30.7054 24.4718V24.984V28.5C30.7054 28.9146 30.5257 29.3275 30.18 29.6433C29.8321 29.9611 29.3467 30.15 28.828 30.15H26.2019H25.4522L25.4519 30.8997L25.4509 33.75H15.1274V30.0672C15.1274 28.4346 14.4635 26.9246 13.3058 25.6068C12.163 24.3033 11.4529 22.7392 11.2474 21.0965C11.042 19.4543 11.348 17.7897 12.1354 16.2924C12.9232 14.7942 14.1638 13.5199 15.7231 12.624C17.2827 11.728 19.0934 11.2498 20.9458 11.25ZM20.7555 16.8619L20.7555 16.8618L20.7459 16.8533C20.1675 16.3428 19.4058 16.0699 18.6268 16.0759C17.8479 16.0819 17.0907 16.3667 16.5212 16.8867C15.9495 17.4087 15.6108 18.1299 15.6033 18.8998C15.5958 19.6698 15.9205 20.3972 16.4828 20.9292L16.4827 20.9293L16.4923 20.9381L20.44 24.5453L20.9459 25.0076L21.4518 24.5453L25.395 20.9421C25.6863 20.6838 25.9228 20.3717 26.0873 20.0217C26.2529 19.6693 26.3413 19.2874 26.3449 18.899C26.3485 18.5105 26.2673 18.1271 26.1081 17.7719C25.949 17.4169 25.7162 17.0991 25.4271 16.8351C25.1381 16.5712 24.7981 16.3658 24.4286 16.2278C24.0591 16.0898 23.6653 16.0211 23.2695 16.0243C22.8738 16.0275 22.4812 16.1026 22.1142 16.2467C21.7493 16.39 21.4149 16.5994 21.1318 16.866L20.9459 17.0358L20.7555 16.8619Z" stroke="#239EC2" stroke-width="1.5"/>
</svg>
