<svg width="45" height="45" viewBox="0 0 45 45" fill="none" xmlns="http://www.w3.org/2000/svg">
<rect x="0.435303" y="0.5" width="44" height="44" rx="16" fill="#E5F9FF"/>
<path d="M29.6912 18.8096H27.4586H29.6912ZM27.4586 18.8096H25.2261H27.4586ZM27.4586 18.8096V16.3484V18.8096ZM27.4586 18.8096V21.2708V18.8096Z" fill="#239EC2"/>
<path d="M29.6912 18.8096H27.4586M27.4586 18.8096H25.2261M27.4586 18.8096V16.3484M27.4586 18.8096V21.2708" stroke="#239EC2" stroke-width="1.5" stroke-linecap="round"/>
<path d="M22.4353 14.5936L21.8236 15.2237C21.9019 15.3161 21.9966 15.3898 22.1019 15.4401C22.2071 15.4905 22.3206 15.5165 22.4353 15.5165C22.55 15.5165 22.6635 15.4905 22.7688 15.4401C22.874 15.3898 22.9687 15.3161 23.047 15.2237L22.4353 14.5936ZM12.0003 24.5714C12.0556 24.6787 12.1297 24.7727 12.2185 24.8478C12.3072 24.923 12.4087 24.9778 12.517 25.0089C12.6253 25.0401 12.7381 25.047 12.8489 25.0292C12.9596 25.0115 13.066 24.9695 13.1617 24.9056C13.2575 24.8418 13.3407 24.7574 13.4063 24.6575C13.472 24.5576 13.5188 24.4443 13.5441 24.3241C13.5693 24.2039 13.5725 24.0794 13.5533 23.9578C13.5341 23.8363 13.4931 23.7202 13.4325 23.6165L12.0003 24.5714ZM16.3371 27.6344C16.2614 27.543 16.1699 27.4693 16.0679 27.4176C15.9659 27.366 15.8555 27.3375 15.7433 27.3338C15.6311 27.3302 15.5193 27.3514 15.4147 27.3963C15.3101 27.4412 15.2148 27.5089 15.1344 27.5952C15.054 27.6815 14.9901 27.7848 14.9467 27.8989C14.9032 28.013 14.881 28.1356 14.8813 28.2593C14.8817 28.383 14.9046 28.5055 14.9487 28.6192C14.9928 28.733 15.0573 28.8359 15.1382 28.9216L16.3371 27.6344ZM12.1097 19.201C12.1097 15.6261 13.5252 13.4171 15.2755 12.6603C17.0225 11.906 19.466 12.445 21.8236 15.2237L23.047 13.9635C20.3814 10.8206 17.2435 9.82868 14.6649 10.9412C12.0896 12.0536 10.4353 15.108 10.4353 19.201H12.1097ZM26.3534 32.2972C28.02 30.8069 30.016 28.8096 31.6033 26.5785C33.1739 24.3708 34.4353 21.805 34.4353 19.1986H32.7609C32.7609 21.1823 31.7786 23.3383 30.285 25.439C28.807 27.5175 26.9183 29.4163 25.2997 30.8635L26.3534 32.2972ZM34.4353 19.1986C34.4353 15.1068 32.781 12.0524 30.2046 10.9412C27.626 9.82745 24.4893 10.8181 21.8236 13.9623L23.047 15.2237C25.4046 12.445 27.8481 11.9047 29.5951 12.6591C31.3454 13.4147 32.7609 15.6249 32.7609 19.1986H34.4353ZM18.5172 32.2984C19.9348 33.5684 20.9194 34.5 22.4353 34.5V32.6541C21.6282 32.6541 21.1259 32.2554 19.5709 30.8648L18.5172 32.2984ZM25.2997 30.8635C23.7447 32.2541 23.2424 32.6541 22.4353 32.6541V34.5C23.9512 34.5 24.9369 33.5684 26.3546 32.2984L25.2997 30.8635ZM13.4336 23.6165C12.5975 22.0954 12.1097 20.6002 12.1097 19.201H10.4353C10.4353 21.0617 11.0783 22.8929 12.0003 24.5714L13.4336 23.6165ZM19.5709 30.8648C18.4375 29.8575 17.3577 28.7789 16.3371 27.6344L15.1382 28.9216C16.2042 30.1181 17.3331 31.2456 18.5172 32.2984L19.5709 30.8648Z" fill="#239EC2"/>
</svg>
