<svg width="45" height="45" viewBox="0 0 45 45" fill="none" xmlns="http://www.w3.org/2000/svg">
<rect x="0.435303" y="0.5" width="44" height="44" rx="16" fill="#E5F9FF"/>
<path d="M29.9945 12.7338C29.9945 13.3263 29.7163 13.8945 29.2211 14.3134C28.7259 14.7323 28.0543 14.9677 27.354 14.9677C26.6537 14.9677 25.9821 14.7323 25.4869 14.3134C24.9917 13.8945 24.7136 13.3263 24.7136 12.7338C24.7136 12.1414 24.9917 11.5732 25.4869 11.1543C25.9821 10.7353 26.6537 10.5 27.354 10.5C28.0543 10.5 28.7259 10.7353 29.2211 11.1543C29.7163 11.5732 29.9945 12.1414 29.9945 12.7338ZM13.0082 34.2069C13.7174 33.6653 20.4844 25.7983 20.4008 25.6131C20.3426 25.4845 16.9732 24.0869 16.9442 24.1257L11.0995 31.8432C9.12384 34.4512 12.0975 34.9028 13.0082 34.2075V34.2069ZM21.6519 31.1761L27.9709 24.5491C28.5062 23.9866 27.5664 23.2371 26.8863 22.9663C25.0954 22.2525 20.0233 20.6427 19.5672 20.6427C18.8041 20.6427 18.0098 21.343 18.0098 22.015C18.0098 22.8642 18.5037 23.2039 20.9798 24.0593C22.2295 24.4906 23.2813 24.89 23.2522 24.9294L19.2347 30.4266C18.5684 31.338 20.819 32.0499 21.6519 31.1761ZM15.6501 21.1073C16.0342 20.8107 17.1922 19.879 18.2222 19.0359C19.2769 18.1732 20.1956 17.5356 20.3244 17.5775C20.4502 17.6181 22.2411 18.4655 24.3048 19.4605C28.1622 21.3208 29.0634 21.6094 29.8738 21.2421C30.084 21.1473 31.1962 20.0728 32.3455 18.8544C34.1094 16.9855 34.4353 16.5603 34.4353 16.1283C34.4353 15.46 33.9247 15.0249 33.1405 15.0249C32.6444 15.0249 32.224 15.2513 30.6499 16.3664C29.6083 17.1042 28.659 17.743 28.5404 17.7861C28.3127 17.8679 28.1273 17.7842 24.2124 15.8304C21.366 14.4101 20.6088 14.1892 19.4115 14.4323C18.3997 14.6378 17.7545 15.175 15.0573 18.0556C14.1764 19.0587 12.5914 20.1233 13.4221 21.4137C14.1407 21.943 14.6565 21.8722 15.6501 21.1073Z" stroke="#239EC2" stroke-width="1.5" stroke-linecap="round" stroke-linejoin="round"/>
</svg>
