<svg width="45" height="45" viewBox="0 0 45 45" fill="none" xmlns="http://www.w3.org/2000/svg">
<rect x="0.435303" y="0.5" width="44" height="44" rx="16" fill="#E5F9FF"/>
<path d="M32.9712 26.82C33.4338 26.4906 33.8021 26.094 34.0538 25.6544C34.3055 25.2149 34.4353 24.7415 34.4353 24.2631C34.4353 23.7847 34.3055 23.3113 34.0538 22.8717C33.8021 22.4321 33.4338 22.0356 32.9712 21.7062C32.0244 21.0322 30.7688 20.6565 29.4634 20.6565C28.1579 20.6565 26.9023 21.0322 25.9555 21.7062L22.4353 24.3462L18.9151 21.7062C17.9683 21.0322 16.7127 20.6565 15.4073 20.6565C14.1018 20.6565 12.8462 21.0322 11.8994 21.7062C11.4368 22.0356 11.0685 22.4321 10.8168 22.8717C10.5651 23.3113 10.4353 23.7847 10.4353 24.2631C10.4353 24.7415 10.5651 25.2149 10.8168 25.6544C11.0685 26.094 11.4368 26.4906 11.8994 26.82L22.4353 34.5L32.9712 26.82ZM22.4353 17.8846C23.7411 17.8846 24.9933 17.4956 25.9166 16.8032C26.8399 16.1107 27.3586 15.1716 27.3586 14.1923C27.3586 13.213 26.8399 12.2739 25.9166 11.5815C24.9933 10.889 23.7411 10.5 22.4353 10.5C21.1296 10.5 19.8773 10.889 18.954 11.5815C18.0307 12.2739 17.512 13.213 17.512 14.1923C17.512 15.1716 18.0307 16.1107 18.954 16.8032C19.8773 17.4956 21.1296 17.8846 22.4353 17.8846Z" stroke="#239EC2" stroke-width="1.5" stroke-linecap="round" stroke-linejoin="round"/>
</svg>
