<svg width="45" height="45" viewBox="0 0 45 45" fill="none" xmlns="http://www.w3.org/2000/svg">
<rect x="0.435303" y="0.5" width="44" height="44" rx="16" fill="#E5F9FF"/>
<path d="M22.4353 10.5C23.4042 11.7023 24.2922 12.8831 25.0993 14.0426C25.9064 15.202 26.6371 16.34 27.2913 17.4567L34.4353 11.9577V22.2042C34.4353 23.901 34.1197 25.4977 33.4886 26.9941C32.8575 28.4905 32.0011 29.7916 30.9193 30.8973C29.8375 32.003 28.5677 32.8801 27.11 33.5286C25.6522 34.1771 24.094 34.5009 22.4353 34.5C20.7766 34.4991 19.2184 34.1758 17.7606 33.53C16.3029 32.8842 15.0331 32.0067 13.9513 30.8973C12.8695 29.788 12.0135 28.4869 11.3833 26.9941C10.7531 25.5013 10.4371 23.9047 10.4353 22.2042V11.9577L17.5793 17.4567C18.2335 16.3619 18.9642 15.2293 19.7713 14.0589C20.5784 12.8895 21.4664 11.7032 22.4353 10.5ZM11.7686 14.6901V22.2042C11.7686 23.942 12.1442 25.5391 12.8953 26.9955C13.6464 28.4518 14.6544 29.6486 15.9193 30.5858C15.4651 30.0075 15.1042 29.3563 14.8366 28.6322C14.5691 27.9081 14.4353 27.1316 14.4353 26.3028C14.4353 25.2672 14.6411 24.1046 15.0526 22.8149C15.4633 21.5252 16.0753 20.1308 16.8886 18.6316L11.7686 14.6901ZM22.4353 12.6408C20.3153 15.2548 18.6744 17.7832 17.5126 20.226C16.3509 22.6687 15.7695 24.6943 15.7686 26.3028C15.7686 28.1927 16.4189 29.8039 17.7193 31.1364C19.0197 32.4689 20.5917 33.1347 22.4353 33.1338C24.2789 33.1329 25.8513 32.4666 27.1526 31.1351C28.454 29.8035 29.1037 28.1927 29.102 26.3028C29.102 24.6953 28.5206 22.6669 27.358 20.2178C26.1962 17.7695 24.5553 15.2439 22.4353 12.6408ZM33.102 14.6901L27.982 18.6234C28.7953 20.1226 29.4077 21.517 29.8193 22.8067C30.2309 24.0964 30.4362 25.2618 30.4353 26.3028C30.4353 27.1316 30.3015 27.9081 30.034 28.6322C29.7664 29.3563 29.4055 30.0075 28.9513 30.5858C30.2162 29.6477 31.2242 28.4509 31.9753 26.9955C32.7264 25.5382 33.102 23.9411 33.102 22.2042V14.6901Z" fill="#239EC2"/>
</svg>
