<svg width="30" height="31" viewBox="0 0 30 31" fill="none" xmlns="http://www.w3.org/2000/svg">
<g filter="url(#filter0_d_169_3261)">
<path d="M17 17.647C20.771 17.647 22.657 17.647 23.828 16.475C25 15.304 25 13.418 25 9.64697C25 5.87597 25 3.98997 23.828 2.81897C22.657 1.64697 20.771 1.64697 17 1.64697H13C9.229 1.64697 7.343 1.64697 6.172 2.81897C5 3.98997 5 5.87597 5 9.64697C5 13.418 5 15.304 6.172 16.475C6.825 17.129 7.7 17.418 9 17.545" stroke="black" stroke-width="2" stroke-linecap="round" stroke-linejoin="round"/>
<path d="M18.8463 19.147C17.6103 19.147 16.2483 19.647 15.0053 20.292C13.0073 21.329 12.0083 21.848 11.5163 21.517C11.0243 21.187 11.1173 20.162 11.3043 18.113L11.3463 17.647" stroke="black" stroke-width="2" stroke-linecap="round"/>
<path d="M12 10.2967L14.25 12.4591L18 8.13428" stroke="black" stroke-width="2" stroke-linecap="round" stroke-linejoin="round"/>
</g>
<defs>
<filter id="filter0_d_169_3261" x="0" y="0.646973" width="30" height="29.9692" filterUnits="userSpaceOnUse" color-interpolation-filters="sRGB">
<feFlood flood-opacity="0" result="BackgroundImageFix"/>
<feColorMatrix in="SourceAlpha" type="matrix" values="0 0 0 0 0 0 0 0 0 0 0 0 0 0 0 0 0 0 127 0" result="hardAlpha"/>
<feOffset dy="4"/>
<feGaussianBlur stdDeviation="2"/>
<feComposite in2="hardAlpha" operator="out"/>
<feColorMatrix type="matrix" values="0 0 0 0 0 0 0 0 0 0 0 0 0 0 0 0 0 0 0.25 0"/>
<feBlend mode="normal" in2="BackgroundImageFix" result="effect1_dropShadow_169_3261"/>
<feBlend mode="normal" in="SourceGraphic" in2="effect1_dropShadow_169_3261" result="shape"/>
</filter>
</defs>
</svg>
