<svg width="24" height="25" viewBox="0 0 24 25" fill="none" xmlns="http://www.w3.org/2000/svg">
<rect width="24" height="24" transform="translate(0 0.646973)" fill="white"/>
<path fill-rule="evenodd" clip-rule="evenodd" d="M16.917 7.55205C16.917 9.28255 16.487 11.5396 15.8255 11.1971C15.555 12.0804 14.9871 12.8429 14.2182 13.3551C13.4494 13.8673 12.527 14.0976 11.6076 14.0069C10.6882 13.9162 9.82854 13.5101 9.17458 12.8576C8.52062 12.205 8.11267 11.3462 8.01999 10.4271C7.36349 9.27855 6.50249 6.97705 8.71599 5.18305C8.75599 5.17005 8.77999 5.06205 8.81599 4.90305C8.95299 4.30155 9.25649 2.96455 11.171 3.22005C12.6475 3.41655 16.917 4.17855 16.917 7.55205ZM15.014 8.64355C15.014 8.64355 14.788 9.30455 15 10.0411C14.9972 10.8263 14.6867 11.5793 14.135 12.1381C13.5833 12.697 12.8345 13.0172 12.0493 13.0301C11.2641 13.043 10.5051 12.7475 9.93539 12.2071C9.36565 11.6666 9.03053 10.9243 9.00199 10.1396C9.07449 9.86455 9.07449 9.39905 9.07399 8.88155C9.07349 7.94805 9.07249 6.84655 9.49999 6.39755C12.4945 8.39205 15.014 8.64355 15.014 8.64355Z" fill="black"/>
<path d="M6.5 18.6468C6.5 18.1058 6.7865 17.6318 7.2165 17.3678C7.20016 17.3056 7.18483 17.2431 7.1705 17.1803C7.09492 16.8387 7.03569 16.4936 6.993 16.1463C6.95036 15.8135 6.92449 15.4788 6.9155 15.1433C4.805 15.9718 3 17.4158 3 18.9318V21.6468H21V18.9318C21 17.4798 19.345 16.0943 17.351 15.2518V15.2658C17.36 15.5708 17.343 15.9208 17.31 16.2573C17.28 16.5693 17.2355 16.8803 17.182 17.1468H17.5C17.5928 17.1469 17.6838 17.1728 17.7628 17.2216C17.8417 17.2704 17.9055 17.3403 17.947 17.4233L18.447 18.4233C18.482 18.4928 18.5 18.5693 18.5 18.6468V19.6468C18.5 19.7794 18.4473 19.9066 18.3536 20.0004C18.2598 20.0942 18.1326 20.1468 18 20.1468H17V19.1468H17.5V18.7648L17.191 18.1468H15.809L15.5 18.7648V19.1468H16V20.1468H15C14.8674 20.1468 14.7402 20.0942 14.6464 20.0004C14.5527 19.9066 14.5 19.7794 14.5 19.6468V18.6468C14.5 18.5693 14.518 18.4928 14.553 18.4233L15.053 17.4233C15.0945 17.3403 15.1583 17.2704 15.2372 17.2216C15.3162 17.1728 15.4072 17.1469 15.5 17.1468H16.1575C16.1685 17.1038 16.1795 17.0562 16.1905 17.0038C16.2405 16.7683 16.285 16.4698 16.315 16.1613C16.345 15.8523 16.359 15.5458 16.3515 15.2938C16.3499 15.1894 16.3417 15.0852 16.327 14.9818C16.316 14.9108 16.305 14.8783 16.303 14.8713C16.3023 14.8697 16.3023 14.8693 16.303 14.8703L16.3045 14.8698C16.0392 14.7875 15.7708 14.7153 15.5 14.6533C15.2485 14.5958 14.9885 14.9418 14.875 15.1583H9L8.957 15.0743C8.851 14.8633 8.7205 14.6028 8.5 14.6533C8.30733 14.697 8.11483 14.7465 7.9225 14.8018C7.91653 14.8895 7.91386 14.9774 7.9145 15.0653C7.9165 15.3418 7.943 15.6803 7.9855 16.0223C8.028 16.3633 8.0855 16.6953 8.1455 16.9573C8.16283 17.033 8.1795 17.1003 8.1955 17.1593C8.48136 17.1969 8.75033 17.3161 8.97021 17.5026C9.1901 17.689 9.35158 17.9349 9.43533 18.2108C9.51907 18.4867 9.52154 18.7809 9.44242 19.0581C9.36331 19.3354 9.20597 19.584 8.98924 19.7741C8.77251 19.9642 8.50557 20.0879 8.22039 20.1303C7.9352 20.1726 7.64385 20.1319 7.38121 20.013C7.11857 19.894 6.89577 19.7019 6.73949 19.4596C6.5832 19.2173 6.50006 18.9351 6.5 18.6468Z" fill="black"/>
<path d="M8.5 18.6471C8.5 18.9341 8.269 19.1546 8 19.1546C7.731 19.1546 7.5 18.9346 7.5 18.6471C7.5 18.3601 7.731 18.1396 8 18.1396C8.269 18.1396 8.5 18.3596 8.5 18.6471Z" fill="black"/>
</svg>
