<svg width="24" height="25" viewBox="0 0 24 25" fill="none" xmlns="http://www.w3.org/2000/svg">
<path d="M22.95 14.7164C22.8712 14.7755 22.7816 14.8185 22.6861 14.8429C22.5907 14.8674 22.4914 14.8728 22.3939 14.8588C22.2964 14.8449 22.2026 14.8119 22.1179 14.7617C22.0331 14.7116 21.9591 14.6452 21.9 14.5664C21.448 13.9587 20.8596 13.4657 20.1822 13.1271C19.5048 12.7884 18.7573 12.6134 18 12.6164C17.8525 12.6164 17.7083 12.5729 17.5854 12.4913C17.4625 12.4098 17.3664 12.2938 17.3091 12.1579C17.2701 12.0657 17.2501 11.9665 17.2501 11.8664C17.2501 11.7662 17.2701 11.6671 17.3091 11.5748C17.3664 11.4389 17.4625 11.323 17.5854 11.2414C17.7083 11.1599 17.8525 11.1164 18 11.1164C18.4208 11.1163 18.8332 10.9983 19.1903 10.7756C19.5474 10.553 19.8349 10.2346 20.0201 9.85679C20.2053 9.47894 20.2809 9.05671 20.2382 8.63806C20.1955 8.21942 20.0362 7.82114 19.7785 7.48846C19.5208 7.15579 19.175 6.90205 18.7803 6.75608C18.3856 6.61011 17.9579 6.57775 17.5457 6.66268C17.1336 6.7476 16.7535 6.94641 16.4487 7.23653C16.1438 7.52664 15.9265 7.89642 15.8213 8.30388C15.7966 8.39929 15.7535 8.48892 15.6942 8.56765C15.6349 8.64638 15.5607 8.71266 15.4759 8.76272C15.391 8.81277 15.2971 8.84562 15.1995 8.85939C15.1019 8.87315 15.0026 8.86756 14.9072 8.84294C14.8118 8.81832 14.7222 8.77514 14.6434 8.71588C14.5647 8.65662 14.4984 8.58243 14.4484 8.49755C14.3983 8.41267 14.3654 8.31877 14.3517 8.22119C14.3379 8.12362 14.3435 8.02429 14.3681 7.92888C14.5142 7.36386 14.79 6.84072 15.1738 6.40108C15.5576 5.96145 16.0387 5.61745 16.5788 5.39646C17.1189 5.17547 17.7032 5.08359 18.285 5.12813C18.8669 5.17266 19.4304 5.35239 19.9306 5.65301C20.4308 5.95363 20.8539 6.36685 21.1663 6.85977C21.4787 7.3527 21.6717 7.91173 21.7301 8.49239C21.7884 9.07305 21.7104 9.65931 21.5023 10.2045C21.2942 10.7497 20.9617 11.2388 20.5313 11.6329C21.5511 12.0745 22.4376 12.7752 23.1028 13.6654C23.1619 13.7444 23.2048 13.8343 23.2291 13.9299C23.2534 14.0255 23.2586 14.125 23.2445 14.2226C23.2303 14.3202 23.1969 14.4141 23.1464 14.4988C23.0959 14.5836 23.0291 14.6575 22.95 14.7164ZM17.8988 20.4914C17.953 20.5767 17.9895 20.6722 18.0059 20.772C18.0223 20.8718 18.0184 20.9739 17.9943 21.0722C17.9702 21.1704 17.9265 21.2628 17.8658 21.3437C17.8052 21.4246 17.7287 21.4924 17.6412 21.5431C17.5536 21.5937 17.4567 21.6261 17.3563 21.6383C17.2558 21.6505 17.154 21.6422 17.0569 21.614C16.9597 21.5858 16.8693 21.5383 16.791 21.4743C16.7127 21.4102 16.6481 21.331 16.6013 21.2414C16.1288 20.4414 15.4559 19.7784 14.649 19.3178C13.8421 18.8572 12.9291 18.615 12 18.615C11.0709 18.615 10.1579 18.8572 9.35098 19.3178C8.54409 19.7784 7.87121 20.4414 7.39876 21.2414C7.35187 21.331 7.28734 21.4102 7.20904 21.4743C7.13075 21.5383 7.04031 21.5858 6.94316 21.614C6.84601 21.6422 6.74417 21.6505 6.64376 21.6383C6.54334 21.6261 6.44643 21.5937 6.35886 21.5431C6.27129 21.4924 6.19486 21.4246 6.13417 21.3437C6.07348 21.2628 6.02979 21.1704 6.00573 21.0722C5.98166 20.9739 5.97772 20.8718 5.99414 20.772C6.01055 20.6722 6.04699 20.5767 6.10126 20.4914C6.82838 19.242 7.93706 18.2589 9.26438 17.6864C8.5175 17.1145 7.9686 16.323 7.69482 15.4231C7.42104 14.5232 7.43616 13.5601 7.73805 12.6692C8.03994 11.7783 8.61342 11.0044 9.37788 10.4563C10.1423 9.90815 11.0594 9.61337 12 9.61337C12.9407 9.61337 13.8577 9.90815 14.6221 10.4563C15.3866 11.0044 15.9601 11.7783 16.262 12.6692C16.5639 13.5601 16.579 14.5232 16.3052 15.4231C16.0314 16.323 15.4825 17.1145 14.7356 17.6864C16.063 18.2589 17.1716 19.242 17.8988 20.4914ZM12 17.1164C12.5934 17.1164 13.1734 16.9404 13.6667 16.6108C14.1601 16.2811 14.5446 15.8126 14.7716 15.2644C14.9987 14.7162 15.0581 14.113 14.9424 13.5311C14.8266 12.9492 14.5409 12.4146 14.1213 11.9951C13.7018 11.5755 13.1672 11.2898 12.5853 11.174C12.0033 11.0583 11.4001 11.1177 10.852 11.3447C10.3038 11.5718 9.83524 11.9563 9.5056 12.4497C9.17595 12.943 9.00001 13.523 9.00001 14.1164C9.00001 14.912 9.31608 15.6751 9.87869 16.2377C10.4413 16.8003 11.2044 17.1164 12 17.1164ZM6.75001 11.8664C6.75001 11.6675 6.67099 11.4767 6.53034 11.336C6.38968 11.1954 6.19892 11.1164 6.00001 11.1164C5.57919 11.1163 5.16682 10.9983 4.80973 10.7756C4.45264 10.553 4.16515 10.2346 3.97991 9.85679C3.79467 9.47894 3.71912 9.05671 3.76182 8.63806C3.80452 8.21942 3.96377 7.82114 4.22148 7.48846C4.47919 7.15579 4.82504 6.90205 5.21973 6.75608C5.61441 6.61011 6.04213 6.57775 6.45429 6.66268C6.86645 6.7476 7.24653 6.94641 7.55136 7.23653C7.85619 7.52664 8.07355 7.89642 8.17876 8.30388C8.22848 8.49657 8.35272 8.66162 8.52414 8.76272C8.69556 8.86381 8.90012 8.89267 9.09282 8.84294C9.28551 8.79321 9.45057 8.66897 9.55166 8.49755C9.65275 8.32613 9.68161 8.12157 9.63188 7.92888C9.48586 7.36386 9.20998 6.84072 8.8262 6.40108C8.44242 5.96145 7.96133 5.61745 7.42121 5.39646C6.88109 5.17547 6.29685 5.08359 5.71497 5.12813C5.13309 5.17266 4.56963 5.35239 4.06944 5.65301C3.56924 5.95363 3.14611 6.36685 2.83371 6.85977C2.52132 7.3527 2.32827 7.91173 2.26995 8.49239C2.21162 9.07305 2.28962 9.65931 2.49774 10.2045C2.70585 10.7497 3.03835 11.2388 3.46876 11.6329C2.44996 12.0749 1.56443 12.7756 0.900007 13.6654C0.84085 13.7442 0.797793 13.8339 0.773292 13.9293C0.748792 14.0248 0.743328 14.1241 0.757213 14.2216C0.771098 14.3192 0.804061 14.413 0.854218 14.4978C0.904375 14.5827 0.970745 14.6568 1.04954 14.7159C1.12833 14.7751 1.218 14.8181 1.31344 14.8426C1.40887 14.8671 1.5082 14.8726 1.60574 14.8587C1.70329 14.8448 1.79714 14.8119 1.88195 14.7617C1.96675 14.7115 2.04085 14.6452 2.10001 14.5664C2.55206 13.9587 3.14046 13.4657 3.81784 13.1271C4.49523 12.7884 5.24267 12.6134 6.00001 12.6164C6.19892 12.6164 6.38968 12.5374 6.53034 12.3967C6.67099 12.2561 6.75001 12.0653 6.75001 11.8664Z" fill="black"/>
</svg>
