<svg width="600" height="400" viewBox="0 0 600 400" fill="none" xmlns="http://www.w3.org/2000/svg">
<path d="M302.944 193.24L302.968 193.248L302.96 193.224L302.944 193.232V193.24Z" fill="#F5F5F5"/>
<path d="M303.048 193.432L303.056 193.448L303.048 193.432Z" fill="#F5F5F5"/>
<path d="M303.096 193.328L303.104 193.352L303.12 193.32L303.096 193.328Z" fill="#F5F5F5"/>
<path d="M340.624 115.68L340.792 115.768L401.824 14.24L368.728 14.4C368.728 14.4 348.6 14.248 342.728 14.4L317.456 108.264L317.808 108.32L303.296 192.32L340.624 115.68Z" fill="#F5F5F5"/>
<path d="M568.216 12.216H501.496L360.96 129.512L361.12 129.648L303.256 193.04L570.088 14.4C569.573 13.5854 568.942 12.8497 568.216 12.216Z" fill="#F5F5F5"/>
<path d="M587.728 125.392L304.488 195.2L303.2 193.656L303.912 195.32L303.584 195.4L303.304 195.312L303.464 195.216L303.216 195.28L303.432 194.864L303.176 195.144V195.256L303.032 193.904L302.888 195.128L302.8 195.016L302.848 195.144L302.584 195.056L302.096 194.6L302.592 193.8L301.96 194.496L301.552 194.104L302.568 193.488L301.264 193.84L114.48 17.84H36L232 147.064L300.864 193.936L298.224 194.648L12.272 145.112V190.712L191.2 196.8L190.12 199.2L293.936 195.808L220 215.68C220 215.576 219.952 215.48 219.92 215.376L12.272 298.312V353.04L243.616 229.368L299.008 195.624L300.952 195.568L126.008 387.2H185.352L301.512 195.52L302.824 195.48L279.632 387.2H323.312L303.2 195.6L303.392 195.776L303.192 195.528L304.368 196.328L336.688 272.472L336.52 272.544L409.432 387.2H467.736L357.48 259.8C357.455 259.814 357.433 259.833 357.416 259.856L306.736 197.944L374.08 243.776C374.041 243.823 374.006 243.874 373.976 243.928L576.584 389.44H587.728V340.312L384.856 221.68L384.808 221.816L305.312 196.216L304.608 195.352L587.728 172.368V125.392ZM301.312 195.2L300.096 194.992L301.296 194.256L301.832 194.624L301.312 195.2ZM302.84 195.432H302.752L301.696 195.248L302.008 194.728L302.456 195.04L302.152 194.936L302.832 195.4L302.84 195.432ZM303.192 195.544V195.448H303.592L303.24 195.544H304.04L303.688 195.432H303.992L304.176 195.864L303.192 195.544Z" fill="#F5F5F5"/>
<path d="M269.4 113.96L302.88 192.872L293.008 107.672L281.32 14.24C281.32 14.24 219.2 14.4 222.84 14.4L269.4 113.96Z" fill="#F5F5F5"/>
<path d="M302.816 193.52L302.712 194.16L302.984 193.6L302.96 193.368L302.816 193.52Z" fill="#F5F5F5"/>
<path d="M303.064 193.328L303.08 193.344V193.328H303.064Z" fill="#F5F5F5"/>
<path d="M462.976 125.552C465.104 123.4 580.712 50.704 580.712 50.704L582.672 66.136L462.976 125.552Z" fill="#EBEBEB"/>
<path d="M232.288 83.296L188.112 19.312H172.72L232.288 83.296Z" fill="#EBEBEB"/>
<path d="M22.1519 61.232V79.528L101.392 115.024L22.1519 61.232Z" fill="#EBEBEB"/>
<path d="M40.1118 375.616C42.5118 374.424 102.448 340.464 102.448 340.464L59.7758 382.168L40.1118 375.616Z" fill="#EBEBEB"/>
<path d="M156.488 90.568L149.84 86.976L143.104 90.416L144.472 82.976L139.12 77.64L146.608 76.64L150.032 69.904L153.304 76.72L160.768 77.888L155.296 83.104L156.488 90.568Z" fill="#E0E0E0"/>
<path d="M348.848 51.6L342.2 48.008L335.464 51.448L336.832 44.008L331.48 38.672L338.968 37.672L342.392 30.928L345.664 37.744L353.128 38.92L347.656 44.136L348.848 51.6Z" fill="#E0E0E0"/>
<path d="M165.472 349.52L158.824 345.92L152.088 349.368L153.456 341.928L148.104 336.592L155.592 335.592L159.016 328.848L162.288 335.664L169.752 336.84L164.28 342.056L165.472 349.52Z" fill="#E0E0E0"/>
<path d="M450 346.776L443.344 343.176L436.616 346.616L437.976 339.184L432.624 333.848L440.12 332.848L443.544 326.104L446.808 332.92L454.28 334.096L448.8 339.304L450 346.776Z" fill="#E0E0E0"/>
<path d="M107.56 95.928L104.112 94.064L100.624 95.848L101.336 91.992L98.5601 89.224L102.44 88.704L104.216 85.216L105.912 88.744L109.776 89.352L106.944 92.056L107.56 95.928Z" fill="#E0E0E0"/>
<path d="M201.992 365.672L198.544 363.808L195.056 365.592L195.76 361.736L192.984 358.968L196.872 358.448L198.648 354.96L200.336 358.496L204.208 359.096L201.368 361.8L201.992 365.672Z" fill="#E0E0E0"/>
<path d="M409.456 305.744L406.008 303.88L402.52 305.656L403.232 301.808L400.456 299.04L404.336 298.52L406.112 295.032L407.808 298.56L411.68 299.168L408.84 301.872L409.456 305.744Z" fill="#E0E0E0"/>
<path d="M491.976 94.328L488.528 92.464L485.04 94.248L485.752 90.4L482.976 87.632L486.856 87.112L488.632 83.616L490.328 87.152L494.2 87.76L491.36 90.464L491.976 94.328Z" fill="#E0E0E0"/>
<path d="M574.416 117.192H437.112V308.04H574.416V117.192Z" fill="white"/>
<path d="M574.416 117.192H437.112V186.272H574.416V117.192Z" fill="#455A64"/>
<path d="M550.64 203.2C550.64 203.32 531.76 203.416 508.48 203.416C485.2 203.416 466.32 203.32 466.32 203.2C466.32 203.08 485.192 202.992 508.48 202.992C531.768 202.992 550.64 203.064 550.64 203.2Z" fill="#263238"/>
<path d="M550.64 221.784C550.64 221.896 531.76 221.992 508.48 221.992C485.2 221.992 466.32 221.896 466.32 221.784C466.32 221.672 485.192 221.576 508.48 221.576C531.768 221.576 550.64 221.672 550.64 221.784Z" fill="#263238"/>
<path d="M550.64 240.392C550.64 240.504 531.76 240.6 508.48 240.6C485.2 240.6 466.32 240.504 466.32 240.392C466.32 240.28 485.192 240.176 508.48 240.176C531.768 240.176 550.64 240.272 550.64 240.392Z" fill="#263238"/>
<path d="M550.288 261.84H467.816C459.704 261.84 453.128 268.416 453.128 276.528V278.056C453.128 286.168 459.704 292.744 467.816 292.744H550.288C558.4 292.744 564.976 286.168 564.976 278.056V276.528C564.976 268.416 558.4 261.84 550.288 261.84Z" fill="#455A64"/>
<path d="M478.28 164.408C478.866 164.644 479.364 165.057 479.705 165.589C480.046 166.12 480.213 166.745 480.184 167.376C480.2 168.006 480.031 168.626 479.696 169.16C479.346 169.677 478.854 170.083 478.28 170.328C477.6 170.617 476.866 170.759 476.128 170.744H474.528V173.144H471.944V164H476.12C476.861 163.978 477.598 164.117 478.28 164.408ZM477.176 168.36C477.431 168.095 477.574 167.74 477.574 167.372C477.574 167.003 477.431 166.649 477.176 166.384C476.832 166.124 476.405 165.998 475.976 166.032H474.536V168.704H476C476.42 168.73 476.836 168.608 477.176 168.36Z" fill="white"/>
<path d="M485.432 170.704H484V173.104H481.44V164H485.6C486.339 163.981 487.073 164.123 487.752 164.416C488.169 164.614 488.541 164.897 488.843 165.247C489.145 165.596 489.371 166.004 489.508 166.446C489.644 166.887 489.687 167.352 489.634 167.811C489.581 168.27 489.433 168.713 489.2 169.112C488.874 169.612 488.414 170.012 487.872 170.264L489.84 173.136H487.072L485.432 170.704ZM486.664 166.384C486.321 166.124 485.894 165.998 485.464 166.032H484V168.704H485.44C485.868 168.735 486.293 168.614 486.64 168.36C486.896 168.095 487.038 167.741 487.038 167.372C487.038 167.004 486.896 166.649 486.64 166.384H486.664Z" fill="white"/>
<path d="M498.4 171.136V173.128H491.064V164H498.264V166H493.656V167.536H497.712V169.472H493.656V171.144L498.4 171.136Z" fill="white"/>
<path d="M508.112 173.128V168.328L505.76 172.272H504.616L502.28 168.456V173.168H499.88V164H502.008L505.208 169.272L508.336 164H510.464V173.136L508.112 173.128Z" fill="white"/>
<path d="M512.32 164H514.904V173.136H512.32V164Z" fill="white"/>
<path d="M517.792 172.2C517.399 171.781 517.096 171.286 516.902 170.745C516.708 170.204 516.627 169.629 516.664 169.056V164H519.248V168.984C519.248 170.448 519.824 171.176 520.984 171.176C522.144 171.176 522.704 170.448 522.704 168.984V164H525.248V169.064C525.285 169.637 525.204 170.212 525.01 170.753C524.816 171.294 524.513 171.789 524.12 172.208C523.223 172.928 522.107 173.32 520.956 173.32C519.805 173.32 518.689 172.928 517.792 172.208V172.2Z" fill="white"/>
<path d="M535.248 173.128V168.328L532.904 172.272H531.752L529.416 168.456V173.168H527.016V164H529.144L532.344 169.272L535.472 164H537.6V173.136L535.248 173.128Z" fill="white"/>
<path d="M488.104 280.416C487.415 280.049 486.844 279.494 486.456 278.816C486.058 278.128 485.848 277.347 485.848 276.552C485.848 275.757 486.058 274.976 486.456 274.288C486.851 273.626 487.421 273.086 488.104 272.728C488.843 272.337 489.669 272.142 490.504 272.16C491.188 272.147 491.868 272.281 492.496 272.552C493.079 272.796 493.595 273.178 494 273.664L492.736 274.832C492.478 274.516 492.152 274.262 491.782 274.088C491.412 273.915 491.008 273.828 490.6 273.832C490.108 273.825 489.623 273.946 489.192 274.184C488.786 274.407 488.451 274.74 488.224 275.144C487.993 275.577 487.875 276.061 487.88 276.552C487.873 277.043 487.992 277.528 488.224 277.96C488.448 278.368 488.784 278.704 489.192 278.928C489.623 279.163 490.109 279.282 490.6 279.272C491.009 279.277 491.414 279.188 491.784 279.014C492.154 278.839 492.479 278.583 492.736 278.264L494 279.432C493.595 279.922 493.08 280.309 492.496 280.56C491.86 280.823 491.176 280.953 490.488 280.944C489.661 280.974 488.841 280.792 488.104 280.416Z" fill="white"/>
<path d="M501.072 274.936C501.339 275.225 501.543 275.566 501.672 275.938C501.802 276.31 501.853 276.704 501.824 277.096V280.8H499.928V277.352C499.96 276.94 499.841 276.53 499.592 276.2C499.465 276.069 499.312 275.967 499.142 275.9C498.972 275.834 498.79 275.805 498.608 275.816C498.397 275.805 498.186 275.839 497.989 275.915C497.792 275.991 497.613 276.107 497.464 276.256C497.158 276.625 497.006 277.098 497.04 277.576V280.776H495.144V271.832H497.04V274.984C497.299 274.729 497.61 274.532 497.952 274.408C498.323 274.27 498.716 274.202 499.112 274.208C499.471 274.191 499.83 274.247 500.166 274.372C500.503 274.497 500.811 274.689 501.072 274.936Z" fill="white"/>
<path d="M504.864 280.504C504.334 280.231 503.891 279.815 503.584 279.304C503.28 278.776 503.12 278.177 503.12 277.568C503.12 276.959 503.28 276.36 503.584 275.832C503.892 275.324 504.335 274.911 504.864 274.64C505.439 274.356 506.071 274.208 506.712 274.208C507.353 274.208 507.985 274.356 508.56 274.64C509.086 274.912 509.527 275.325 509.832 275.832C510.136 276.36 510.296 276.959 510.296 277.568C510.296 278.177 510.136 278.776 509.832 279.304C509.528 279.814 509.087 280.23 508.56 280.504C507.984 280.783 507.352 280.928 506.712 280.928C506.072 280.928 505.44 280.783 504.864 280.504ZM507.912 278.904C508.235 278.543 508.402 278.068 508.376 277.584C508.39 277.345 508.356 277.107 508.276 276.881C508.196 276.656 508.073 276.449 507.912 276.272C507.755 276.114 507.567 275.989 507.362 275.904C507.156 275.818 506.935 275.775 506.712 275.775C506.489 275.775 506.268 275.818 506.063 275.904C505.857 275.989 505.67 276.114 505.512 276.272C505.349 276.448 505.223 276.654 505.142 276.88C505.061 277.105 505.026 277.345 505.04 277.584C505.027 277.824 505.062 278.065 505.143 278.292C505.224 278.518 505.349 278.726 505.512 278.904C505.833 279.217 506.264 279.392 506.712 279.392C507.16 279.392 507.591 279.217 507.912 278.904Z" fill="white"/>
<path d="M512.8 280.504C512.271 280.229 511.828 279.814 511.52 279.304C511.221 278.774 511.064 278.176 511.064 277.568C511.064 276.96 511.221 276.362 511.52 275.832C511.828 275.324 512.271 274.911 512.8 274.64C513.374 274.346 514.011 274.198 514.656 274.208C515.296 274.196 515.928 274.345 516.496 274.64C517.025 274.911 517.468 275.324 517.776 275.832C518.075 276.362 518.231 276.96 518.231 277.568C518.231 278.176 518.075 278.774 517.776 279.304C517.467 279.814 517.025 280.229 516.496 280.504C515.926 280.793 515.295 280.938 514.656 280.928C514.012 280.938 513.375 280.793 512.8 280.504ZM515.848 278.904C516.173 278.544 516.343 278.069 516.32 277.584C516.332 277.345 516.297 277.106 516.216 276.881C516.135 276.655 516.01 276.449 515.848 276.272C515.695 276.111 515.509 275.984 515.304 275.898C515.099 275.813 514.878 275.771 514.656 275.776C514.432 275.77 514.21 275.811 514.003 275.897C513.797 275.982 513.61 276.11 513.456 276.272C513.291 276.447 513.164 276.653 513.082 276.879C512.999 277.104 512.963 277.344 512.976 277.584C512.964 277.825 513 278.066 513.083 278.293C513.165 278.519 513.292 278.727 513.456 278.904C513.611 279.065 513.798 279.191 514.004 279.275C514.211 279.359 514.433 279.399 514.656 279.392C514.88 279.397 515.103 279.354 515.31 279.268C515.516 279.181 515.702 279.051 515.856 278.888L515.848 278.904Z" fill="white"/>
<path d="M520.112 280.728C519.673 280.633 519.253 280.462 518.872 280.224L519.504 278.864C519.83 279.071 520.186 279.225 520.56 279.32C520.955 279.436 521.364 279.495 521.776 279.496C522.576 279.496 522.976 279.304 522.976 278.904C522.973 278.811 522.939 278.721 522.88 278.648C522.821 278.576 522.739 278.525 522.648 278.504C522.32 278.399 521.983 278.329 521.64 278.296C521.194 278.234 520.753 278.141 520.32 278.016C519.973 277.915 519.661 277.721 519.416 277.456C519.146 277.141 519.008 276.734 519.032 276.32C519.026 275.925 519.153 275.539 519.392 275.224C519.661 274.88 520.021 274.62 520.432 274.472C520.945 274.288 521.487 274.199 522.032 274.208C522.495 274.207 522.957 274.258 523.408 274.36C523.805 274.441 524.188 274.582 524.544 274.776L523.912 276.128C523.34 275.802 522.691 275.633 522.032 275.64C521.719 275.621 521.406 275.679 521.12 275.808C521.034 275.846 520.96 275.908 520.906 275.985C520.852 276.063 520.821 276.154 520.816 276.248C520.816 276.345 520.849 276.439 520.908 276.516C520.967 276.592 521.05 276.647 521.144 276.672C521.483 276.781 521.831 276.859 522.184 276.904C522.626 276.973 523.064 277.066 523.496 277.184C523.836 277.286 524.142 277.476 524.384 277.736C524.648 278.048 524.782 278.448 524.76 278.856C524.766 279.246 524.639 279.627 524.4 279.936C524.119 280.274 523.751 280.529 523.336 280.672C522.804 280.856 522.243 280.943 521.68 280.928C521.151 280.928 520.624 280.861 520.112 280.728Z" fill="white"/>
<path d="M532.304 278.104H527.368C527.446 278.494 527.672 278.838 528 279.064C528.366 279.308 528.8 279.431 529.24 279.416C529.548 279.418 529.854 279.367 530.144 279.264C530.416 279.154 530.663 278.991 530.872 278.784L531.88 279.872C531.538 280.236 531.12 280.52 530.655 280.703C530.19 280.885 529.69 280.962 529.192 280.928C528.515 280.94 527.844 280.795 527.232 280.504C526.69 280.236 526.235 279.82 525.92 279.304C525.621 278.776 525.464 278.179 525.464 277.572C525.464 276.965 525.621 276.368 525.92 275.84C526.218 275.333 526.65 274.918 527.168 274.64C527.712 274.364 528.314 274.22 528.924 274.22C529.534 274.22 530.136 274.364 530.68 274.64C531.192 274.911 531.616 275.321 531.904 275.824C532.206 276.372 532.358 276.99 532.344 277.616C532.344 277.616 532.336 277.784 532.304 278.104ZM527.88 276C527.581 276.253 527.389 276.611 527.344 277H530.544C530.497 276.614 530.305 276.259 530.008 276.008C529.71 275.761 529.331 275.63 528.944 275.64C528.557 275.627 528.179 275.755 527.88 276Z" fill="white"/>
<path d="M457.744 206.648C457.45 206.651 457.165 206.546 456.944 206.352L454.592 204.28C454.353 204.068 454.209 203.77 454.19 203.451C454.171 203.132 454.28 202.819 454.492 202.58C454.704 202.341 455.003 202.197 455.321 202.178C455.64 202.159 455.953 202.268 456.192 202.48L457.656 203.768L460.968 200.104C461.185 199.887 461.477 199.762 461.784 199.753C462.091 199.745 462.389 199.855 462.617 200.06C462.846 200.265 462.987 200.549 463.012 200.855C463.037 201.161 462.944 201.465 462.752 201.704L458.64 206.24C458.528 206.368 458.39 206.47 458.236 206.54C458.081 206.61 457.914 206.647 457.744 206.648Z" fill="#455A64"/>
<path d="M457.744 225.248C457.45 225.251 457.165 225.146 456.944 224.952L454.592 222.888C454.473 222.783 454.377 222.656 454.307 222.513C454.238 222.371 454.197 222.216 454.187 222.058C454.168 221.738 454.276 221.424 454.488 221.184C454.7 220.944 454.999 220.799 455.319 220.779C455.638 220.76 455.952 220.868 456.192 221.08L457.656 222.368L460.968 218.712C461.07 218.585 461.197 218.48 461.341 218.403C461.485 218.327 461.644 218.28 461.806 218.267C461.969 218.254 462.132 218.274 462.287 218.326C462.442 218.378 462.584 218.461 462.705 218.57C462.827 218.679 462.925 218.811 462.993 218.959C463.062 219.107 463.099 219.268 463.104 219.431C463.108 219.594 463.079 219.756 463.019 219.908C462.958 220.059 462.868 220.197 462.752 220.312L458.64 224.848C458.528 224.975 458.391 225.077 458.236 225.146C458.081 225.215 457.914 225.25 457.744 225.248Z" fill="#455A64"/>
<path d="M457.744 243.856C457.45 243.859 457.165 243.754 456.944 243.56L454.592 241.488C454.353 241.276 454.209 240.978 454.19 240.659C454.171 240.34 454.28 240.027 454.492 239.788C454.704 239.549 455.003 239.405 455.321 239.386C455.64 239.367 455.953 239.476 456.192 239.688L457.656 240.976L460.968 237.312C461.185 237.095 461.477 236.97 461.784 236.961C462.091 236.953 462.389 237.063 462.617 237.268C462.846 237.473 462.987 237.757 463.012 238.063C463.037 238.369 462.944 238.673 462.752 238.912L458.64 243.448C458.528 243.576 458.39 243.678 458.236 243.748C458.081 243.818 457.914 243.855 457.744 243.856Z" fill="#455A64"/>
<path d="M513.944 135.648L515.92 139.656L520.352 140.304L517.144 143.424L517.904 147.832L513.944 145.752L509.984 147.832L510.736 143.424L507.536 140.304L511.96 139.656L513.944 135.648Z" fill="white"/>
<path d="M498.384 135.648L500.368 139.656L504.792 140.304L501.592 143.424L502.344 147.832L498.384 145.752L494.424 147.832L495.184 143.424L491.976 140.304L496.408 139.656L498.384 135.648Z" fill="white"/>
<path d="M510.968 152.176L505.76 149.368L500.504 152.056L501.568 146.248L497.384 142.072L503.24 141.288L505.912 136.016L508.472 141.344L514.312 142.264L510.032 146.344L510.968 152.176Z" fill="white"/>
<path d="M496.352 141.72L502.928 140.848L505.928 134.936L508.792 140.912L515.344 141.944L510.544 146.512L511.592 153.064L505.76 149.912L499.856 152.928L501.048 146.408L496.352 141.72ZM513.28 142.584L508.152 141.784L505.904 137.096L503.552 141.728L498.4 142.4L502.072 146.064L501.144 151.2L505.768 148.8L510.336 151.272L509.536 146.144L513.28 142.584Z" fill="#455A64"/>
<path d="M574.4 308.04C574.4 306.36 574.32 230 574.208 117.192L574.4 117.384H437.112L437.32 117.176C437.32 188.584 437.32 254.656 437.32 308.024L437.152 307.856L574.456 308.024L437.152 308.192H436.976V308.024C436.976 254.656 436.976 188.584 436.976 117.176V116.968H437.2H574.488H574.672V117.152C574.488 230 574.4 306.4 574.4 308.04Z" fill="#263238"/>
<path d="M463.448 92.912C463.869 92.1367 464.13 91.2852 464.217 90.4075C464.304 89.5299 464.215 88.6436 463.955 87.8009C463.695 86.9581 463.269 86.1757 462.703 85.4997C462.136 84.8236 461.44 84.2675 460.656 83.864C460.907 81.6971 460.314 79.5168 459 77.7755C457.687 76.0342 455.753 74.8655 453.6 74.512C451.536 74.264 449.448 74.808 447.376 74.648C445.304 74.488 443.512 73.688 441.544 73.328C439.576 72.968 437.312 73.176 435.944 74.648C434.448 76.248 434.672 78.96 435.864 80.84C437.056 82.72 438.976 83.968 440.84 85.168C440.281 85.167 439.741 85.3693 439.32 85.7373C438.899 86.1053 438.626 86.6138 438.552 87.168C438.436 88.3047 438.743 89.4444 439.416 90.368C440.433 91.9259 441.859 93.173 443.539 93.972C445.219 94.7709 447.086 95.0907 448.936 94.896L454.16 94.744C454.887 95.2428 455.707 95.5914 456.57 95.7695C457.434 95.9475 458.324 95.9513 459.189 95.7806C460.054 95.61 460.877 95.2684 461.608 94.7758C462.339 94.2832 462.965 93.6495 463.448 92.912Z" fill="#263238"/>
<path d="M446.944 98.072C446.407 98.1197 445.871 97.9672 445.44 97.6438C445.009 97.3203 444.713 96.8488 444.608 96.32C444.526 95.7855 444.592 95.2387 444.799 94.7393C445.007 94.2399 445.347 93.8071 445.784 93.488C446.676 92.8758 447.754 92.593 448.832 92.688C449.907 92.779 450.963 93.0242 451.968 93.416C453.549 93.9361 455.061 94.6452 456.472 95.528C456.981 95.8261 457.419 96.2331 457.752 96.72C457.917 96.9656 458.014 97.2512 458.031 97.5468C458.047 97.8425 457.984 98.1372 457.848 98.4C457.416 99.104 456.448 99.2 455.624 99.2C452.531 99.2141 449.444 98.9464 446.4 98.4" fill="#239EC2"/>
<path d="M445.224 96.312C444.608 90.456 436.344 85.2 432.776 86.136C431.868 84.4466 430.344 83.1718 428.521 82.5759C426.697 81.9801 424.715 82.109 422.984 82.936L413.256 78.624C411.592 77.888 409.848 77.128 408.04 77.288C406.232 77.448 404.392 78.888 404.456 80.688C400.944 79.288 396.552 82.832 397.192 86.568C396.668 86.6872 396.175 86.9123 395.741 87.2295C395.308 87.5467 394.944 87.9493 394.672 88.4124C394.4 88.8756 394.225 89.3895 394.159 89.9225C394.093 90.4556 394.137 90.9965 394.288 91.512C389.926 92.592 385.781 94.4102 382.032 96.888C380.432 97.92 378.888 99.192 378.376 100.992C377.864 102.792 379.008 105.144 380.88 105.16C380.041 105.44 379.301 105.955 378.748 106.645C378.194 107.334 377.852 108.169 377.76 109.048C376.312 108.04 374.28 109.92 374.504 111.672C374.728 113.424 376.224 114.688 377.664 115.672C379.104 116.656 380.696 117.728 381.272 119.392C381.132 119.558 380.96 119.694 380.767 119.792C380.573 119.89 380.361 119.947 380.144 119.96C376.256 120.152 373.064 123.056 373.016 126.944C373.016 127.304 373.016 127.64 373.016 127.936C373.016 129.712 374.232 132.272 375.016 133.856C376.992 137.856 379.136 138.968 382.336 142.112C379.664 143.712 381.728 153.088 392.072 152.944C402.728 166.256 411.312 174.64 425.032 184.76C426.992 186.208 429.544 187.672 431.704 186.552C432.984 188.152 435.24 188.664 437.264 188.376C439.267 187.964 441.185 187.214 442.936 186.16C444.993 186.91 447.231 187.006 449.344 186.433C451.457 185.86 453.34 184.647 454.736 182.96C456.552 182.897 458.334 182.457 459.97 181.668C461.606 180.878 463.061 179.757 464.24 178.376C468.28 179.792 473.24 176.84 473.928 172.616C476.194 168.037 477.686 163.114 478.344 158.048C480.952 159.208 484.024 156.8 484.648 154.008C485.272 151.216 484.216 148.408 483.176 145.712C484.536 147.392 487.552 146.352 488.392 144.368C489.232 142.384 488.568 140.096 487.728 138.104C486.507 135.183 484.936 132.422 483.048 129.88C484.416 126.336 483.104 120.184 481.296 116.84C474 103.344 467.144 96.256 445.24 96.24" fill="#263238"/>
<path d="M421.648 106.328C422.394 105.131 423.563 104.26 424.923 103.888C426.283 103.515 427.733 103.67 428.984 104.32L458.08 114.4C466.624 118.8 465.48 132.12 460.72 140.472C455.432 149.752 448.616 160.872 443.2 166.824C432.304 178.824 419.296 172.472 419.296 172.472L412.896 182.12L405.496 193.408C402.12 190.272 381.656 168.256 381.656 168.256L421.648 106.328Z" fill="#FFBF9D"/>
<path d="M433.992 151.104C434.048 150.992 435.328 151.544 437.344 152.528C437.848 152.792 438.352 152.992 438.64 152.72C438.999 152.26 439.211 151.702 439.248 151.12C439.552 149.691 439.872 148.189 440.208 146.616C441.624 140.216 442.976 135.12 443.232 135.176C443.488 135.232 442.552 140.456 441.136 146.832C440.776 148.432 440.432 149.888 440.096 151.32C440.021 152.083 439.678 152.794 439.128 153.328C438.951 153.449 438.749 153.527 438.537 153.558C438.325 153.588 438.108 153.57 437.904 153.504C437.598 153.405 437.305 153.268 437.032 153.096C435.096 152 433.928 151.2 433.992 151.104Z" fill="#263238"/>
<path d="M419.296 172.464C419.296 172.464 411.568 168.464 406.168 157.264C406.168 157.264 401.792 168.632 416.232 177.08L419.296 172.464Z" fill="#FF9A6C"/>
<path d="M440.8 125.68C440.288 126.064 438.6 124.616 436.264 123.456C433.928 122.296 431.792 121.736 431.8 121.104C431.8 120.8 432.424 120.528 433.448 120.504C434.781 120.528 436.09 120.855 437.278 121.459C438.465 122.063 439.5 122.93 440.304 123.992C440.848 124.84 440.992 125.496 440.8 125.68Z" fill="#263238"/>
<path d="M458.152 137.808C457.552 138.016 456.552 136.744 455.048 135.72C453.544 134.696 452.048 134.12 452.032 133.52C452.032 133.224 452.52 132.936 453.352 132.912C454.424 132.917 455.468 133.259 456.336 133.888C457.225 134.494 457.904 135.36 458.28 136.368C458.536 137.152 458.4 137.696 458.152 137.808Z" fill="#263238"/>
<path d="M462.048 150.896C463.476 148.804 464.14 146.284 463.928 143.76C463.752 142.4 463.232 141.088 463.2 139.712C463.128 136.744 465.248 134.232 466.312 131.464C466.982 129.665 467.213 127.732 466.986 125.826C466.759 123.92 466.081 122.096 465.008 120.504C463.2 117.88 460.36 116.008 458.96 113.152C457.92 111.04 457.752 108.56 456.56 106.52C454.296 102.52 449.128 101.432 444.56 101.032C442.096 103.112 442.16 106.464 442.16 109.688C442.18 111.3 442.548 112.888 443.239 114.345C443.929 115.801 444.926 117.092 446.16 118.128C448.096 119.728 450.784 120.96 451.168 123.432C451.568 126.032 449.056 128.288 449.024 130.912C448.984 134.672 453.672 136.616 455.192 140.056C456.36 142.704 455.464 145.752 454.952 148.608C454.44 151.464 454.616 154.96 457.048 156.544C458.925 154.858 460.602 152.963 462.048 150.896Z" fill="#263238"/>
<path d="M446.312 109.296C440.442 104.924 433.781 101.732 426.696 99.896C424.592 99.352 422.312 98.936 420.296 99.76C418.528 100.48 417.248 102.032 416.144 103.6C412.704 108.488 410.368 115.84 408.944 121.664L412.384 129.664C417.848 131.928 421.52 122.328 424.216 118.128C426.375 118.558 428.611 118.374 430.67 117.596C432.729 116.818 434.529 115.478 435.864 113.728C437.827 113.826 439.787 113.477 441.596 112.71C443.405 111.942 445.018 110.775 446.312 109.296Z" fill="#263238"/>
<path d="M413.6 127.864C415.424 124.952 412.4 121.952 408.984 121.664C407.112 121.504 404.984 122.344 403.04 125.416C397.824 133.592 407.112 137.152 407.28 136.92C407.448 136.688 411.464 131.264 413.6 127.864Z" fill="#FFBF9D"/>
<path d="M406.752 132.232C406.752 132.176 406.544 132.232 406.232 132.232C405.8 132.162 405.413 131.927 405.152 131.576C404.488 130.704 404.64 128.872 405.536 127.368C405.964 126.654 406.546 126.045 407.24 125.584C407.48 125.378 407.766 125.233 408.074 125.162C408.382 125.091 408.702 125.096 409.008 125.176C409.2 125.236 409.365 125.363 409.473 125.532C409.581 125.702 409.626 125.904 409.6 126.104C409.6 126.4 409.408 126.528 409.448 126.576C409.488 126.624 409.704 126.576 409.856 126.168C409.937 125.935 409.937 125.681 409.856 125.448C409.738 125.134 409.503 124.879 409.2 124.736C408.821 124.591 408.412 124.544 408.011 124.6C407.609 124.656 407.228 124.813 406.904 125.056C406.101 125.541 405.43 126.217 404.952 127.024C403.952 128.704 403.808 130.784 404.776 131.88C404.955 132.084 405.177 132.245 405.426 132.351C405.675 132.458 405.945 132.507 406.216 132.496C406.608 132.416 406.768 132.264 406.752 132.232Z" fill="#FF9A6C"/>
<path d="M403.488 134.904C403.488 134.904 403.488 134.904 403.392 134.992C403.296 135.079 403.188 135.152 403.072 135.208C402.606 135.438 402.072 135.495 401.568 135.368C400.763 135.196 400.003 134.858 399.336 134.376C398.906 134.081 398.504 133.746 398.136 133.376C397.703 132.967 397.339 132.492 397.056 131.968H397.184C396.597 132.557 395.868 132.984 395.066 133.207C394.265 133.429 393.42 133.44 392.613 133.237C391.807 133.035 391.067 132.627 390.466 132.052C389.864 131.477 389.423 130.757 389.184 129.96L389.336 130.032C388.839 130.214 388.29 130.194 387.808 129.976C387.321 129.756 386.907 129.401 386.616 128.952C386.302 128.48 386.153 127.917 386.192 127.352C386.231 126.782 386.416 126.231 386.728 125.752C387.378 124.781 388.35 124.07 389.472 123.744C390.623 123.429 391.807 123.255 393 123.224L392.888 123.416C392.71 122.975 392.626 122.501 392.642 122.026C392.659 121.55 392.775 121.084 392.984 120.656C393.391 119.766 394.05 119.015 394.88 118.496C395.74 117.997 396.688 117.668 397.672 117.528C398.663 117.386 399.663 117.309 400.664 117.296L400.528 117.464C400.465 116.958 400.509 116.444 400.658 115.956C400.806 115.468 401.057 115.017 401.392 114.632C402.062 113.823 402.959 113.232 403.968 112.936C405.904 112.376 407.888 112.72 409.728 113.024L409.568 113.12C409.948 112.148 410.561 111.284 411.352 110.603C412.143 109.922 413.088 109.445 414.106 109.213C415.123 108.981 416.182 109.001 417.19 109.272C418.198 109.544 419.124 110.057 419.888 110.768L419.672 110.816C420.032 110.049 420.563 109.374 421.224 108.844C421.886 108.314 422.66 107.943 423.488 107.76C424.251 107.561 425.048 107.53 425.824 107.668C426.6 107.806 427.337 108.11 427.984 108.56H427.816C428.317 107.904 428.96 107.37 429.698 106.999C430.435 106.627 431.247 106.428 432.072 106.416C432.794 106.382 433.516 106.494 434.193 106.746C434.871 106.997 435.491 107.383 436.016 107.88H435.864C436.424 107.196 437.144 106.66 437.96 106.32C438.666 106.002 439.421 105.807 440.192 105.744C441.424 105.607 442.667 105.889 443.72 106.544L444.024 106.736C444.12 106.808 444.208 106.888 444.288 106.96C444.447 107.091 444.599 107.23 444.744 107.376C444.963 107.611 445.163 107.863 445.344 108.128C445.472 108.344 445.568 108.512 445.648 108.632L445.744 108.808C445.698 108.759 445.658 108.705 445.624 108.648L445.296 108.16C445.111 107.903 444.908 107.66 444.688 107.432C444.545 107.289 444.393 107.155 444.232 107.032L443.968 106.816L443.664 106.632C442.622 106.02 441.408 105.767 440.208 105.912C439.455 105.988 438.72 106.188 438.032 106.504C437.246 106.831 436.556 107.351 436.024 108.016L435.952 108.104L435.88 108.024C435.373 107.549 434.775 107.182 434.122 106.945C433.468 106.709 432.774 106.608 432.08 106.648C431.28 106.669 430.496 106.874 429.789 107.248C429.081 107.621 428.469 108.152 428 108.8L427.928 108.904L427.832 108.832C427.21 108.41 426.504 108.128 425.762 108.005C425.02 107.883 424.261 107.922 423.536 108.12C422.748 108.296 422.011 108.649 421.382 109.154C420.752 109.659 420.247 110.301 419.904 111.032L419.824 111.208L419.688 111.08C418.954 110.409 418.068 109.925 417.106 109.671C416.144 109.418 415.135 109.401 414.165 109.623C413.195 109.845 412.293 110.298 411.537 110.945C410.781 111.592 410.193 112.412 409.824 113.336V113.448H409.704C407.864 113.144 405.928 112.816 404.104 113.352C403.163 113.636 402.328 114.193 401.704 114.952C401.394 115.305 401.162 115.72 401.024 116.17C400.886 116.62 400.845 117.093 400.904 117.56V117.72H400.736C398.752 117.776 396.736 117.88 395.096 118.872C394.312 119.355 393.688 120.059 393.304 120.896C393.11 121.288 393.001 121.716 392.983 122.153C392.965 122.59 393.039 123.026 393.2 123.432L393.28 123.616H393.08C391.909 123.643 390.746 123.812 389.616 124.12C388.55 124.42 387.626 125.09 387.008 126.008C386.704 126.421 386.529 126.916 386.507 127.429C386.484 127.941 386.614 128.449 386.88 128.888C387.114 129.306 387.483 129.632 387.926 129.814C388.369 129.995 388.86 130.021 389.32 129.888L389.432 129.848L389.472 129.968C389.735 130.788 390.218 131.52 390.868 132.084C391.519 132.648 392.311 133.023 393.16 133.168C393.88 133.276 394.615 133.218 395.308 132.998C396.002 132.777 396.635 132.4 397.16 131.896L397.24 131.816L397.288 131.912C397.56 132.423 397.908 132.889 398.32 133.296C398.68 133.663 399.074 133.995 399.496 134.288C400.146 134.769 400.886 135.115 401.672 135.304C402.161 135.432 402.68 135.393 403.144 135.192C403.352 135.016 403.48 134.888 403.488 134.904Z" fill="#455A64"/>
<path d="M379.64 104.872C379.629 104.642 379.645 104.411 379.688 104.184C379.795 103.524 380.034 102.893 380.392 102.328C380.95 101.415 381.794 100.712 382.792 100.328C383.463 100.079 384.179 99.9717 384.894 100.014C385.609 100.057 386.307 100.248 386.944 100.576H386.816C387.519 99.0519 388.774 97.8512 390.328 97.216C391.184 96.8481 392.109 96.668 393.04 96.688C394.015 96.7787 394.979 96.9608 395.92 97.232C396.402 97.3467 396.898 97.3898 397.392 97.36C397.893 97.3238 398.378 97.1703 398.808 96.912C399.704 96.416 400.456 95.608 401.48 95.112C402.555 94.6263 403.751 94.4741 404.913 94.6752C406.075 94.8763 407.151 95.4214 408 96.24H407.768C408.32 95.1872 409.108 94.2755 410.069 93.5756C411.03 92.8757 412.14 92.4063 413.311 92.2037C414.483 92.001 415.685 92.0706 416.826 92.4071C417.966 92.7436 419.014 93.3379 419.888 94.144H419.664C420.313 93.0131 421.272 92.0919 422.429 91.4898C423.585 90.8877 424.89 90.6298 426.188 90.7469C427.487 90.8639 428.725 91.351 429.755 92.1502C430.785 92.9494 431.564 94.0273 432 95.256L431.864 95.176C433.19 94.9909 434.541 95.0946 435.824 95.48C436.972 95.8025 438.074 96.2703 439.104 96.872C440.79 97.8235 442.291 99.0699 443.536 100.552C444.348 101.487 445.002 102.549 445.472 103.696C445.597 103.997 445.699 104.307 445.776 104.624C445.81 104.729 445.837 104.836 445.856 104.944C445.856 104.944 445.728 104.512 445.408 103.728C444.91 102.604 444.244 101.563 443.432 100.64C442.181 99.1906 440.683 97.9744 439.008 97.048C437.989 96.4577 436.897 96.0032 435.76 95.696C434.509 95.3316 433.195 95.2362 431.904 95.416H431.808V95.32C431.377 94.1487 430.62 93.1248 429.627 92.3689C428.634 91.613 427.446 91.1565 426.202 91.0531C424.958 90.9498 423.71 91.2038 422.606 91.7854C421.502 92.367 420.586 93.2519 419.968 94.336L419.88 94.496L419.744 94.376C418.9 93.5872 417.886 93.0047 416.779 92.6742C415.673 92.3437 414.505 92.2741 413.367 92.471C412.229 92.6679 411.152 93.1259 410.221 93.809C409.29 94.4921 408.529 95.3817 408 96.408L407.904 96.584L407.768 96.44C406.959 95.6711 405.939 95.1612 404.839 94.9759C403.739 94.7906 402.608 94.9383 401.592 95.4C400.624 95.856 399.872 96.656 398.928 97.192C398.461 97.4635 397.939 97.6249 397.4 97.664C396.884 97.6896 396.366 97.6411 395.864 97.52C394.936 97.2523 393.985 97.0702 393.024 96.976C392.127 96.9474 391.234 97.1139 390.408 97.464C388.905 98.0628 387.683 99.2052 386.984 100.664L386.936 100.76L386.848 100.712C386.237 100.392 385.565 100.202 384.877 100.155C384.188 100.109 383.497 100.205 382.848 100.44C381.86 100.798 381.017 101.469 380.448 102.352C380.09 102.902 379.84 103.516 379.712 104.16C379.656 104.632 379.656 104.872 379.64 104.872Z" fill="#455A64"/>
<path d="M453.216 161.304C453.238 161.167 453.288 161.037 453.364 160.921C453.44 160.805 453.539 160.706 453.656 160.632C453.934 160.449 454.253 160.339 454.584 160.312C455.034 160.296 455.483 160.369 455.904 160.528C456.418 160.727 456.956 160.853 457.504 160.904C458.153 160.896 458.782 160.677 459.296 160.28C459.899 159.832 460.408 159.27 460.792 158.624C461.232 157.96 461.592 157.2 462.16 156.464C463.224 154.96 464.944 153.904 466.512 152.544C467.332 151.85 468.004 150.999 468.488 150.04C468.749 149.545 468.9 148.998 468.93 148.439C468.961 147.88 468.87 147.321 468.664 146.8C468.092 145.744 467.393 144.761 466.584 143.872C466.181 143.371 465.865 142.806 465.648 142.2C465.454 141.565 465.421 140.891 465.552 140.24C465.89 138.965 466.362 137.728 466.96 136.552C467.232 135.956 467.413 135.322 467.496 134.672C467.562 134.024 467.413 133.372 467.072 132.816C466.497 132.117 465.839 131.491 465.112 130.952C464.755 130.646 464.449 130.284 464.208 129.88C463.976 129.465 463.86 128.995 463.872 128.52C463.955 127.628 464.165 126.752 464.496 125.92C464.772 125.122 464.873 124.273 464.792 123.432C464.725 122.631 464.491 121.852 464.107 121.146C463.723 120.439 463.196 119.82 462.56 119.328C461.36 118.41 459.857 117.978 458.352 118.12H458.176V117.944C458.425 116.658 458.397 115.333 458.094 114.058C457.79 112.784 457.218 111.588 456.416 110.552C455.743 109.69 454.909 108.968 453.96 108.424C453.16 107.953 452.282 107.628 451.368 107.464C450.077 107.245 448.75 107.401 447.544 107.912C447.226 108.042 446.918 108.197 446.624 108.376L446.392 108.496H446.304L446.376 108.44L446.6 108.296C446.891 108.105 447.199 107.942 447.52 107.808C448.73 107.253 450.078 107.069 451.392 107.28C452.328 107.432 453.229 107.755 454.048 108.232C455.024 108.779 455.886 109.51 456.584 110.384C457.413 111.443 458.006 112.666 458.324 113.973C458.641 115.28 458.675 116.639 458.424 117.96L458.28 117.808C459.851 117.647 461.424 118.091 462.68 119.048C463.356 119.558 463.919 120.204 464.332 120.943C464.745 121.683 465 122.501 465.08 123.344C465.163 124.22 465.059 125.103 464.776 125.936C464.457 126.744 464.249 127.592 464.16 128.456C464.173 128.888 464.282 129.311 464.48 129.694C464.678 130.078 464.96 130.412 465.304 130.672C466.058 131.221 466.736 131.866 467.32 132.592C467.692 133.204 467.855 133.92 467.784 134.632C467.704 135.313 467.518 135.977 467.232 136.6C466.643 137.759 466.176 138.976 465.84 140.232C465.71 140.834 465.738 141.46 465.92 142.048C466.126 142.626 466.426 143.167 466.808 143.648C467.632 144.553 468.339 145.559 468.912 146.64C469.152 147.2 469.248 147.81 469.192 148.416C469.139 149 468.979 149.57 468.72 150.096C468.222 151.084 467.528 151.961 466.68 152.672C465.08 154.048 463.368 155.072 462.328 156.528C461.808 157.248 461.4 158 460.952 158.672C460.532 159.332 459.989 159.905 459.352 160.36C458.806 160.771 458.14 160.99 457.456 160.984C456.906 160.932 456.366 160.797 455.856 160.584C455.45 160.42 455.014 160.339 454.576 160.344C454.256 160.36 453.945 160.456 453.672 160.624C453.443 160.788 453.281 161.03 453.216 161.304Z" fill="#455A64"/>
<path d="M477.256 160.16C477.245 160.091 477.245 160.021 477.256 159.952L477.36 159.352C477.456 158.816 477.6 158.048 477.784 157.064C477.968 156.08 478.224 154.864 478.384 153.44C478.635 151.842 478.43 150.206 477.792 148.72C477.408 147.92 476.84 147.12 476.336 146.32C476.07 145.883 475.863 145.412 475.72 144.92C475.568 144.4 475.546 143.85 475.656 143.32C475.872 142.24 476.528 141.304 476.84 140.248C477 139.727 477 139.169 476.84 138.648C476.644 138.104 476.36 137.596 476 137.144C475.617 136.664 475.28 136.15 474.992 135.608C474.71 135.024 474.615 134.368 474.72 133.728C475.07 132.485 475.587 131.296 476.256 130.192C476.553 129.629 476.73 129.011 476.776 128.376C476.785 128.06 476.732 127.746 476.619 127.451C476.507 127.155 476.337 126.885 476.12 126.656C475.24 125.688 473.872 125.248 472.856 124.256C472.354 123.737 472.027 123.074 471.92 122.36C471.84 121.677 471.84 120.987 471.92 120.304C471.976 119.632 472.048 118.968 472.04 118.32C472.047 117.687 471.896 117.063 471.6 116.504C470.976 115.392 469.744 114.856 468.608 114.384C467.415 113.991 466.323 113.341 465.408 112.48C464.646 111.577 464.058 110.541 463.672 109.424C463.345 108.378 462.919 107.365 462.4 106.4C461.259 104.803 459.673 103.579 457.84 102.88C456.335 102.287 454.716 102.044 453.104 102.168C451.887 102.274 450.694 102.569 449.568 103.04C448.86 103.348 448.18 103.718 447.536 104.144L447.024 104.464L446.84 104.568L447.008 104.44L447.504 104.088C448.141 103.642 448.819 103.256 449.528 102.936C450.661 102.438 451.865 102.122 453.096 102C454.727 101.86 456.369 102.095 457.896 102.688C459.775 103.391 461.403 104.636 462.576 106.264C463.147 107.212 463.624 108.214 464 109.256C464.381 110.34 464.955 111.345 465.696 112.224C466.579 113.047 467.63 113.669 468.776 114.048C469.37 114.284 469.945 114.565 470.496 114.888C471.088 115.22 471.577 115.708 471.91 116.299C472.243 116.89 472.407 117.562 472.384 118.24C472.383 118.914 472.346 119.587 472.272 120.256C472.192 120.915 472.192 121.581 472.272 122.24C472.363 122.894 472.66 123.502 473.12 123.976C474.064 124.928 475.432 125.368 476.392 126.376C476.88 126.897 477.141 127.59 477.12 128.304C477.074 128.978 476.886 129.635 476.568 130.232C476.016 131.416 475.256 132.488 475.056 133.688C474.956 134.276 475.042 134.88 475.304 135.416C475.581 135.943 475.905 136.443 476.272 136.912C476.656 137.39 476.954 137.931 477.152 138.512C477.332 139.088 477.332 139.704 477.152 140.28C476.816 141.392 476.168 142.312 475.96 143.328C475.802 144.324 476.031 145.343 476.6 146.176C477.08 147.024 477.656 147.776 478.048 148.624C478.681 150.14 478.878 151.802 478.616 153.424C478.44 154.856 478.152 156.064 477.96 157.056C477.768 158.048 477.592 158.792 477.48 159.336C477.424 159.584 477.384 159.776 477.352 159.928C477.33 160.009 477.298 160.087 477.256 160.16Z" fill="#455A64"/>
<path d="M474.84 145.896L475 145.976C475.148 146.076 475.269 146.21 475.352 146.368C475.477 146.688 475.522 147.034 475.483 147.376C475.444 147.717 475.322 148.044 475.128 148.328C474.838 148.722 474.496 149.074 474.112 149.376C473.66 149.724 473.259 150.133 472.92 150.592C472.599 151.155 472.43 151.792 472.432 152.44C472.432 153.136 472.432 153.88 472.352 154.672C472.323 155.097 472.196 155.51 471.983 155.879C471.769 156.248 471.474 156.563 471.12 156.8C470.384 157.288 469.52 157.496 468.76 158C468.031 158.573 467.55 159.403 467.416 160.32C467.2 161.256 467.136 162.272 466.856 163.288C466.726 163.81 466.501 164.304 466.192 164.744C465.858 165.186 465.436 165.554 464.952 165.824C463.953 166.307 462.911 166.696 461.84 166.984C460.76 167.263 459.824 167.937 459.216 168.872C458.761 169.941 458.436 171.061 458.248 172.208C458.099 172.801 457.844 173.362 457.496 173.864C457.126 174.349 456.65 174.743 456.104 175.016C455.044 175.47 453.935 175.801 452.8 176C451.732 176.205 450.717 176.624 449.816 177.232C449 177.911 448.136 178.531 447.232 179.088C446.768 179.345 446.25 179.487 445.72 179.504C445.21 179.504 444.703 179.414 444.224 179.24C443.776 179.081 443.319 178.947 442.856 178.84C442.406 178.767 441.949 178.753 441.496 178.8C440.635 178.942 439.796 179.195 439 179.552C438.2 179.88 437.464 180.208 436.712 180.456C435.351 180.908 433.881 180.908 432.52 180.456C431.496 180.136 430.558 179.589 429.776 178.856C429.283 178.391 428.867 177.851 428.544 177.256C428.43 177.051 428.334 176.837 428.256 176.616C428.654 177.422 429.196 178.149 429.856 178.76C430.635 179.467 431.561 179.992 432.568 180.296C433.902 180.704 435.331 180.676 436.648 180.216C437.384 179.968 438.12 179.64 438.912 179.304C439.726 178.926 440.587 178.657 441.472 178.504C441.944 178.436 442.424 178.436 442.896 178.504C443.37 178.608 443.838 178.742 444.296 178.904C444.75 179.069 445.229 179.153 445.712 179.152C446.202 179.13 446.681 178.996 447.112 178.76C448 178.202 448.85 177.584 449.656 176.912C450.583 176.282 451.628 175.847 452.728 175.632C453.829 175.431 454.902 175.104 455.928 174.656C456.434 174.407 456.876 174.043 457.216 173.592C457.546 173.123 457.785 172.597 457.92 172.04C458.114 170.868 458.45 169.723 458.92 168.632C459.215 168.112 459.632 167.673 460.136 167.352C460.637 167.042 461.174 166.795 461.736 166.616C462.784 166.363 463.809 166.023 464.8 165.6C465.247 165.344 465.639 165.001 465.952 164.592C466.242 164.177 466.456 163.714 466.584 163.224C466.856 162.248 466.92 161.24 467.144 160.28C467.298 159.301 467.822 158.419 468.608 157.816C469.408 157.28 470.288 157.08 471.008 156.624C471.337 156.407 471.612 156.118 471.812 155.778C472.011 155.438 472.131 155.057 472.16 154.664C472.256 153.912 472.208 153.16 472.256 152.456C472.264 151.777 472.451 151.111 472.8 150.528C473.148 150.059 473.563 149.644 474.032 149.296C474.417 149.01 474.759 148.67 475.048 148.288C475.24 148.02 475.364 147.71 475.41 147.384C475.456 147.058 475.422 146.726 475.312 146.416C475.208 146.201 475.044 146.02 474.84 145.896Z" fill="#455A64"/>
<path d="M426.448 149.656C426.739 149.482 427.085 149.426 427.416 149.501C427.747 149.575 428.036 149.774 428.224 150.056C429.424 151.84 430.624 153.624 431.832 155.416L432.24 156.008C431.27 156.844 430.194 157.549 429.04 158.104C428.539 158.337 427.993 158.457 427.44 158.457C426.887 158.457 426.341 158.337 425.84 158.104C425.075 157.63 424.48 156.923 424.144 156.088C423.592 154.736 423.144 153.352 423.76 152.032C424.208 151.064 425.6 150.2 426.448 149.656Z" fill="#FF9A6C"/>
<path d="M399.776 130.256C399.234 130.109 398.672 130.052 398.112 130.088C396.555 130.158 395.074 130.782 393.936 131.848C393.141 132.572 392.525 133.47 392.136 134.472C391.709 135.629 391.561 136.871 391.704 138.096C391.852 139.454 392.345 140.751 393.136 141.864C393.995 143.062 395.197 143.971 396.584 144.472C397.961 144.987 399.456 145.103 400.896 144.808C402.239 144.531 403.473 143.869 404.448 142.904C405.27 142.095 405.895 141.108 406.275 140.019C406.655 138.93 406.78 137.769 406.64 136.624C406.49 135.753 406.166 134.92 405.688 134.176C405.342 133.611 404.919 133.097 404.432 132.648C404.121 132.366 403.771 132.132 403.392 131.952C403.264 131.88 403.122 131.837 402.976 131.824C403.477 132.056 403.934 132.373 404.328 132.76C405.404 133.812 406.123 135.174 406.384 136.656C406.5 137.757 406.364 138.87 405.987 139.91C405.61 140.951 405.002 141.893 404.208 142.664C403.276 143.574 402.101 144.196 400.824 144.456C399.449 144.727 398.025 144.61 396.712 144.12C395.396 143.646 394.254 142.788 393.432 141.656C392.671 140.593 392.192 139.355 392.04 138.056C391.895 136.882 392.026 135.69 392.424 134.576C392.786 133.613 393.363 132.746 394.112 132.04C395.201 131 396.612 130.363 398.112 130.232C399.2 130.16 399.768 130.304 399.776 130.256Z" fill="#E0E0E0"/>
<path d="M432.168 136.552C431.872 137.015 431.406 137.343 430.87 137.466C430.334 137.589 429.772 137.496 429.304 137.208C429.067 137.081 428.857 136.908 428.688 136.698C428.518 136.489 428.393 136.248 428.318 135.989C428.244 135.73 428.222 135.459 428.253 135.192C428.285 134.924 428.371 134.666 428.504 134.432C428.801 133.971 429.267 133.644 429.802 133.521C430.338 133.399 430.899 133.49 431.368 133.776C431.607 133.901 431.818 134.074 431.989 134.283C432.159 134.492 432.286 134.734 432.361 134.993C432.435 135.253 432.457 135.524 432.424 135.792C432.391 136.06 432.304 136.319 432.168 136.552Z" fill="#263238"/>
<path d="M448.888 148.224C448.589 148.684 448.123 149.009 447.589 149.132C447.054 149.254 446.493 149.164 446.024 148.88C445.786 148.752 445.577 148.578 445.407 148.368C445.238 148.158 445.112 147.916 445.038 147.656C444.963 147.397 444.941 147.125 444.973 146.857C445.005 146.589 445.091 146.331 445.224 146.096C445.523 145.636 445.989 145.311 446.523 145.188C447.058 145.066 447.619 145.156 448.088 145.44C448.326 145.568 448.536 145.742 448.705 145.952C448.874 146.162 449 146.404 449.075 146.663C449.149 146.923 449.171 147.195 449.139 147.463C449.107 147.731 449.022 147.989 448.888 148.224Z" fill="#263238"/>
<path d="M453.672 143.616C453.328 143.76 452.664 141.928 450.856 140.904C449.048 139.88 447.136 140.192 447.088 139.816C447.088 139.648 447.52 139.304 448.368 139.144C449.462 138.944 450.592 139.139 451.556 139.694C452.52 140.249 453.256 141.129 453.632 142.176C453.912 142.992 453.84 143.56 453.672 143.616Z" fill="#263238"/>
<path d="M436.688 133.432C436.264 133.528 435.64 131.376 433.608 129.936C431.576 128.496 429.336 128.536 429.304 128.112C429.304 127.912 429.848 127.608 430.856 127.56C432.174 127.527 433.466 127.926 434.536 128.696C435.599 129.458 436.376 130.554 436.744 131.808C437.008 132.8 436.88 133.392 436.688 133.432Z" fill="#263238"/>
<path d="M427.408 158.264C427.408 158.264 427.12 158.376 426.608 158.264C425.857 158.082 425.18 157.671 424.672 157.088C423.895 156.249 423.381 155.2 423.192 154.072C423.07 153.382 423.148 152.671 423.416 152.024C423.724 151.351 424.181 150.758 424.752 150.288C425.299 149.833 425.898 149.443 426.536 149.128C426.713 149.018 426.912 148.947 427.119 148.921C427.327 148.894 427.537 148.913 427.736 148.976C428.082 149.149 428.363 149.43 428.536 149.776L430.264 152.528C430.833 153.364 431.308 154.26 431.68 155.2C430.979 154.472 430.361 153.667 429.84 152.8C429.264 152 428.648 151.08 427.992 150.128C427.64 149.552 427.384 149.416 426.808 149.728C426.218 150.032 425.663 150.4 425.152 150.824C424.658 151.187 424.269 151.674 424.025 152.236C423.78 152.798 423.689 153.415 423.76 154.024C423.918 155.047 424.343 156.01 424.992 156.816C425.427 157.367 426.002 157.793 426.656 158.048C427.12 158.2 427.416 158.208 427.408 158.264Z" fill="#263238"/>
<path d="M499.88 127.144C499.577 126.167 499.158 125.229 498.632 124.352C497.978 123.357 497.142 122.494 496.168 121.808C494.888 120.905 493.387 120.366 491.824 120.248H491.576V119.992C491.729 117.915 491.066 115.86 489.728 114.264C488.996 113.323 488.065 112.555 487.001 112.015C485.938 111.476 484.768 111.178 483.576 111.144H483.264V110.832C483.198 107.483 481.849 104.288 479.496 101.904C477.654 100.059 475.283 98.8347 472.712 98.4C470.364 97.9919 467.948 98.2354 465.728 99.104L465.584 99.16L465.448 99.072C463.194 97.5601 460.649 96.5356 457.976 96.064C455.896 95.6791 453.769 95.6224 451.672 95.896C449.826 96.1768 448.014 96.6459 446.264 97.296C446.264 97.296 446.368 97.216 446.592 97.104C446.816 96.992 447.152 96.816 447.6 96.64C448.889 96.1291 450.231 95.7616 451.6 95.544C453.733 95.1995 455.907 95.1995 458.04 95.544C460.796 95.9926 463.427 97.0176 465.76 98.552H465.48C467.796 97.6118 470.328 97.3348 472.792 97.752C475.5 98.1905 478 99.4728 479.936 101.416C482.413 103.917 483.824 107.28 483.872 110.8L483.56 110.488C484.842 110.532 486.099 110.858 487.24 111.445C488.381 112.031 489.378 112.863 490.16 113.88C491.576 115.59 492.265 117.787 492.08 120L491.856 119.736C493.501 119.878 495.073 120.479 496.392 121.472C497.388 122.201 498.226 123.123 498.856 124.184C499.255 124.85 499.556 125.569 499.752 126.32C499.826 126.589 499.869 126.865 499.88 127.144Z" fill="#263238"/>
<path d="M448.632 85.92C447.804 85.7796 447.017 85.4572 446.328 84.976C445.349 84.3449 444.507 83.5243 443.85 82.5626C443.193 81.6008 442.736 80.5174 442.504 79.376C442.188 77.7589 442.375 76.0835 443.04 74.576C443.796 72.8354 445.081 71.3771 446.712 70.408C448.562 69.365 450.742 69.0756 452.8 69.6C455.05 70.1239 457.004 71.5118 458.24 73.464L457.88 73.312C459.283 72.9801 460.758 73.1412 462.056 73.768C463.168 74.2687 464.118 75.0693 464.8 76.08C465.43 77.0756 465.742 78.2389 465.696 79.416C465.666 80.5232 465.353 81.6042 464.786 82.5554C464.218 83.5066 463.416 84.296 462.456 84.848L462.336 84.272C463.2 84.373 464.027 84.6848 464.742 85.18C465.458 85.6752 466.041 86.3387 466.44 87.112C466.82 87.7988 467.048 88.5592 467.109 89.3418C467.17 90.1243 467.062 90.9108 466.792 91.648C466.347 92.8415 465.587 93.892 464.592 94.6879C463.598 95.4838 462.406 95.9953 461.144 96.168C459.509 96.3887 457.845 96.1419 456.344 95.456C455.949 95.2862 455.569 95.0828 455.208 94.848C454.968 94.68 454.848 94.592 454.856 94.576C454.864 94.56 455.384 94.88 456.416 95.272C457.886 95.8558 459.485 96.0354 461.048 95.792C462.224 95.6069 463.329 95.109 464.247 94.3504C465.164 93.5918 465.861 92.6004 466.264 91.48C466.499 90.8121 466.589 90.1013 466.525 89.396C466.462 88.6906 466.247 88.0071 465.896 87.392C465.539 86.7077 465.02 86.1211 464.384 85.6833C463.748 85.2455 463.015 84.9697 462.248 84.88L461.216 84.8L462.12 84.304C462.981 83.8012 463.698 83.0867 464.205 82.2284C464.712 81.3701 464.991 80.3965 465.016 79.4C465.052 78.353 464.773 77.3193 464.216 76.432C463.619 75.536 462.789 74.8196 461.816 74.36C460.655 73.7988 459.336 73.652 458.08 73.944L457.848 74.008L457.72 73.8C456.579 71.9925 454.775 70.7033 452.696 70.208C450.783 69.7134 448.752 69.9801 447.032 70.952C445.491 71.8467 444.269 73.2005 443.536 74.824C442.895 76.2275 442.694 77.7922 442.96 79.312C443.379 81.5237 444.645 83.4843 446.488 84.776C447.163 85.2278 447.881 85.6111 448.632 85.92Z" fill="#263238"/>
<path d="M396.528 79.336C396.53 79.1976 396.552 79.0603 396.592 78.928C396.681 78.5427 396.801 78.1654 396.952 77.8C397.516 76.4056 398.379 75.152 399.48 74.128C401.162 72.5261 403.342 71.5491 405.656 71.36C407.121 71.2489 408.593 71.4377 409.982 71.915C411.372 72.3924 412.649 73.1481 413.736 74.136L413.376 74.088C416.104 72.647 419.257 72.2325 422.264 72.92C424.529 73.456 426.599 74.6143 428.24 76.264C429.737 77.7682 430.837 79.6212 431.44 81.656L431.192 81.448C433.57 81.781 435.824 82.7113 437.744 84.152C439.233 85.2577 440.5 86.6336 441.48 88.208C442.113 89.2238 442.603 90.3222 442.936 91.472C443.064 91.8749 443.148 92.2908 443.184 92.712C442.693 91.1982 442.019 89.7502 441.176 88.4C440.184 86.8994 438.922 85.5949 437.456 84.552C435.586 83.1991 433.409 82.3331 431.12 82.032H430.928L430.872 81.848C430.276 79.9195 429.216 78.1669 427.784 76.744C426.232 75.1697 424.27 74.0613 422.12 73.544C419.265 72.8904 416.271 73.2732 413.672 74.624L413.472 74.728L413.312 74.576C412.289 73.6379 411.087 72.9156 409.779 72.4524C408.47 71.9892 407.082 71.7945 405.696 71.88C403.486 72.0314 401.391 72.9185 399.744 74.4C398.652 75.3663 397.767 76.5449 397.144 77.864C396.712 78.808 396.576 79.352 396.528 79.336Z" fill="#263238"/>
<path d="M347.48 139.424C347.48 139.424 348.344 137.888 355.008 138.76C361.672 139.632 388.072 157.912 388.072 157.912C388.072 157.912 383.272 176.8 397.792 180.4C408.368 183.024 413.976 180.072 413.976 180.072C413.976 180.072 431.68 202.088 433.128 211.064C433.128 211.064 347.808 270.76 361.656 264.272L347.48 264.432V139.424Z" fill="#239EC2"/>
<path d="M431.744 207.024C431.976 207.656 435.28 211.592 432.008 229.128C429.032 245.056 416.008 261.128 416.008 261.128L390.04 237.76L431.744 207.024Z" fill="#239EC2"/>
<path d="M418.2 219.512C418.081 219.656 417.947 219.788 417.8 219.904L416.608 220.944C415.552 221.832 414.016 223.104 412.088 224.64C408.24 227.712 402.864 231.88 396.888 236.424C390.912 240.968 385.448 245.04 381.488 248L376.784 251.44L375.488 252.36C375.346 252.477 375.19 252.577 375.024 252.656C375.152 252.524 375.291 252.403 375.44 252.296L376.688 251.312L381.312 247.768L396.632 236.128C402.616 231.584 408.016 227.456 411.904 224.44L416.504 220.848L417.744 219.872C417.885 219.739 418.037 219.618 418.2 219.512Z" fill="#263238"/>
<path d="M375.024 68.672H186.056V331.32H375.024V68.672Z" fill="white"/>
<path d="M375.024 68.672H186.056V163.736H375.024V68.672Z" fill="#239EC2"/>
<path d="M355.336 76.288H321.752C316.768 76.288 312.728 80.3282 312.728 85.312V86.248C312.728 91.2318 316.768 95.272 321.752 95.272H355.336C360.32 95.272 364.36 91.2318 364.36 86.248V85.312C364.36 80.3282 360.32 76.288 355.336 76.288Z" fill="#263238"/>
<path d="M342.304 187.016C342.304 187.128 316.32 187.224 284.288 187.224C252.256 187.224 226.256 187.128 226.256 187.016C226.256 186.904 252.232 186.808 284.288 186.808C316.344 186.808 342.304 186.896 342.304 187.016Z" fill="#263238"/>
<path d="M342.304 212.616C342.304 212.728 316.32 212.824 284.288 212.824C252.256 212.824 226.256 212.728 226.256 212.616C226.256 212.504 252.232 212.408 284.288 212.408C316.344 212.408 342.304 212.504 342.304 212.616Z" fill="#263238"/>
<path d="M342.304 238.224C342.304 238.336 316.32 238.432 284.288 238.432C252.256 238.432 226.256 238.336 226.256 238.224C226.256 238.112 252.232 238.016 284.288 238.016C316.344 238.016 342.304 238.104 342.304 238.224Z" fill="#263238"/>
<path d="M341.824 267.736H228.312C217.151 267.736 208.104 276.783 208.104 287.944V290.064C208.104 301.225 217.151 310.272 228.312 310.272H341.824C352.985 310.272 362.032 301.225 362.032 290.064V287.944C362.032 276.783 352.985 267.736 341.824 267.736Z" fill="#239EC2"/>
<path d="M235.464 149.032C234.631 148.839 233.84 148.498 233.128 148.024L234.296 145.408C234.903 145.8 235.563 146.101 236.256 146.304C236.966 146.526 237.704 146.641 238.448 146.648C239.808 146.648 240.496 146.304 240.496 145.624C240.495 145.446 240.438 145.273 240.333 145.13C240.228 144.986 240.081 144.879 239.912 144.824C239.304 144.582 238.674 144.397 238.032 144.272C237.216 144.114 236.414 143.895 235.632 143.616C235 143.386 234.436 143.001 233.992 142.496C233.516 141.91 233.274 141.169 233.312 140.416C233.302 139.674 233.523 138.947 233.944 138.336C234.413 137.677 235.064 137.169 235.816 136.872C236.79 136.488 237.833 136.305 238.88 136.336C239.701 136.337 240.52 136.431 241.32 136.616C242.064 136.771 242.779 137.041 243.44 137.416L242.344 140.056C241.284 139.446 240.087 139.114 238.864 139.088C238.33 139.048 237.796 139.156 237.32 139.4C237.175 139.478 237.053 139.593 236.968 139.734C236.882 139.874 236.835 140.035 236.832 140.2C236.835 140.37 236.893 140.535 236.997 140.67C237.1 140.806 237.244 140.904 237.408 140.952C238.007 141.183 238.625 141.36 239.256 141.48C240.07 141.638 240.873 141.855 241.656 142.128C242.27 142.371 242.818 142.754 243.256 143.248C243.742 143.825 243.989 144.567 243.944 145.32C243.952 146.051 243.734 146.766 243.32 147.368C242.839 148.023 242.186 148.53 241.432 148.832C240.46 149.218 239.421 149.403 238.376 149.376C237.395 149.387 236.416 149.271 235.464 149.032Z" fill="white"/>
<path d="M248.128 139.408H244.264V136.584H255.528V139.408H251.68V149.16H248.128V139.408Z" fill="white"/>
<path d="M264.648 146.72H259.336L258.344 149.12H254.72L260.264 136.544H263.768L269.368 149.12H265.672L264.648 146.72ZM263.608 144.096L262.008 140.096L260.408 144.096H263.608Z" fill="white"/>
<path d="M282.304 136.584V149.16H279.376L273.824 142.464V149.16H270.344V136.584H273.272L278.816 143.288V136.584H282.304Z" fill="white"/>
<path d="M284.8 136.584H290.744C292.01 136.57 293.263 136.843 294.408 137.384C295.43 137.859 296.292 138.62 296.888 139.576C297.465 140.588 297.768 141.732 297.768 142.896C297.768 144.06 297.465 145.205 296.888 146.216C296.294 147.174 295.432 147.936 294.408 148.408C293.265 148.953 292.011 149.226 290.744 149.208H284.8V136.584ZM290.6 146.32C291.552 146.365 292.485 146.038 293.2 145.408C293.828 144.714 294.175 143.812 294.175 142.876C294.175 141.94 293.828 141.038 293.2 140.344C292.488 139.708 291.554 139.378 290.6 139.424H288.36V146.32H290.6Z" fill="white"/>
<path d="M307.896 146.72H302.584L301.592 149.12H297.968L303.512 136.544H307.016L312.616 149.12H308.88L307.896 146.72ZM306.856 144.096L305.256 140.096L303.656 144.096H306.856Z" fill="white"/>
<path d="M319.088 145.816H317.144V149.16H313.6V136.584H319.344C320.36 136.562 321.369 136.756 322.304 137.152C323.107 137.483 323.789 138.053 324.258 138.784C324.727 139.515 324.961 140.372 324.928 141.24C324.967 142.076 324.753 142.904 324.315 143.618C323.877 144.331 323.235 144.896 322.472 145.24L325.184 149.192H321.376L319.088 145.816ZM320.776 139.872C320.299 139.52 319.712 139.35 319.12 139.392H317.144V143.072H319.12C319.712 143.114 320.299 142.944 320.776 142.592C320.964 142.423 321.111 142.213 321.207 141.979C321.302 141.745 321.344 141.492 321.328 141.24C321.345 140.987 321.307 140.734 321.216 140.497C321.124 140.261 320.983 140.048 320.8 139.872H320.776Z" fill="white"/>
<path d="M326.88 136.584H332.8C334.066 136.57 335.319 136.843 336.464 137.384C337.484 137.861 338.345 138.622 338.944 139.576C339.52 140.588 339.824 141.732 339.824 142.896C339.824 144.06 339.52 145.205 338.944 146.216C338.347 147.172 337.486 147.933 336.464 148.408C335.32 148.953 334.066 149.226 332.8 149.208H326.88V136.584ZM332.68 146.32C333.63 146.367 334.561 146.04 335.272 145.408C335.904 144.716 336.255 143.813 336.255 142.876C336.255 141.939 335.904 141.036 335.272 140.344C334.563 139.707 333.631 139.376 332.68 139.424H330.4V146.32H332.68Z" fill="white"/>
<path d="M328.8 83.536C329.032 83.6452 329.238 83.8015 329.406 83.9949C329.574 84.1883 329.699 84.4146 329.774 84.6593C329.85 84.904 329.873 85.1618 329.843 85.4161C329.813 85.6703 329.73 85.9155 329.6 86.136C329.403 86.4227 329.125 86.643 328.8 86.768C328.432 86.9264 328.033 87.0029 327.632 86.992H326.608V88.392H325.432V83.312H327.632C328.033 83.3051 328.43 83.3814 328.8 83.536ZM328.368 85.808C328.461 85.7286 328.535 85.6289 328.583 85.5166C328.632 85.4042 328.654 85.2822 328.648 85.16C328.657 85.0352 328.636 84.91 328.587 84.7947C328.538 84.6794 328.463 84.5771 328.368 84.496C328.135 84.331 327.853 84.2518 327.568 84.272H326.616V86.032H327.568C327.845 86.0467 328.118 85.9678 328.344 85.808H328.368Z" fill="white"/>
<path d="M331.312 88.192C330.982 88.0368 330.704 87.7896 330.512 87.48C330.329 87.164 330.232 86.8053 330.232 86.44C330.232 86.0747 330.329 85.7159 330.512 85.4C330.707 85.0924 330.984 84.8457 331.312 84.688C331.656 84.5198 332.033 84.4324 332.416 84.4324C332.799 84.4324 333.176 84.5198 333.52 84.688C333.759 84.815 333.971 84.989 334.142 85.1996C334.312 85.4103 334.439 85.6532 334.514 85.9138C334.588 86.1745 334.61 86.4476 334.576 86.7167C334.543 86.9858 334.456 87.2454 334.32 87.48C334.126 87.7884 333.849 88.0353 333.52 88.192C333.176 88.3602 332.799 88.4476 332.416 88.4476C332.033 88.4476 331.656 88.3602 331.312 88.192ZM333.128 87.224C333.317 87.0002 333.42 86.7168 333.42 86.424C333.42 86.1311 333.317 85.8477 333.128 85.624C333.037 85.5265 332.927 85.4496 332.804 85.3985C332.681 85.3475 332.549 85.3234 332.416 85.328C332.282 85.3238 332.148 85.348 332.024 85.399C331.9 85.45 331.788 85.5267 331.696 85.624C331.507 85.8477 331.403 86.1311 331.403 86.424C331.403 86.7168 331.507 87.0002 331.696 87.224C331.788 87.3213 331.9 87.3979 332.024 87.4489C332.148 87.4999 332.282 87.5242 332.416 87.52C332.551 87.5216 332.684 87.4937 332.807 87.4385C332.93 87.3832 333.04 87.3018 333.128 87.2V87.224Z" fill="white"/>
<path d="M338.608 84.68C338.906 84.8417 339.15 85.0862 339.312 85.384C339.48 85.7106 339.568 86.0726 339.568 86.44C339.568 86.8074 339.48 87.1695 339.312 87.496C339.15 87.7938 338.906 88.0384 338.608 88.2C338.308 88.368 337.968 88.4536 337.624 88.448C337.405 88.4619 337.186 88.4267 336.983 88.3451C336.779 88.2634 336.596 88.1373 336.448 87.976V89.8H335.312V84.488H336.392V84.936C336.545 84.7636 336.736 84.6285 336.95 84.5412C337.163 84.4538 337.394 84.4165 337.624 84.432C337.968 84.4265 338.308 84.5121 338.608 84.68ZM338.136 87.224C338.325 87.0003 338.429 86.7169 338.429 86.424C338.429 86.1312 338.325 85.8478 338.136 85.624C337.947 85.4355 337.691 85.3296 337.424 85.3296C337.157 85.3296 336.901 85.4355 336.712 85.624C336.523 85.8478 336.419 86.1312 336.419 86.424C336.419 86.7169 336.523 87.0003 336.712 87.224C336.901 87.4126 337.157 87.5185 337.424 87.5185C337.691 87.5185 337.947 87.4126 338.136 87.224Z" fill="white"/>
<path d="M344.256 84.488V88.392H343.2V87.928C343.052 88.0958 342.869 88.2295 342.664 88.32C342.451 88.4076 342.223 88.4512 341.992 88.448C341.769 88.4597 341.546 88.4268 341.336 88.3512C341.126 88.2757 340.933 88.159 340.768 88.008C340.61 87.8303 340.489 87.6226 340.412 87.3973C340.335 87.1719 340.304 86.9335 340.32 86.696V84.488H341.456V86.528C341.456 87.16 341.72 87.472 342.256 87.472C342.377 87.4766 342.497 87.4555 342.609 87.4099C342.721 87.3644 342.821 87.2956 342.904 87.208C343.089 86.9842 343.178 86.6969 343.152 86.408V84.48L344.256 84.488Z" fill="white"/>
<path d="M345.304 83.008H346.44V88.392H345.304V83.008Z" fill="white"/>
<path d="M350.456 84.864C350.631 85.0305 350.765 85.2343 350.849 85.4601C350.934 85.6859 350.966 85.9279 350.944 86.168V88.392H349.888V87.904C349.758 88.0949 349.578 88.2466 349.368 88.3425C349.158 88.4384 348.926 88.4749 348.696 88.448C348.422 88.458 348.148 88.406 347.896 88.296C347.692 88.2074 347.518 88.0632 347.392 87.88C347.276 87.6954 347.215 87.4818 347.216 87.264C347.212 87.0984 347.247 86.9342 347.32 86.7852C347.392 86.6362 347.499 86.5068 347.632 86.408C348.01 86.1719 348.452 86.0626 348.896 86.096H349.792C349.798 85.9908 349.781 85.8855 349.743 85.7874C349.704 85.6893 349.644 85.6008 349.568 85.528C349.375 85.3831 349.137 85.3121 348.896 85.328C348.686 85.3268 348.478 85.362 348.28 85.432C348.095 85.4883 347.921 85.5778 347.768 85.696L347.368 84.896C347.6 84.7363 347.857 84.6173 348.128 84.544C348.428 84.4639 348.738 84.4235 349.048 84.424C349.556 84.3875 350.059 84.5447 350.456 84.864ZM349.496 87.552C349.645 87.4646 349.756 87.3249 349.808 87.16V86.76H349.008C348.544 86.76 348.312 86.912 348.312 87.216C348.309 87.2837 348.324 87.3509 348.355 87.4112C348.386 87.4715 348.432 87.5227 348.488 87.56C348.624 87.654 348.787 87.6992 348.952 87.688C349.143 87.6983 349.333 87.6509 349.496 87.552Z" fill="white"/>
<path d="M353.6 84.576C353.855 84.4757 354.126 84.4267 354.4 84.432V85.472H354.144C354.006 85.464 353.867 85.4839 353.736 85.5306C353.606 85.5774 353.486 85.6499 353.384 85.744C353.286 85.8516 353.21 85.9779 353.162 86.1154C353.114 86.2529 353.094 86.3987 353.104 86.544V88.384H352V84.48H353.08V84.992C353.214 84.8107 353.394 84.6674 353.6 84.576Z" fill="white"/>
<path d="M256.232 293.312C255.293 292.814 254.509 292.067 253.968 291.152C253.423 290.204 253.136 289.13 253.136 288.036C253.136 286.942 253.423 285.868 253.968 284.92C254.512 284.009 255.295 283.265 256.232 282.768C257.157 282.302 258.171 282.039 259.206 281.997C260.241 281.956 261.273 282.137 262.232 282.528C263.033 282.868 263.74 283.395 264.296 284.064L262.56 285.664C262.203 285.23 261.753 284.882 261.244 284.645C260.734 284.408 260.178 284.289 259.616 284.296C258.94 284.285 258.273 284.45 257.68 284.776C257.121 285.084 256.66 285.544 256.352 286.104C256.042 286.702 255.88 287.366 255.88 288.04C255.88 288.714 256.042 289.378 256.352 289.976C256.662 290.534 257.122 290.994 257.68 291.304C258.273 291.627 258.941 291.79 259.616 291.776C260.179 291.785 260.737 291.666 261.247 291.427C261.757 291.189 262.206 290.838 262.56 290.4L264.296 292C263.74 292.676 263.029 293.208 262.224 293.552C261.35 293.917 260.411 294.099 259.464 294.088C258.339 294.101 257.229 293.834 256.232 293.312Z" fill="white"/>
<path d="M274.088 285.768C274.455 286.167 274.736 286.637 274.913 287.149C275.091 287.661 275.161 288.204 275.12 288.744V293.888H272.512V289.144C272.553 288.572 272.389 288.005 272.048 287.544C271.874 287.362 271.661 287.221 271.426 287.129C271.192 287.038 270.939 286.999 270.688 287.016C270.393 286.999 270.097 287.044 269.821 287.151C269.545 287.257 269.295 287.421 269.088 287.632C268.664 288.135 268.454 288.784 268.504 289.44V293.888H265.896V281.488H268.504V285.832C268.859 285.477 269.288 285.204 269.76 285.032C270.273 284.845 270.815 284.753 271.36 284.76C271.859 284.733 272.359 284.809 272.828 284.982C273.297 285.156 273.726 285.423 274.088 285.768Z" fill="white"/>
<path d="M279.304 293.424C278.572 293.051 277.96 292.48 277.536 291.776C277.105 291.051 276.886 290.219 276.904 289.376C276.888 288.533 277.107 287.702 277.536 286.976C277.962 286.276 278.574 285.709 279.304 285.336C280.09 284.931 280.964 284.727 281.848 284.744C282.729 284.726 283.601 284.93 284.384 285.336C285.111 285.709 285.721 286.277 286.144 286.976C286.573 287.702 286.792 288.533 286.776 289.376C286.794 290.219 286.575 291.051 286.144 291.776C285.723 292.479 285.113 293.05 284.384 293.424C283.601 293.83 282.729 294.034 281.848 294.016C280.964 294.033 280.09 293.829 279.304 293.424ZM283.496 291.208C283.91 290.693 284.136 290.053 284.136 289.392C284.136 288.731 283.91 288.091 283.496 287.576C283.284 287.355 283.027 287.18 282.743 287.065C282.459 286.949 282.154 286.894 281.848 286.904C281.54 286.895 281.234 286.951 280.949 287.066C280.664 287.182 280.406 287.356 280.192 287.576C279.773 288.089 279.545 288.73 279.545 289.392C279.545 290.054 279.773 290.695 280.192 291.208C280.406 291.428 280.664 291.602 280.949 291.718C281.234 291.833 281.54 291.889 281.848 291.88C282.155 291.889 282.46 291.833 282.744 291.716C283.028 291.599 283.284 291.423 283.496 291.2V291.208Z" fill="white"/>
<path d="M290.24 293.424C289.511 293.05 288.901 292.479 288.48 291.776C288.049 291.051 287.83 290.219 287.848 289.376C287.833 288.533 288.051 287.702 288.48 286.976C288.903 286.277 289.513 285.709 290.24 285.336C291.036 284.948 291.916 284.764 292.8 284.8C293.682 284.782 294.554 284.986 295.336 285.392C296.06 285.767 296.666 286.335 297.088 287.032C297.517 287.758 297.736 288.589 297.72 289.432C297.738 290.275 297.519 291.107 297.088 291.832C296.669 292.533 296.062 293.104 295.336 293.48C294.554 293.886 293.682 294.09 292.8 294.072C291.906 294.074 291.026 293.851 290.24 293.424ZM294.4 291.2C294.819 290.687 295.047 290.046 295.047 289.384C295.047 288.722 294.819 288.081 294.4 287.568C294.19 287.347 293.935 287.173 293.652 287.057C293.369 286.941 293.066 286.886 292.76 286.896C292.453 286.886 292.146 286.941 291.861 287.056C291.576 287.172 291.318 287.346 291.104 287.568C290.68 288.078 290.448 288.721 290.448 289.384C290.448 290.047 290.68 290.69 291.104 291.2C291.318 291.422 291.576 291.596 291.861 291.712C292.146 291.827 292.453 291.882 292.76 291.872C293.066 291.882 293.369 291.827 293.652 291.711C293.935 291.595 294.19 291.421 294.4 291.2Z" fill="white"/>
<path d="M300.288 293.744C299.686 293.606 299.11 293.371 298.584 293.048L299.456 291.176C299.905 291.457 300.393 291.67 300.904 291.808C301.448 291.964 302.01 292.045 302.576 292.048C303.68 292.048 304.232 291.781 304.232 291.248C304.228 291.118 304.181 290.994 304.098 290.894C304.016 290.794 303.902 290.724 303.776 290.696C303.329 290.549 302.868 290.449 302.4 290.4C301.784 290.314 301.175 290.185 300.576 290.016C300.099 289.863 299.672 289.587 299.336 289.216C299.146 288.998 299.001 288.744 298.911 288.469C298.82 288.194 298.785 287.904 298.808 287.616C298.802 287.071 298.976 286.539 299.304 286.104C299.674 285.633 300.171 285.278 300.736 285.08C301.451 284.819 302.208 284.694 302.968 284.712C303.606 284.71 304.242 284.78 304.864 284.92C305.412 285.024 305.939 285.219 306.424 285.496L305.56 287.352C304.77 286.905 303.876 286.673 302.968 286.68C302.537 286.656 302.106 286.735 301.712 286.912C301.594 286.964 301.493 287.048 301.42 287.154C301.347 287.26 301.304 287.384 301.296 287.512C301.294 287.647 301.338 287.778 301.421 287.884C301.504 287.99 301.621 288.065 301.752 288.096C302.218 288.25 302.697 288.357 303.184 288.416C303.794 288.511 304.397 288.642 304.992 288.808C305.457 288.949 305.877 289.212 306.208 289.568C306.574 289.993 306.761 290.544 306.728 291.104C306.732 291.643 306.554 292.167 306.224 292.592C305.841 293.06 305.333 293.409 304.76 293.6C304.03 293.855 303.261 293.976 302.488 293.96C301.748 293.982 301.009 293.909 300.288 293.744Z" fill="white"/>
<path d="M317.072 290.128H310.28C310.389 290.662 310.698 291.135 311.144 291.448C311.648 291.782 312.244 291.95 312.848 291.928C313.274 291.938 313.697 291.867 314.096 291.72C314.473 291.571 314.815 291.348 315.104 291.064L316.488 292.568C316.016 293.068 315.439 293.457 314.799 293.707C314.158 293.958 313.47 294.063 312.784 294.016C311.851 294.037 310.927 293.834 310.088 293.424C309.343 293.059 308.718 292.487 308.288 291.776C307.857 291.051 307.638 290.219 307.656 289.376C307.642 288.534 307.858 287.704 308.28 286.976C308.69 286.278 309.285 285.707 310 285.328C310.752 284.925 311.595 284.721 312.448 284.736C313.284 284.719 314.109 284.914 314.848 285.304C315.551 285.665 316.134 286.22 316.528 286.904C316.946 287.657 317.156 288.507 317.136 289.368C317.136 289.368 317.104 289.696 317.072 290.128ZM310.976 287.24C310.565 287.585 310.302 288.075 310.24 288.608H314.672C314.605 288.077 314.341 287.59 313.932 287.243C313.523 286.897 313 286.716 312.464 286.736C311.924 286.718 311.395 286.897 310.976 287.24Z" fill="white"/>
<path d="M214.456 191.336C214.161 191.338 213.875 191.229 213.656 191.032L210.456 188.192C210.336 188.089 210.238 187.963 210.167 187.821C210.097 187.68 210.055 187.525 210.045 187.367C210.034 187.21 210.055 187.051 210.107 186.902C210.158 186.752 210.239 186.614 210.344 186.496C210.556 186.272 210.845 186.137 211.153 186.119C211.461 186.101 211.764 186.202 212 186.4L214.344 188.464L219.2 183.104C219.417 182.887 219.709 182.762 220.016 182.753C220.323 182.745 220.621 182.855 220.849 183.06C221.078 183.265 221.219 183.549 221.244 183.855C221.269 184.161 221.176 184.465 220.984 184.704L215.328 190.944C215.218 191.066 215.083 191.164 214.933 191.231C214.783 191.299 214.621 191.334 214.456 191.336Z" fill="#239EC2"/>
<path d="M214.456 216.936C214.162 216.941 213.876 216.835 213.656 216.64L210.456 213.792C210.338 213.687 210.241 213.56 210.172 213.417C210.103 213.275 210.063 213.121 210.054 212.963C210.045 212.805 210.066 212.647 210.118 212.497C210.17 212.348 210.251 212.21 210.356 212.092C210.461 211.974 210.588 211.877 210.731 211.808C210.873 211.74 211.027 211.699 211.185 211.69C211.504 211.671 211.817 211.78 212.056 211.992L214.4 214.056L219.256 208.688C219.473 208.471 219.765 208.346 220.072 208.337C220.378 208.329 220.677 208.439 220.905 208.644C221.134 208.849 221.275 209.133 221.3 209.439C221.325 209.745 221.232 210.049 221.04 210.288L215.384 216.528C215.269 216.66 215.126 216.766 214.966 216.836C214.805 216.907 214.631 216.941 214.456 216.936Z" fill="#239EC2"/>
<path d="M214.456 242.544C214.161 242.546 213.875 242.438 213.656 242.24L210.456 239.4C210.338 239.295 210.241 239.168 210.172 239.025C210.103 238.883 210.063 238.729 210.054 238.571C210.045 238.413 210.066 238.255 210.118 238.105C210.17 237.956 210.251 237.818 210.356 237.7C210.461 237.582 210.588 237.485 210.731 237.416C210.873 237.347 211.027 237.307 211.185 237.298C211.504 237.279 211.817 237.388 212.056 237.6L214.4 239.656L219.256 234.296C219.473 234.079 219.765 233.954 220.072 233.945C220.378 233.937 220.677 234.047 220.905 234.252C221.134 234.457 221.275 234.741 221.3 235.047C221.325 235.353 221.232 235.657 221.04 235.896L215.384 242.136C215.269 242.268 215.126 242.373 214.965 242.444C214.805 242.514 214.631 242.548 214.456 242.544Z" fill="#239EC2"/>
<path d="M293.264 97.224L296.472 103.72L303.64 104.76L298.456 109.816L299.68 116.952L293.264 113.584L286.856 116.952L288.08 109.816L282.896 104.76L290.064 103.72L293.264 97.224Z" fill="white"/>
<path d="M280.808 97.224L285.048 105.808L294.52 107.184L287.664 113.864L289.28 123.296L280.808 118.84L272.344 123.296L273.96 113.864L267.104 107.184L276.576 105.808L280.808 97.224Z" fill="white"/>
<path d="M290.312 124.712L280.8 119.72L271.296 124.712L273.112 114.136L265.424 106.64L276.048 105.096L280.8 95.496L285.544 105.096L296.168 106.64L288.48 114.128L290.312 124.712ZM268.8 107.72L274.816 113.592L273.392 121.88L280.84 117.96L288.28 121.88L286.832 113.6L292.848 107.728L284.528 106.52L280.8 98.976L277.072 106.512L268.8 107.72Z" fill="#239EC2"/>
<path d="M375.024 331.328C375.024 329.648 374.944 223.96 374.832 68.672L375.024 68.864H186.08L186.288 68.656C186.288 166.936 186.288 257.864 186.248 331.312L186.08 331.144L375.048 331.312L186.08 331.48H185.912V331.312C185.912 257.864 185.912 166.936 185.872 68.656V68.448H186.104H375.048H375.2V68.632C375.096 224 375.024 329.648 375.024 331.328Z" fill="#263238"/>
<path d="M282.552 226.68C282.552 226.68 279.752 222.472 285.36 222.24C290.968 222.008 318.536 226.68 327.88 231.352L336.056 236.488L327.2 254.008H306.848C304.512 254.008 297.976 250.008 304.048 247.24C304.048 247.24 297.976 243.032 303.584 239.528C303.584 239.528 299.144 236.256 303.816 231.816L282.552 226.68Z" fill="#FFBF9D"/>
<path d="M329.52 233.088L375.92 257.392L393.328 240.736L414.072 259.424C414.072 259.424 393.512 283.568 381.6 285.672C369.688 287.776 323.296 250.472 323.296 250.472L329.52 233.088Z" fill="#FFBF9D"/>
<path d="M378.2 158.4L377.768 158.648C377.094 158.994 376.375 159.244 375.632 159.392C375.279 159.431 374.928 159.495 374.584 159.584C374.379 159.695 374.183 159.824 374 159.968C372.728 160.712 371.112 160.768 369.688 160.952C368.088 161.12 366.368 161.368 365.12 162.4C363.872 163.432 363.312 165.488 364.408 166.68C363.892 166.689 363.397 166.885 363.015 167.233C362.634 167.58 362.392 168.055 362.336 168.568C362.299 169.084 362.394 169.601 362.612 170.07C362.831 170.539 363.165 170.944 363.584 171.248C364.432 171.849 365.427 172.209 366.464 172.288C365.866 172.388 365.33 172.718 364.971 173.206C364.611 173.694 364.455 174.303 364.536 174.904C364.644 175.502 364.903 176.063 365.288 176.533C365.673 177.003 366.171 177.368 366.736 177.592C367.868 178.033 369.084 178.219 370.296 178.136C371.859 178.08 373.424 178.112 374.984 178.232C374.984 178.232 374.984 179.776 374.984 180.472C374.984 181.416 374.984 180.68 374.984 180.68C375.828 181.173 376.739 181.542 377.688 181.776C379.792 182.464 381.152 183.024 383.048 183.512C384.464 183.88 385.856 184.056 386.616 183.104C388.448 180.816 383.632 177.504 383.632 177.504C385.048 176.704 384.664 172.168 382.56 171.552C383.6 171.04 384.256 171.096 384.872 170.104C385.19 169.617 385.39 169.062 385.454 168.484C385.517 167.906 385.444 167.321 385.24 166.776C385.014 166.241 384.618 165.794 384.114 165.505C383.61 165.216 383.024 165.1 382.448 165.176C383.129 164.59 383.616 163.812 383.846 162.944C384.076 162.075 384.037 161.158 383.736 160.312C383.34 159.301 382.585 158.473 381.616 157.984C381.135 157.741 380.615 157.587 380.08 157.528C379.879 157.492 379.673 157.492 379.472 157.528C379.382 157.556 379.299 157.599 379.224 157.656C378.872 157.84 378.568 158.152 378.2 158.4Z" fill="#FFBF9D"/>
<path d="M380.448 153.184C380.433 152.682 380.31 152.19 380.088 151.74C379.866 151.29 379.549 150.893 379.16 150.576C378.184 149.912 376.424 149.992 375.264 150.248C375.192 151.656 375.264 152.368 375.168 153.776C375.168 154.072 375.256 154.304 375.12 154.576C374.76 155.272 373.232 155.376 372.528 155.736C371.947 156.089 371.522 156.652 371.343 157.308C371.163 157.964 371.24 158.664 371.56 159.264C371.912 159.848 372.424 160.318 373.035 160.62C373.646 160.922 374.33 161.043 375.008 160.968C376.371 160.795 377.621 160.119 378.512 159.072C379.222 158.276 379.76 157.343 380.093 156.33C380.426 155.317 380.547 154.246 380.448 153.184Z" fill="#FFBF9D"/>
<path d="M382.84 165.096C382.84 165.208 378.736 165.656 373.648 166.088C368.56 166.52 364.424 166.784 364.416 166.664C364.408 166.544 368.52 166.104 373.608 165.672C378.696 165.24 382.832 164.976 382.84 165.096Z" fill="#FF9A6C"/>
<path d="M382.84 171.52C382.058 171.759 381.254 171.92 380.44 172C378.483 172.291 376.512 172.484 374.536 172.576C372.216 172.696 370.12 172.672 368.6 172.576C367.778 172.58 366.957 172.5 366.152 172.336C366.968 172.255 367.789 172.236 368.608 172.28C370.12 172.28 372.208 172.28 374.512 172.136C376.816 171.992 378.896 171.84 380.4 171.688C381.208 171.575 382.024 171.519 382.84 171.52Z" fill="#FF9A6C"/>
<path d="M382.84 177.8C382.186 177.986 381.512 178.093 380.832 178.12C379.584 178.248 377.856 178.344 375.944 178.368C374.032 178.392 372.304 178.368 371.056 178.368C370.377 178.399 369.696 178.362 369.024 178.256C369.69 178.124 370.369 178.062 371.048 178.072C372.304 178.016 374.032 177.992 375.936 177.96C377.84 177.928 379.568 177.888 380.816 177.832C381.489 177.765 382.166 177.754 382.84 177.8Z" fill="#FF9A6C"/>
<path d="M380.072 155.248C380.228 155.779 380.182 156.349 379.944 156.848C379.461 158.053 378.549 159.036 377.384 159.608C376.771 159.936 376.128 160.204 375.464 160.408C374.925 160.599 374.367 160.73 373.8 160.8C373.397 160.845 372.991 160.752 372.648 160.536C372.416 160.376 372.352 160.224 372.368 160.208C372.781 160.478 373.28 160.586 373.768 160.512C374.314 160.399 374.849 160.242 375.368 160.04C376.004 159.822 376.622 159.555 377.216 159.24C378.303 158.705 379.18 157.82 379.704 156.728C379.869 156.246 379.992 155.751 380.072 155.248Z" fill="#FF9A6C"/>
<path d="M162.888 117.192H25.584V308.04H162.888V117.192Z" fill="white"/>
<path d="M162.888 117.192H25.584V186.272H162.888V117.192Z" fill="#455A64"/>
<path d="M139.12 203.2C139.12 203.32 120.24 203.416 96.9603 203.416C73.6803 203.416 54.8003 203.32 54.8003 203.2C54.8003 203.08 73.6723 202.992 96.9603 202.992C120.248 202.992 139.12 203.064 139.12 203.2Z" fill="#263238"/>
<path d="M139.12 221.784C139.12 221.896 120.24 221.992 96.9603 221.992C73.6803 221.992 54.8003 221.896 54.8003 221.784C54.8003 221.672 73.6723 221.576 96.9603 221.576C120.248 221.576 139.12 221.672 139.12 221.784Z" fill="#263238"/>
<path d="M139.12 240.392C139.12 240.504 120.24 240.6 96.9603 240.6C73.6803 240.6 54.8003 240.504 54.8003 240.392C54.8003 240.28 73.6723 240.176 96.9603 240.176C120.248 240.176 139.12 240.272 139.12 240.392Z" fill="#263238"/>
<path d="M138.768 261.84H56.2959C48.184 261.84 41.6079 268.416 41.6079 276.528V278.056C41.6079 286.168 48.184 292.744 56.2959 292.744H138.768C146.88 292.744 153.456 286.168 153.456 278.056V276.528C153.456 268.416 146.88 261.84 138.768 261.84Z" fill="#455A64"/>
<path d="M81.4882 169.224C81.7885 169.628 81.9436 170.121 81.9282 170.624C81.9421 170.991 81.8601 171.355 81.6903 171.68C81.5206 172.006 81.269 172.281 80.9602 172.48C80.1127 172.964 79.1422 173.189 78.1682 173.128H73.2402V164H77.9122C78.843 163.94 79.7698 164.166 80.5682 164.648C80.8559 164.838 81.0911 165.097 81.2519 165.402C81.4128 165.707 81.494 166.047 81.4882 166.392C81.4917 166.803 81.3809 167.208 81.1682 167.56C80.9427 167.905 80.6273 168.181 80.2562 168.36C80.744 168.519 81.1731 168.819 81.4882 169.224ZM75.7922 165.864V167.624H77.6002C78.4722 167.624 78.9042 167.328 78.9042 166.736C78.9042 166.144 78.4722 165.864 77.6002 165.864H75.7922ZM79.3202 170.336C79.3202 169.72 78.8642 169.408 77.9602 169.408H75.7922V171.264H77.9602C78.8642 171.264 79.3202 170.952 79.3202 170.336Z" fill="white"/>
<path d="M89.3923 171.352H85.5283L84.8163 173.128H82.1763L86.1763 163.992H88.7203L92.8003 173.128H90.1123L89.3923 171.352ZM88.6323 169.448L87.4643 166.528L86.2883 169.448H88.6323Z" fill="white"/>
<path d="M94.5842 173.04C93.9795 172.898 93.4051 172.649 92.8882 172.304L93.7362 170.4C94.1777 170.684 94.6571 170.905 95.1602 171.056C95.6777 171.22 96.2173 171.303 96.7602 171.304C97.7522 171.304 98.2482 171.056 98.2482 170.56C98.2467 170.431 98.2051 170.305 98.1292 170.2C98.0532 170.096 97.9466 170.017 97.8242 169.976C97.3823 169.806 96.9275 169.673 96.4642 169.576C95.878 169.459 95.3006 169.301 94.7362 169.104C94.2804 168.941 93.8732 168.666 93.5522 168.304C93.2026 167.88 93.0255 167.34 93.0562 166.792C93.0498 166.253 93.209 165.725 93.5122 165.28C93.8551 164.803 94.3269 164.434 94.8722 164.216C95.5808 163.942 96.3367 163.811 97.0962 163.832C97.6939 163.83 98.2899 163.897 98.8722 164.032C99.414 164.149 99.9347 164.349 100.416 164.624L99.6162 166.544C98.8465 166.1 97.9768 165.857 97.0882 165.84C96.7014 165.811 96.314 165.888 95.9682 166.064C95.8616 166.122 95.7725 166.207 95.7106 166.311C95.6486 166.416 95.616 166.535 95.6162 166.656C95.6177 166.78 95.6589 166.901 95.7338 167C95.8086 167.099 95.9131 167.172 96.0322 167.208C96.4677 167.374 96.9176 167.5 97.3762 167.584C97.9623 167.705 98.5396 167.865 99.1042 168.064C99.5578 168.231 99.9641 168.505 100.288 168.864C100.652 169.29 100.836 169.841 100.8 170.4C100.806 170.931 100.647 171.451 100.344 171.888C99.9997 172.367 99.5248 172.736 98.9762 172.952C98.2697 173.235 97.513 173.371 96.7522 173.352C96.019 173.343 95.2901 173.238 94.5842 173.04Z" fill="white"/>
<path d="M101.976 164H104.56V173.136H101.976V164Z" fill="white"/>
<path d="M108.376 172.704C107.631 172.319 107.008 171.735 106.576 171.016C106.151 170.269 105.928 169.424 105.928 168.564C105.928 167.704 106.151 166.859 106.576 166.112C107.008 165.391 107.631 164.804 108.376 164.416C109.172 164.007 110.057 163.801 110.952 163.816C111.727 163.803 112.495 163.953 113.208 164.256C113.862 164.539 114.437 164.978 114.88 165.536L113.232 167.024C112.98 166.691 112.655 166.422 112.282 166.236C111.909 166.05 111.497 165.953 111.08 165.952C110.619 165.945 110.164 166.058 109.76 166.28C109.375 166.491 109.06 166.811 108.856 167.2C108.635 167.619 108.525 168.087 108.536 168.56C108.526 169.036 108.636 169.506 108.856 169.928C109.062 170.316 109.376 170.635 109.76 170.848C110.164 171.07 110.619 171.183 111.08 171.176C111.497 171.175 111.909 171.078 112.282 170.892C112.655 170.706 112.98 170.437 113.232 170.104L114.88 171.592C114.434 172.147 113.861 172.586 113.208 172.872C112.495 173.175 111.727 173.325 110.952 173.312C110.056 173.328 109.17 173.119 108.376 172.704Z" fill="white"/>
<path d="M76.5762 280.416C75.8888 280.046 75.3181 279.492 74.9282 278.816C74.5346 278.126 74.3276 277.346 74.3276 276.552C74.3276 275.758 74.5346 274.978 74.9282 274.288C75.3356 273.654 75.9044 273.141 76.5762 272.8C77.2476 272.459 77.9846 272.267 78.737 272.237C79.4893 272.206 80.2394 272.338 80.9362 272.624C81.5154 272.872 82.028 273.253 82.4322 273.736L81.1682 274.904C80.9116 274.588 80.5868 274.335 80.2182 274.163C79.8496 273.992 79.4468 273.906 79.0402 273.912C78.5488 273.901 78.0632 274.02 77.6322 274.256C77.2261 274.479 76.8908 274.812 76.6642 275.216C76.43 275.648 76.3115 276.133 76.3202 276.624C76.3093 277.115 76.4279 277.601 76.6642 278.032C76.8854 278.421 77.2092 278.742 77.6002 278.96C78.0312 279.196 78.5168 279.315 79.0082 279.304C79.4162 279.309 79.82 279.221 80.1888 279.046C80.5576 278.872 80.8816 278.615 81.1362 278.296L82.4002 279.464C82.0003 279.959 81.4834 280.347 80.8962 280.592C80.2626 280.855 79.582 280.985 78.8962 280.976C78.0885 280.983 77.2917 280.791 76.5762 280.416Z" fill="white"/>
<path d="M89.552 274.936C89.8156 275.227 90.0175 275.569 90.1453 275.94C90.2732 276.311 90.3245 276.704 90.296 277.096V280.8H88.408V277.352C88.4379 276.939 88.3155 276.529 88.064 276.2C87.9384 276.068 87.7851 275.964 87.615 275.898C87.4449 275.832 87.2622 275.804 87.08 275.816C86.8704 275.806 86.6609 275.839 86.4652 275.915C86.2695 275.991 86.0919 276.107 85.944 276.256C85.6337 276.623 85.4812 277.097 85.52 277.576V280.776H83.624V271.832H85.52V274.984C85.7699 274.731 86.0695 274.532 86.4 274.4C86.7738 274.262 87.1697 274.195 87.568 274.2C87.9314 274.181 88.2948 274.237 88.636 274.363C88.9772 274.49 89.2889 274.685 89.552 274.936Z" fill="white"/>
<path d="M93.3361 280.504C92.8074 280.229 92.3646 279.814 92.0561 279.304C91.7575 278.774 91.6006 278.176 91.6006 277.568C91.6006 276.96 91.7575 276.362 92.0561 275.832C92.3673 275.326 92.8096 274.914 93.3361 274.64C93.9101 274.346 94.5474 274.198 95.1921 274.208C95.8317 274.197 96.4641 274.346 97.0321 274.64C97.5582 274.912 97.9985 275.325 98.3041 275.832C98.608 276.36 98.768 276.959 98.768 277.568C98.768 278.177 98.608 278.776 98.3041 279.304C97.9997 279.814 97.5593 280.23 97.0321 280.504C96.4634 280.796 95.8311 280.941 95.1921 280.928C94.548 280.941 93.9107 280.795 93.3361 280.504ZM96.3841 278.904C96.7073 278.543 96.8741 278.068 96.8481 277.584C96.8608 277.346 96.8263 277.107 96.7467 276.882C96.6671 276.657 96.5439 276.449 96.3841 276.272C96.2307 276.111 96.0456 275.984 95.8403 275.898C95.6351 275.813 95.4143 275.771 95.1921 275.776C94.9672 275.769 94.7433 275.81 94.5352 275.895C94.327 275.981 94.1392 276.109 93.9841 276.272C93.8228 276.449 93.6981 276.656 93.6171 276.881C93.5361 277.106 93.5004 277.345 93.5121 277.584C93.4891 278.069 93.6587 278.544 93.9841 278.904C94.1399 279.066 94.328 279.192 94.5361 279.277C94.7443 279.361 94.9677 279.4 95.1921 279.392C95.4149 279.396 95.636 279.353 95.8413 279.266C96.0466 279.179 96.2314 279.05 96.3841 278.888V278.904Z" fill="white"/>
<path d="M101.288 280.504C100.758 280.231 100.315 279.815 100.008 279.304C99.7696 278.918 99.6133 278.487 99.5487 278.038C99.4842 277.589 99.5129 277.131 99.6329 276.693C99.753 276.256 99.962 275.848 100.247 275.494C100.531 275.141 100.886 274.85 101.288 274.64C101.863 274.356 102.495 274.208 103.136 274.208C103.777 274.208 104.409 274.356 104.984 274.64C105.51 274.912 105.951 275.325 106.256 275.832C106.56 276.36 106.72 276.959 106.72 277.568C106.72 278.177 106.56 278.776 106.256 279.304C105.952 279.814 105.511 280.23 104.984 280.504C104.408 280.783 103.776 280.928 103.136 280.928C102.496 280.928 101.864 280.783 101.288 280.504ZM104.336 278.904C104.655 278.547 104.822 278.079 104.8 277.6C104.813 277.362 104.778 277.123 104.699 276.898C104.619 276.673 104.496 276.465 104.336 276.288C104.182 276.126 103.995 275.998 103.789 275.913C103.582 275.827 103.36 275.786 103.136 275.792C102.912 275.786 102.69 275.827 102.483 275.913C102.277 275.998 102.09 276.126 101.936 276.288C101.775 276.465 101.65 276.672 101.569 276.897C101.488 277.122 101.452 277.361 101.464 277.6C101.441 278.085 101.611 278.56 101.936 278.92C102.091 279.081 102.278 279.207 102.484 279.291C102.691 279.375 102.913 279.415 103.136 279.408C103.361 279.411 103.585 279.366 103.792 279.276C103.998 279.187 104.184 279.054 104.336 278.888V278.904Z" fill="white"/>
<path d="M108.584 280.728C108.147 280.633 107.73 280.462 107.352 280.224L107.984 278.872C108.311 279.074 108.667 279.225 109.04 279.32C109.432 279.436 109.839 279.495 110.248 279.496C111.048 279.496 111.448 279.304 111.448 278.904C111.447 278.81 111.413 278.72 111.354 278.647C111.294 278.574 111.212 278.524 111.12 278.504C110.795 278.399 110.46 278.33 110.12 278.296C109.671 278.237 109.227 278.143 108.792 278.016C108.448 277.913 108.137 277.723 107.888 277.464C107.616 277.147 107.478 276.737 107.504 276.32C107.498 275.925 107.625 275.539 107.864 275.224C108.136 274.88 108.499 274.619 108.912 274.472C109.425 274.287 109.967 274.198 110.512 274.208C110.975 274.207 111.437 274.258 111.888 274.36C112.286 274.44 112.669 274.581 113.024 274.776L112.392 276.128C111.82 275.802 111.171 275.633 110.512 275.64C110.199 275.623 109.886 275.68 109.6 275.808C109.514 275.846 109.44 275.908 109.386 275.985C109.332 276.063 109.301 276.154 109.296 276.248C109.296 276.345 109.329 276.439 109.388 276.516C109.447 276.592 109.53 276.647 109.624 276.672C109.966 276.781 110.316 276.859 110.672 276.904C111.114 276.974 111.552 277.067 111.984 277.184C112.323 277.287 112.627 277.481 112.864 277.744C112.997 277.895 113.099 278.071 113.164 278.262C113.228 278.453 113.254 278.655 113.24 278.856C113.246 279.246 113.119 279.627 112.88 279.936C112.599 280.274 112.231 280.529 111.816 280.672C111.284 280.856 110.723 280.943 110.16 280.928C109.628 280.929 109.099 280.862 108.584 280.728Z" fill="white"/>
<path d="M120.8 278.104H115.864C115.94 278.493 116.163 278.837 116.488 279.064C116.855 279.307 117.288 279.43 117.728 279.416C118.036 279.424 118.343 279.372 118.632 279.264C118.906 279.154 119.157 278.991 119.368 278.784L120.376 279.88C120.031 280.242 119.611 280.523 119.145 280.704C118.679 280.885 118.179 280.962 117.68 280.928C117.005 280.944 116.336 280.799 115.728 280.504C115.184 280.239 114.728 279.823 114.416 279.304C114.114 278.777 113.956 278.18 113.956 277.572C113.956 276.964 114.114 276.367 114.416 275.84C114.716 275.332 115.151 274.917 115.672 274.64C116.218 274.348 116.829 274.199 117.448 274.208C118.052 274.198 118.65 274.341 119.184 274.624C119.695 274.893 120.118 275.304 120.4 275.808C120.691 276.359 120.829 276.978 120.8 277.6C120.8 277.6 120.8 277.792 120.8 278.104ZM116.352 276C116.057 276.252 115.868 276.607 115.824 276.992H119.024C118.972 276.607 118.781 276.255 118.488 276C118.188 275.751 117.806 275.62 117.416 275.632C117.028 275.622 116.65 275.753 116.352 276Z" fill="white"/>
<path d="M46.2161 206.648C45.9223 206.65 45.6379 206.545 45.4161 206.352L43.0721 204.28C42.8334 204.068 42.6888 203.77 42.67 203.451C42.6513 203.132 42.76 202.819 42.9721 202.58C43.1843 202.341 43.4826 202.197 43.8014 202.178C44.1202 202.159 44.4334 202.268 44.6721 202.48L46.1361 203.768L49.4481 200.104C49.6678 199.9 49.9559 199.786 50.2556 199.784C50.5553 199.781 50.845 199.891 51.0677 200.092C51.2904 200.293 51.4299 200.569 51.4589 200.868C51.4878 201.166 51.4041 201.464 51.2241 201.704L47.1201 206.24C47.0059 206.367 46.8666 206.469 46.711 206.539C46.5554 206.609 46.3869 206.646 46.2161 206.648Z" fill="#455A64"/>
<path d="M46.2162 225.248C45.9224 225.25 45.638 225.145 45.4162 224.952L43.0722 222.888C42.9535 222.783 42.8566 222.656 42.7871 222.513C42.7177 222.371 42.6769 222.216 42.6673 222.058C42.6478 221.738 42.756 221.424 42.9682 221.184C43.1804 220.944 43.4791 220.799 43.7987 220.779C44.1182 220.76 44.4324 220.868 44.6722 221.08L46.1282 222.4L49.4402 218.744C49.5402 218.611 49.6669 218.5 49.8122 218.418C49.9574 218.337 50.1181 218.286 50.2839 218.27C50.4498 218.254 50.6171 218.273 50.7754 218.325C50.9336 218.377 51.0793 218.461 51.203 218.573C51.3268 218.684 51.426 218.821 51.4943 218.973C51.5626 219.124 51.5986 219.289 51.5998 219.456C51.601 219.622 51.5676 219.787 51.5015 219.94C51.4355 220.093 51.3383 220.231 51.2162 220.344L47.1122 224.88C46.9966 225 46.8572 225.095 46.703 225.158C46.5487 225.222 46.3829 225.252 46.2162 225.248Z" fill="#455A64"/>
<path d="M46.2161 243.856C45.9223 243.858 45.6379 243.753 45.4161 243.56L43.0721 241.488C42.9539 241.383 42.8576 241.256 42.7886 241.113C42.7196 240.971 42.6793 240.817 42.67 240.659C42.6608 240.501 42.6827 240.343 42.7345 240.193C42.7863 240.044 42.8671 239.906 42.9721 239.788C43.0772 239.67 43.2045 239.574 43.3468 239.505C43.4891 239.436 43.6436 239.395 43.8014 239.386C43.9593 239.377 44.1174 239.399 44.2668 239.45C44.4162 239.502 44.5539 239.583 44.6721 239.688L46.1361 240.976L49.4481 237.312C49.5482 237.179 49.6748 237.068 49.8201 236.986C49.9654 236.905 50.126 236.854 50.2919 236.838C50.4577 236.822 50.6251 236.841 50.7833 236.893C50.9415 236.945 51.0872 237.029 51.211 237.141C51.3348 237.252 51.434 237.389 51.5023 237.541C51.5706 237.692 51.6065 237.857 51.6077 238.024C51.609 238.19 51.5755 238.355 51.5095 238.508C51.4434 238.661 51.3462 238.799 51.2241 238.912L47.1201 243.448C47.0059 243.575 46.8666 243.677 46.711 243.747C46.5554 243.817 46.3869 243.854 46.2161 243.856Z" fill="#455A64"/>
<path d="M99.44 152.176L94.24 149.368L88.976 152.056L90.04 146.248L85.856 142.072L91.712 141.288L94.392 136.016L96.952 141.344L102.792 142.264L98.512 146.344L99.44 152.176Z" fill="white"/>
<path d="M162.888 308.04C162.888 306.36 162.816 230 162.704 117.192L162.888 117.384L25.6001 117.4L25.8081 117.192C25.8081 188.6 25.8081 254.672 25.7681 308.04L25.6001 307.872L162.904 308.04L25.6001 308.208H25.4321V308.04C25.4321 254.672 25.4321 188.6 25.3921 117.192V116.984H25.6001H162.888H163.08V117.168C162.968 230 162.896 306.4 162.888 308.04Z" fill="#263238"/>
</svg>
