<svg width="17" height="16" viewBox="0 0 17 16" fill="none" xmlns="http://www.w3.org/2000/svg">
<path d="M9.04645 2.67377L9.04715 2.67518L10.2193 5.01946C10.3667 5.31875 10.6066 5.56449 10.8443 5.73993C11.0834 5.91633 11.3883 6.07184 11.7147 6.12623L11.715 6.12629L13.8413 6.47956C13.8415 6.47958 13.8416 6.4796 13.8417 6.47962C14.392 6.57143 14.4743 6.77065 14.4781 6.78261C14.4814 6.79288 14.5323 7.00079 14.1361 7.39429L14.1343 7.3961L12.481 9.04943C12.2286 9.30183 12.0671 9.63044 11.9794 9.93669C11.8917 10.2433 11.8555 10.6056 11.9328 10.9505L11.9328 10.9505L11.9339 10.9554L12.4071 13.0015C12.4072 13.0017 12.4072 13.0018 12.4072 13.0019C12.4072 13.002 12.4072 13.002 12.4073 13.0021C12.4856 13.3425 12.4857 13.5765 12.4595 13.718C12.4437 13.8036 12.4222 13.8398 12.4132 13.8516C12.3992 13.8567 12.3575 13.8664 12.2694 13.8553C12.1254 13.8371 11.9014 13.7657 11.6 13.5877C11.6 13.5877 11.6 13.5877 11.6 13.5877C11.5998 13.5876 11.5996 13.5875 11.5994 13.5873L9.60699 12.4079C9.60689 12.4078 9.60679 12.4078 9.60669 12.4077C9.28281 12.2159 8.90367 12.1431 8.56714 12.1431C8.22982 12.1431 7.85176 12.2162 7.52747 12.4048L7.52746 12.4048L7.52258 12.4077L5.52925 13.5877L5.52854 13.5881C5.22941 13.7656 5.00687 13.8363 4.86397 13.8542C4.77327 13.8655 4.73159 13.8545 4.71864 13.8494C4.70986 13.8387 4.68702 13.8026 4.67041 13.7137C4.64408 13.5729 4.64377 13.3402 4.72199 13.0022L4.72202 13.0021L5.19535 10.9554L5.19537 10.9554L5.19648 10.9505C5.27378 10.6056 5.23761 10.2433 5.14984 9.93669C5.06217 9.63044 4.90069 9.30183 4.6483 9.04944L4.19832 9.49941L4.6483 9.04943L2.99497 7.3961C2.6013 7.00244 2.65024 6.7933 2.65409 6.78124C2.65772 6.7699 2.738 6.5713 3.28756 6.47962C3.28769 6.4796 3.28781 6.47958 3.28794 6.47956L5.41423 6.12629L5.41423 6.1263L5.41686 6.12585C5.74064 6.07087 6.04363 5.91452 6.28051 5.73889C6.51647 5.56393 6.75599 5.31854 6.90329 5.0195L8.07476 2.67658C8.07485 2.67638 8.07495 2.67619 8.07505 2.676C8.34072 2.14774 8.56074 2.13477 8.5638 2.13477C8.56552 2.13477 8.78399 2.14608 9.04645 2.67377ZM12.409 13.8562C12.4089 13.8561 12.4097 13.8552 12.4115 13.8537C12.41 13.8555 12.409 13.8563 12.409 13.8562ZM12.4158 13.8505C12.4177 13.8493 12.4188 13.8489 12.4188 13.849C12.4189 13.849 12.418 13.8496 12.4158 13.8505ZM4.714 13.8471C4.71406 13.847 4.71507 13.8475 4.71685 13.8487C4.71484 13.8478 4.71395 13.8472 4.714 13.8471ZM4.71988 13.8509C4.7216 13.8523 4.72234 13.8531 4.72229 13.8532C4.72223 13.8532 4.72137 13.8526 4.71988 13.8509Z" fill="#FABF35" stroke="#FABF35" stroke-width="1.5" stroke-linecap="round" stroke-linejoin="round"/>
</svg>
