<svg width="34" height="33" viewBox="0 0 34 33" fill="none" xmlns="http://www.w3.org/2000/svg">
<path fill-rule="evenodd" clip-rule="evenodd" d="M8.77462 14.0154C6.95419 14.3461 5.26237 15.2242 3.93544 16.5511C2.21737 18.2692 1.25269 20.5989 1.25269 23.0283V28.3295C1.25269 30.5043 3.01537 32.267 5.19019 32.267C10.6817 32.267 23.3237 32.267 28.8152 32.267C30.99 32.267 32.7527 30.5043 32.7527 28.3295V23.0283C32.7527 20.5989 31.788 18.2692 30.0699 16.5511C28.743 15.2242 27.0512 14.3461 25.2307 14.0154C25.845 12.7829 26.1902 11.3943 26.1902 9.92432C26.1902 4.85413 22.0729 0.736816 17.0027 0.736816C11.9325 0.736816 7.81519 4.85413 7.81519 9.92432C7.81519 11.3943 8.16037 12.7829 8.77462 14.0154ZM24.8698 16.6194V19.3481C26.3976 19.8888 27.4948 21.3483 27.4948 23.0624C27.4948 24.5075 27.5001 25.6809 27.5001 25.6809C27.504 26.4054 26.9186 26.996 26.1941 26.9999C25.4696 27.0026 24.879 26.4172 24.8751 25.694C24.8751 25.694 24.8698 24.5141 24.8698 23.0624C24.8698 22.3379 24.2844 21.7499 23.5613 21.7499C22.8381 21.7499 22.2527 22.3379 22.2527 23.0624L22.2501 25.6888C22.2487 26.4133 21.6607 27.0013 20.9362 26.9999C20.2117 26.9986 19.6237 26.4106 19.6251 25.6861C19.6251 25.6861 19.6277 23.0611 19.6277 23.0624C19.6277 21.3509 20.721 19.8941 22.2448 19.3507V17.4699C20.7577 18.5054 18.9504 19.1118 17.0027 19.1118C15.0484 19.1118 13.2345 18.5002 11.7448 17.4581V19.3494C13.2739 19.8901 14.3698 21.3496 14.3698 23.0624C14.3698 25.2359 12.6058 26.9999 10.4323 26.9999C8.25881 26.9999 6.49481 25.2359 6.49481 23.0624C6.49481 21.3496 7.59075 19.8901 9.11981 19.3494V16.622C7.86769 16.8753 6.70875 17.4909 5.79262 18.407C4.56675 19.6329 3.87769 21.2958 3.87769 23.0283V28.3295C3.87769 29.054 4.46569 29.642 5.19019 29.642H28.8152C29.5397 29.642 30.1277 29.054 30.1277 28.3295V23.0283C30.1277 21.2958 29.4386 19.6329 28.2141 18.407C27.294 17.4869 26.1272 16.8701 24.8698 16.6194ZM10.4323 21.7499C11.1568 21.7499 11.7448 22.3379 11.7448 23.0624C11.7448 23.7869 11.1568 24.3749 10.4323 24.3749C9.70781 24.3749 9.11981 23.7869 9.11981 23.0624C9.11981 22.3379 9.70781 21.7499 10.4323 21.7499ZM17.0027 3.36182C20.6252 3.36182 23.5652 6.30313 23.5652 9.92432C23.5652 13.5468 20.6252 16.4868 17.0027 16.4868C13.3802 16.4868 10.4402 13.5468 10.4402 9.92432C10.4402 6.30313 13.3802 3.36182 17.0027 3.36182Z" fill="#239EC2" stroke="#239EC2" stroke-miterlimit="2" stroke-linejoin="round"/>
</svg>
