<svg width="24" height="25" viewBox="0 0 24 25" fill="none" xmlns="http://www.w3.org/2000/svg">
<path d="M9.18 1.61621H14.82L15.467 4.85321C16.0027 5.09323 16.5121 5.38814 16.987 5.73321L20.116 4.67421L22.936 9.55821L20.455 11.7382C20.5151 12.322 20.5151 12.9104 20.455 13.4942L22.935 15.6742L20.116 20.5582L16.987 19.5002C16.512 19.8449 16.0027 20.1395 15.467 20.3792L14.819 23.6162H9.18L8.533 20.3792C7.99729 20.1392 7.4879 19.8443 7.013 19.4992L3.884 20.5582L1.064 15.6742L3.545 13.4942C3.48499 12.9104 3.48499 12.322 3.545 11.7382L1.065 9.55821L3.885 4.67421L7.013 5.73221C7.48793 5.38748 7.99732 5.0929 8.533 4.85321L9.18 1.61621ZM10.82 3.61621L10.278 6.32121L9.753 6.51421C9.05716 6.77095 8.41047 7.14503 7.841 7.62021L7.411 7.97921L4.796 7.09421L3.616 9.13821L5.688 10.9592L5.593 11.5102C5.46759 12.2422 5.46759 12.9902 5.593 13.7222L5.688 14.2722L3.615 16.0942L4.795 18.1382L7.411 17.2532L7.841 17.6122C8.41079 18.0869 9.0574 18.461 9.753 18.7182L10.278 18.9112L10.82 21.6162H13.18L13.722 18.9112L14.247 18.7182C14.9428 18.4614 15.5895 18.0874 16.159 17.6122L16.589 17.2532L19.205 18.1382L20.385 16.0942L18.313 14.2732L18.407 13.7222C18.5324 12.9902 18.5324 12.2422 18.407 11.5102L18.313 10.9602L20.385 9.13821L19.205 7.09421L16.589 7.97921L16.159 7.62021C15.5895 7.145 14.9428 6.77092 14.247 6.51421L13.722 6.32121L13.18 3.61621H10.82ZM12 9.61621C11.2043 9.61621 10.4413 9.93228 9.87867 10.4949C9.31607 11.0575 9 11.8206 9 12.6162C9 13.4119 9.31607 14.1749 9.87867 14.7375C10.4413 15.3001 11.2043 15.6162 12 15.6162C12.7956 15.6162 13.5587 15.3001 14.1213 14.7375C14.6839 14.1749 15 13.4119 15 12.6162C15 11.8206 14.6839 11.0575 14.1213 10.4949C13.5587 9.93228 12.7956 9.61621 12 9.61621ZM7 12.6162C7 11.2901 7.52678 10.0184 8.46446 9.08068C9.40214 8.14299 10.6739 7.61621 12 7.61621C13.3261 7.61621 14.5978 8.14299 15.5355 9.08068C16.4732 10.0184 17 11.2901 17 12.6162C17 13.9423 16.4732 15.2141 15.5355 16.1517C14.5978 17.0894 13.3261 17.6162 12 17.6162C10.6739 17.6162 9.40214 17.0894 8.46446 16.1517C7.52678 15.2141 7 13.9423 7 12.6162Z" fill="black"/>
</svg>
