<svg width="36" height="38" viewBox="0 0 36 38" fill="none" xmlns="http://www.w3.org/2000/svg">
<g filter="url(#filter0_d_198_5762)">
<path d="M13.7484 10.3247L16.8018 7.25804V20.0447C16.8018 20.3983 16.9422 20.7375 17.1923 20.9875C17.4423 21.2376 17.7815 21.378 18.1351 21.378C18.4887 21.378 18.8279 21.2376 19.0779 20.9875C19.3279 20.7375 19.4684 20.3983 19.4684 20.0447V7.25804L22.5218 10.3247C22.6457 10.4497 22.7932 10.5489 22.9557 10.6166C23.1181 10.6842 23.2924 10.7191 23.4684 10.7191C23.6444 10.7191 23.8187 10.6842 23.9812 10.6166C24.1437 10.5489 24.2911 10.4497 24.4151 10.3247C24.5401 10.2008 24.6393 10.0533 24.7069 9.89081C24.7746 9.72833 24.8095 9.55405 24.8095 9.37804C24.8095 9.20202 24.7746 9.02775 24.7069 8.86527C24.6393 8.70279 24.5401 8.55532 24.4151 8.43137L19.0818 3.09804C18.955 2.97665 18.8054 2.88149 18.6418 2.81804C18.3171 2.68468 17.953 2.68468 17.6284 2.81804C17.4648 2.88149 17.3152 2.97665 17.1884 3.09804L11.8551 8.43137C11.7308 8.55569 11.6322 8.70327 11.5649 8.8657C11.4976 9.02813 11.463 9.20222 11.463 9.37804C11.463 9.55385 11.4976 9.72794 11.5649 9.89037C11.6322 10.0528 11.7308 10.2004 11.8551 10.3247C11.9794 10.449 12.127 10.5476 12.2894 10.6149C12.4519 10.6822 12.6259 10.7168 12.8018 10.7168C12.9776 10.7168 13.1517 10.6822 13.3141 10.6149C13.4765 10.5476 13.6241 10.449 13.7484 10.3247ZM30.1351 16.0447C29.7815 16.0447 29.4423 16.1852 29.1923 16.4352C28.9422 16.6853 28.8018 17.0244 28.8018 17.378V25.378C28.8018 25.7317 28.6613 26.0708 28.4112 26.3208C28.1612 26.5709 27.822 26.7114 27.4684 26.7114H8.80176C8.44814 26.7114 8.109 26.5709 7.85895 26.3208C7.6089 26.0708 7.46842 25.7317 7.46842 25.378V17.378C7.46842 17.0244 7.32795 16.6853 7.0779 16.4352C6.82785 16.1852 6.48871 16.0447 6.13509 16.0447C5.78147 16.0447 5.44233 16.1852 5.19228 16.4352C4.94223 16.6853 4.80176 17.0244 4.80176 17.378V25.378C4.80176 26.4389 5.22319 27.4563 5.97333 28.2065C6.72348 28.9566 7.74089 29.378 8.80176 29.378H27.4684C28.5293 29.378 29.5467 28.9566 30.2969 28.2065C31.047 27.4563 31.4684 26.4389 31.4684 25.378V17.378C31.4684 17.0244 31.3279 16.6853 31.0779 16.4352C30.8279 16.1852 30.4887 16.0447 30.1351 16.0447Z" fill="#828282"/>
</g>
<defs>
<filter id="filter0_d_198_5762" x="-1.86523" y="0.0446777" width="40" height="40" filterUnits="userSpaceOnUse" color-interpolation-filters="sRGB">
<feFlood flood-opacity="0" result="BackgroundImageFix"/>
<feColorMatrix in="SourceAlpha" type="matrix" values="0 0 0 0 0 0 0 0 0 0 0 0 0 0 0 0 0 0 127 0" result="hardAlpha"/>
<feOffset dy="4"/>
<feGaussianBlur stdDeviation="2"/>
<feComposite in2="hardAlpha" operator="out"/>
<feColorMatrix type="matrix" values="0 0 0 0 0 0 0 0 0 0 0 0 0 0 0 0 0 0 0.25 0"/>
<feBlend mode="normal" in2="BackgroundImageFix" result="effect1_dropShadow_198_5762"/>
<feBlend mode="normal" in="SourceGraphic" in2="effect1_dropShadow_198_5762" result="shape"/>
</filter>
</defs>
</svg>
