<svg width="28" height="28" viewBox="0 0 28 28" fill="none" xmlns="http://www.w3.org/2000/svg">
<path d="M9.74842 8.3247L12.8018 5.25804V18.0447C12.8018 18.3983 12.9422 18.7375 13.1923 18.9875C13.4423 19.2376 13.7815 19.378 14.1351 19.378C14.4887 19.378 14.8279 19.2376 15.0779 18.9875C15.3279 18.7375 15.4684 18.3983 15.4684 18.0447V5.25804L18.5218 8.3247C18.6457 8.44967 18.7932 8.54887 18.9557 8.61656C19.1181 8.68425 19.2924 8.7191 19.4684 8.7191C19.6444 8.7191 19.8187 8.68425 19.9812 8.61656C20.1437 8.54887 20.2911 8.44967 20.4151 8.3247C20.5401 8.20075 20.6393 8.05328 20.7069 7.89081C20.7746 7.72833 20.8095 7.55405 20.8095 7.37804C20.8095 7.20202 20.7746 7.02775 20.7069 6.86527C20.6393 6.70279 20.5401 6.55532 20.4151 6.43137L15.0818 1.09804C14.955 0.976648 14.8054 0.881495 14.6418 0.818036C14.3171 0.684678 13.953 0.684678 13.6284 0.818036C13.4648 0.881495 13.3152 0.976648 13.1884 1.09804L7.85509 6.43137C7.73077 6.55569 7.63216 6.70327 7.56488 6.8657C7.4976 7.02813 7.46297 7.20222 7.46297 7.37804C7.46297 7.55385 7.4976 7.72794 7.56488 7.89037C7.63216 8.0528 7.73077 8.20038 7.85509 8.3247C7.97941 8.44902 8.127 8.54764 8.28942 8.61492C8.45185 8.6822 8.62595 8.71682 8.80176 8.71682C8.97757 8.71682 9.15166 8.6822 9.31409 8.61492C9.47652 8.54764 9.62411 8.44902 9.74842 8.3247ZM26.1351 14.0447C25.7815 14.0447 25.4423 14.1852 25.1923 14.4352C24.9422 14.6853 24.8018 15.0244 24.8018 15.378V23.378C24.8018 23.7317 24.6613 24.0708 24.4112 24.3208C24.1612 24.5709 23.822 24.7114 23.4684 24.7114H4.80176C4.44814 24.7114 4.109 24.5709 3.85895 24.3208C3.6089 24.0708 3.46842 23.7317 3.46842 23.378V15.378C3.46842 15.0244 3.32795 14.6853 3.0779 14.4352C2.82785 14.1852 2.48871 14.0447 2.13509 14.0447C1.78147 14.0447 1.44233 14.1852 1.19228 14.4352C0.942234 14.6853 0.801758 15.0244 0.801758 15.378V23.378C0.801758 24.4389 1.22319 25.4563 1.97333 26.2065C2.72348 26.9566 3.74089 27.378 4.80176 27.378H23.4684C24.5293 27.378 25.5467 26.9566 26.2969 26.2065C27.047 25.4563 27.4684 24.4389 27.4684 23.378V15.378C27.4684 15.0244 27.3279 14.6853 27.0779 14.4352C26.8279 14.1852 26.4887 14.0447 26.1351 14.0447Z" fill="#828282"/>
</svg>
