<svg width="24" height="22" viewBox="0 0 24 22" fill="none" xmlns="http://www.w3.org/2000/svg">
<g filter="url(#filter0_d_102_254)">
<path d="M19.3172 14.0509C18.7305 13.4638 18.0451 12.9846 17.2922 12.6353C18.3539 11.7752 19.0312 10.4627 19.0312 8.99078C19.0312 6.39391 16.8656 4.26344 14.2687 4.30328C11.7117 4.34313 9.65156 6.42672 9.65156 8.99078C9.65156 10.4627 10.3312 11.7752 11.3906 12.6353C10.6376 12.9844 9.95209 13.4636 9.36562 14.0509C8.08594 15.333 7.35937 17.0252 7.3125 18.8298C7.31187 18.8549 7.31626 18.8797 7.3254 18.903C7.33455 18.9263 7.34826 18.9476 7.36573 18.9655C7.3832 18.9834 7.40409 18.9976 7.42715 19.0073C7.45021 19.017 7.47498 19.022 7.5 19.022H8.8125C8.91328 19.022 8.99765 18.9423 9 18.8416C9.04453 17.4822 9.59531 16.2095 10.5633 15.2439C11.0586 14.7459 11.6478 14.3512 12.2967 14.0824C12.9456 13.8137 13.6414 13.6763 14.3437 13.6783C15.7711 13.6783 17.1141 14.2338 18.1242 15.2439C19.0898 16.2095 19.6406 17.4822 19.6875 18.8416C19.6898 18.9423 19.7742 19.022 19.875 19.022H21.1875C21.2125 19.022 21.2373 19.017 21.2604 19.0073C21.2834 18.9976 21.3043 18.9834 21.3218 18.9655C21.3392 18.9476 21.353 18.9263 21.3621 18.903C21.3712 18.8797 21.3756 18.8549 21.375 18.8298C21.3281 17.0252 20.6016 15.333 19.3172 14.0509ZM14.3437 11.9908C13.5422 11.9908 12.7875 11.6791 12.2227 11.1119C11.9392 10.8306 11.7153 10.4952 11.5643 10.1255C11.4133 9.75587 11.3383 9.35959 11.3437 8.96032C11.3508 8.19157 11.6578 7.4486 12.1945 6.89782C12.757 6.32125 13.5094 6.00016 14.3133 5.99078C15.1078 5.98375 15.8789 6.29313 16.4461 6.8486C17.0273 7.41813 17.3461 8.17985 17.3461 8.99078C17.3461 9.79235 17.0344 10.5447 16.4672 11.1119C16.1889 11.3915 15.858 11.6131 15.4935 11.764C15.129 11.9148 14.7382 11.9919 14.3437 11.9908ZM8.47265 9.60953C8.45156 9.40563 8.43984 9.19938 8.43984 8.99078C8.43984 8.61813 8.475 8.25485 8.54062 7.90094C8.55703 7.81657 8.5125 7.72985 8.43515 7.69469C8.1164 7.55172 7.82344 7.35485 7.57031 7.10641C7.27204 6.81721 7.03734 6.46901 6.88117 6.08403C6.72499 5.69904 6.65079 5.28574 6.66328 4.87047C6.68437 4.11813 6.98672 3.40328 7.51406 2.86422C8.09297 2.27125 8.87109 1.94782 9.69844 1.95719C10.4461 1.96422 11.168 2.2525 11.7141 2.76344C11.8992 2.93688 12.0586 3.12907 12.1922 3.33532C12.2391 3.40797 12.3305 3.43844 12.4102 3.41032C12.8227 3.26735 13.2586 3.16657 13.7062 3.11969C13.8375 3.10563 13.9125 2.965 13.8539 2.84782C13.0922 1.34078 11.5359 0.300159 9.73594 0.272034C7.13672 0.232191 4.97109 2.36266 4.97109 4.95719C4.97109 6.42907 5.64844 7.74157 6.71015 8.60172C5.96484 8.94625 5.27812 9.42203 4.68281 10.0173C3.39844 11.2994 2.67187 12.9916 2.625 14.7986C2.62437 14.8236 2.62876 14.8485 2.6379 14.8718C2.64704 14.8951 2.66076 14.9163 2.67823 14.9342C2.6957 14.9521 2.71659 14.9664 2.73965 14.9761C2.7627 14.9858 2.78748 14.9908 2.8125 14.9908H4.12734C4.22812 14.9908 4.3125 14.9111 4.31484 14.8103C4.35937 13.4509 4.91015 12.1783 5.87812 11.2127C6.56719 10.5236 7.41094 10.0455 8.33203 9.81344C8.42344 9.79 8.48437 9.70328 8.47265 9.60953Z" fill="black"/>
</g>
<defs>
<filter id="filter0_d_102_254" x="-1.37506" y="0.271484" width="26.7501" height="26.7505" filterUnits="userSpaceOnUse" color-interpolation-filters="sRGB">
<feFlood flood-opacity="0" result="BackgroundImageFix"/>
<feColorMatrix in="SourceAlpha" type="matrix" values="0 0 0 0 0 0 0 0 0 0 0 0 0 0 0 0 0 0 127 0" result="hardAlpha"/>
<feOffset dy="4"/>
<feGaussianBlur stdDeviation="2"/>
<feComposite in2="hardAlpha" operator="out"/>
<feColorMatrix type="matrix" values="0 0 0 0 0 0 0 0 0 0 0 0 0 0 0 0 0 0 0.25 0"/>
<feBlend mode="normal" in2="BackgroundImageFix" result="effect1_dropShadow_102_254"/>
<feBlend mode="normal" in="SourceGraphic" in2="effect1_dropShadow_102_254" result="shape"/>
</filter>
</defs>
</svg>
