<svg width="22" height="21" viewBox="0 0 22 21" fill="none" xmlns="http://www.w3.org/2000/svg">
<path d="M15.6025 9.64697C17.0612 9.64697 18.4602 10.2264 19.4916 11.2579C20.5231 12.2893 21.1025 13.6883 21.1025 15.147C21.1025 16.6057 20.5231 18.0046 19.4916 19.0361C18.4602 20.0675 17.0612 20.647 15.6025 20.647C14.1438 20.647 12.7449 20.0675 11.7135 19.0361C10.682 18.0046 10.1025 16.6057 10.1025 15.147C10.1025 13.6883 10.682 12.2893 11.7135 11.2579C12.7449 10.2264 14.1438 9.64697 15.6025 9.64697ZM15.6025 11.647L15.5125 11.654C15.4126 11.6722 15.3207 11.7205 15.2488 11.7923C15.177 11.8641 15.1288 11.9561 15.1105 12.056L15.1025 12.147V14.647H12.6005L12.5105 14.655C12.4106 14.6732 12.3187 14.7215 12.2468 14.7933C12.175 14.8651 12.1268 14.9571 12.1085 15.057L12.1005 15.147L12.1085 15.237C12.1268 15.3369 12.175 15.4289 12.2468 15.5007C12.3187 15.5725 12.4106 15.6207 12.5105 15.639L12.6005 15.647H15.1025V18.15L15.1105 18.24C15.1288 18.3399 15.177 18.4319 15.2488 18.5037C15.3207 18.5755 15.4126 18.6237 15.5125 18.642L15.6025 18.65L15.6925 18.642C15.7924 18.6237 15.8844 18.5755 15.9562 18.5037C16.028 18.4319 16.0763 18.3399 16.0945 18.24L16.1025 18.15V15.647L18.6065 15.648L18.6965 15.64C18.7964 15.6217 18.8884 15.5735 18.9602 15.5017C19.032 15.4299 19.0803 15.3379 19.0985 15.238L19.1065 15.148L19.0985 15.058C19.0802 14.9579 19.0318 14.8659 18.9598 14.794C18.8878 14.7222 18.7956 14.674 18.6955 14.656L18.6055 14.648H16.1025V12.148L16.0945 12.058C16.0765 11.9579 16.0283 11.8657 15.9565 11.7937C15.8847 11.7217 15.7926 11.6733 15.6925 11.655L15.6025 11.647ZM12.3565 7.64697C12.7524 7.64705 13.1412 7.75156 13.4838 7.94997C13.8263 8.14837 14.1105 8.43364 14.3075 8.77697C13.7822 8.88243 13.2722 9.05343 12.7895 9.28597C12.6634 9.19534 12.5119 9.14671 12.3565 9.14697H7.85454C7.65563 9.14697 7.46486 9.22599 7.32421 9.36664C7.18356 9.5073 7.10454 9.69806 7.10454 9.89697V14.146C7.10454 15.556 8.07854 16.74 9.39054 17.061C9.56176 17.6211 9.80907 18.1551 10.1255 18.648L10.1055 18.647C9.51442 18.6471 8.92907 18.5308 8.38293 18.3046C7.83678 18.0785 7.34054 17.7469 6.92256 17.329C6.50458 16.911 6.17304 16.4147 5.94689 15.8686C5.72074 15.3224 5.60441 14.7371 5.60454 14.146V9.89697C5.60454 9.30024 5.84159 8.72794 6.26355 8.30598C6.68551 7.88403 7.2578 7.64697 7.85454 7.64697H12.3565ZM5.50854 7.64697C5.10694 8.0649 4.8248 8.5829 4.69154 9.14697H2.35254C2.15363 9.14697 1.96286 9.22599 1.82221 9.36664C1.68156 9.5073 1.60254 9.69806 1.60254 9.89697V12.646C1.60228 13.0239 1.68772 13.397 1.85243 13.7372C2.01715 14.0773 2.25684 14.3757 2.55349 14.6099C2.85014 14.8441 3.19603 15.008 3.56514 15.0892C3.93425 15.1705 4.31698 15.167 4.68454 15.079C4.76954 15.583 4.92454 16.064 5.13754 16.511C4.80687 16.601 4.46187 16.6463 4.10254 16.647C3.57717 16.647 3.05694 16.5435 2.57157 16.3424C2.08621 16.1413 1.64521 15.8466 1.27376 15.475C0.902311 15.1035 0.607694 14.6624 0.406734 14.177C0.205774 13.6916 0.102408 13.1713 0.102539 12.646V9.89697C0.102469 9.32685 0.318835 8.77795 0.707909 8.36122C1.09698 7.94449 1.62975 7.69099 2.19854 7.65197L2.35254 7.64697H5.50854ZM17.8525 7.64697C18.4493 7.64697 19.0216 7.88403 19.4435 8.30598C19.8655 8.72794 20.1025 9.30024 20.1025 9.89697V10.457C18.8934 9.29384 17.2803 8.645 15.6025 8.64697L15.3575 8.65197C15.2045 8.27868 14.9823 7.93769 14.7025 7.64697H17.8525ZM16.6025 1.64697C17.2656 1.64697 17.9015 1.91036 18.3703 2.37921C18.8391 2.84805 19.1025 3.48393 19.1025 4.14697C19.1025 4.81001 18.8391 5.4459 18.3703 5.91474C17.9015 6.38358 17.2656 6.64697 16.6025 6.64697C15.9395 6.64697 15.3036 6.38358 14.8348 5.91474C14.3659 5.4459 14.1025 4.81001 14.1025 4.14697C14.1025 3.48393 14.3659 2.84805 14.8348 2.37921C15.3036 1.91036 15.9395 1.64697 16.6025 1.64697ZM10.1025 0.646973C10.8982 0.646973 11.6613 0.963043 12.2239 1.52565C12.7865 2.08826 13.1025 2.85132 13.1025 3.64697C13.1025 4.44262 12.7865 5.20568 12.2239 5.76829C11.6613 6.3309 10.8982 6.64697 10.1025 6.64697C9.30689 6.64697 8.54383 6.3309 7.98122 5.76829C7.41861 5.20568 7.10254 4.44262 7.10254 3.64697C7.10254 2.85132 7.41861 2.08826 7.98122 1.52565C8.54383 0.963043 9.30689 0.646973 10.1025 0.646973ZM3.60254 1.64697C4.26558 1.64697 4.90146 1.91036 5.37031 2.37921C5.83915 2.84805 6.10254 3.48393 6.10254 4.14697C6.10254 4.81001 5.83915 5.4459 5.37031 5.91474C4.90146 6.38358 4.26558 6.64697 3.60254 6.64697C2.9395 6.64697 2.30361 6.38358 1.83477 5.91474C1.36593 5.4459 1.10254 4.81001 1.10254 4.14697C1.10254 3.48393 1.36593 2.84805 1.83477 2.37921C2.30361 1.91036 2.9395 1.64697 3.60254 1.64697ZM16.6025 3.14697C16.3373 3.14697 16.083 3.25233 15.8954 3.43987C15.7079 3.6274 15.6025 3.88176 15.6025 4.14697C15.6025 4.41219 15.7079 4.66654 15.8954 4.85408C16.083 5.04162 16.3373 5.14697 16.6025 5.14697C16.8678 5.14697 17.1221 5.04162 17.3096 4.85408C17.4972 4.66654 17.6025 4.41219 17.6025 4.14697C17.6025 3.88176 17.4972 3.6274 17.3096 3.43987C17.1221 3.25233 16.8678 3.14697 16.6025 3.14697ZM10.1025 2.14697C9.70471 2.14697 9.32318 2.30501 9.04188 2.58631C8.76057 2.86762 8.60254 3.24915 8.60254 3.64697C8.60254 4.0448 8.76057 4.42633 9.04188 4.70763C9.32318 4.98894 9.70471 5.14697 10.1025 5.14697C10.5004 5.14697 10.8819 4.98894 11.1632 4.70763C11.4445 4.42633 11.6025 4.0448 11.6025 3.64697C11.6025 3.24915 11.4445 2.86762 11.1632 2.58631C10.8819 2.30501 10.5004 2.14697 10.1025 2.14697ZM3.60254 3.14697C3.33732 3.14697 3.08297 3.25233 2.89543 3.43987C2.7079 3.6274 2.60254 3.88176 2.60254 4.14697C2.60254 4.41219 2.7079 4.66654 2.89543 4.85408C3.08297 5.04162 3.33732 5.14697 3.60254 5.14697C3.86776 5.14697 4.12211 5.04162 4.30965 4.85408C4.49718 4.66654 4.60254 4.41219 4.60254 4.14697C4.60254 3.88176 4.49718 3.6274 4.30965 3.43987C4.12211 3.25233 3.86776 3.14697 3.60254 3.14697Z" fill="black"/>
</svg>
