<svg width="24" height="25" viewBox="0 0 24 25" fill="none" xmlns="http://www.w3.org/2000/svg">
<path fill-rule="evenodd" clip-rule="evenodd" d="M11.5104 24.4904C5.1102 24.2336 0 18.9632 0 12.5C0 5.8724 5.3724 0.5 12 0.5C18.6276 0.5 24 5.8724 24 12.5C24 19.1276 18.6276 24.5 12 24.5H11.8356C11.7268 24.5 11.6184 24.4968 11.5104 24.4904ZM4.2996 20.072C4.20988 19.8143 4.17934 19.5398 4.21025 19.2687C4.24116 18.9976 4.33272 18.737 4.47815 18.5062C4.62357 18.2753 4.81912 18.0802 5.05027 17.9353C5.28143 17.7903 5.54226 17.6993 5.8134 17.669C10.491 17.1512 13.5378 17.198 18.1926 17.6798C18.4641 17.7081 18.7256 17.7979 18.9571 17.9425C19.1886 18.0871 19.3841 18.2827 19.5286 18.5142C19.6732 18.7458 19.763 19.0073 19.7912 19.2788C19.8194 19.5503 19.7853 19.8247 19.6914 20.081C21.6865 18.0626 22.8037 15.338 22.8 12.5C22.8 6.5354 17.9646 1.7 12 1.7C6.0354 1.7 1.2 6.5354 1.2 12.5C1.2 15.4496 2.3826 18.1232 4.2996 20.072Z" fill="#239EC2"/>
</svg>
